<mxfile host="app.diagrams.net" agent="Mozilla/5.0 (Macintosh; Intel Mac OS X 10_15_7) AppleWebKit/537.36 (KHTML, like Gecko) Chrome/138.0.0.0 Safari/537.36" version="28.0.6">
  <diagram name="Página-1" id="QS9C4l73Gr3voy6YUi3-">
    <mxGraphModel dx="1803" dy="752" grid="1" gridSize="10" guides="1" tooltips="1" connect="1" arrows="1" fold="1" page="1" pageScale="1" pageWidth="827" pageHeight="1169" background="#FFFFFF" math="0" shadow="0">
      <root>
        <mxCell id="0" />
        <mxCell id="1" parent="0" />
        <mxCell id="pJm1IEaVSABAI1_1Q2Wr-158" style="edgeStyle=orthogonalEdgeStyle;rounded=0;orthogonalLoop=1;jettySize=auto;html=1;strokeColor=#999999;flowAnimation=1;entryX=0;entryY=1.078;entryDx=0;entryDy=0;entryPerimeter=0;" parent="1" edge="1" target="2IJK8Kk_YS6RuWI4rXo5-8">
          <mxGeometry relative="1" as="geometry">
            <mxPoint x="243" y="161.23" as="sourcePoint" />
            <mxPoint x="62" y="80.23" as="targetPoint" />
            <Array as="points">
              <mxPoint x="285" y="161.23" />
              <mxPoint x="285" y="81.23" />
            </Array>
          </mxGeometry>
        </mxCell>
        <mxCell id="pJm1IEaVSABAI1_1Q2Wr-159" value="Jwt token" style="edgeLabel;html=1;align=center;verticalAlign=middle;resizable=0;points=[];" parent="pJm1IEaVSABAI1_1Q2Wr-158" vertex="1" connectable="0">
          <mxGeometry x="0.0677" y="1" relative="1" as="geometry">
            <mxPoint as="offset" />
          </mxGeometry>
        </mxCell>
        <mxCell id="pJm1IEaVSABAI1_1Q2Wr-34" style="edgeStyle=orthogonalEdgeStyle;rounded=0;orthogonalLoop=1;jettySize=auto;html=1;entryX=0;entryY=0.5;entryDx=0;entryDy=0;exitX=1;exitY=0.5;exitDx=0;exitDy=0;strokeColor=#999999;flowAnimation=1;" parent="1" edge="1" source="pJm1IEaVSABAI1_1Q2Wr-4">
          <mxGeometry relative="1" as="geometry">
            <mxPoint x="59.000000000000114" y="38.185000000000045" as="sourcePoint" />
            <mxPoint x="285.0999999999999" y="38.61" as="targetPoint" />
          </mxGeometry>
        </mxCell>
        <mxCell id="pJm1IEaVSABAI1_1Q2Wr-155" value="Usuário identificado" style="edgeLabel;html=1;align=center;verticalAlign=middle;resizable=0;points=[];" parent="pJm1IEaVSABAI1_1Q2Wr-34" vertex="1" connectable="0">
          <mxGeometry x="-0.1825" y="2" relative="1" as="geometry">
            <mxPoint y="1" as="offset" />
          </mxGeometry>
        </mxCell>
        <mxCell id="pJm1IEaVSABAI1_1Q2Wr-4" value="Usuário" style="shape=image;verticalLabelPosition=bottom;verticalAlign=top;imageAspect=0;aspect=fixed;image=data:image/svg+xml,PHN2ZyB4bWxucz0iaHR0cDovL3d3dy53My5vcmcvMjAwMC9zdmciIGlkPSJlMjQ2NzFmNi1mNTAxLTQ5NTItYTJkYi04YjBiMWQzMjljMTciIHdpZHRoPSIxOCIgaGVpZ2h0PSIxOCIgdmlld0JveD0iMCAwIDE4IDE4Ij4mI3hhOyAgICA8ZGVmcz4mI3hhOyAgICAgICAgPGxpbmVhckdyYWRpZW50IGlkPSJiZTkyOTAxYi1lYzMzLTRjNjUtYWRmMS05YjBlZWQwNmQ2NzciIHgxPSI5IiB5MT0iNi44OCIgeDI9IjkiIHkyPSIyMC40NSIgZ3JhZGllbnRVbml0cz0idXNlclNwYWNlT25Vc2UiPiYjeGE7ICAgICAgICAgICAgPHN0b3Agb2Zmc2V0PSIwLjIyIiBzdG9wLWNvbG9yPSIjMzJkNGY1Ii8+JiN4YTs8c3RvcCBvZmZzZXQ9IjEiIHN0b3AtY29sb3I9IiMxOThhYjMiLz4mI3hhOyAgICAgICAgPC9saW5lYXJHcmFkaWVudD4mI3hhOyAgICAgICAgPGxpbmVhckdyYWRpZW50IGlkPSJiNDZmYzI0Ni0yNWQ4LTQzOTgtODc3OS0xMDQyZThjYWNhZTciIHgxPSI4LjYxIiB5MT0iLTAuNCIgeDI9IjkuNiIgeTI9IjExLjkyIiBncmFkaWVudFVuaXRzPSJ1c2VyU3BhY2VPblVzZSI+JiN4YTsgICAgICAgICAgICAgICAgICAgIDxzdG9wIG9mZnNldD0iMC4yMiIgc3RvcC1jb2xvcj0iIzMyZDRmNSIvPiYjeGE7PHN0b3Agb2Zmc2V0PSIxIiBzdG9wLWNvbG9yPSIjMTk4YWIzIi8+JiN4YTsgPC9saW5lYXJHcmFkaWVudD4mI3hhOyAgICA8L2RlZnM+JiN4YTsgICAgPHRpdGxlPkljb24taWRlbnRpdHktMjMwPC90aXRsZT4mI3hhOyAgICA8cGF0aCBkPSJNMTUuNzIsMThhMS40NSwxLjQ1LDAsMCwwLDEuNDUtMS40NS40Ny40NywwLDAsMCwwLS4xN0MxNi41OSwxMS44MSwxNCw4LjA5LDksOC4wOVMxLjM0LDExLjI0LjgzLDE2LjM5QTEuNDYsMS40NiwwLDAsMCwyLjE0LDE4SDE1LjcyWiIgZmlsbD0idXJsKCNiZTkyOTAxYi1lYzMzLTRjNjUtYWRmMS05YjBlZWQwNmQ2NzcpIi8+JiN4YTsgICAgPHBhdGggZD0iTTksOS4xN2E0LjU5LDQuNTksMCwwLDEtMi40OC0uNzNMOSwxNC44NmwyLjQ0LTYuMzhBNC41Myw0LjUzLDAsMCwxLDksOS4xN1oiIGZpbGw9IiNmZmYiIG9wYWNpdHk9IjAuOCIvPiYjeGE7ICAgIDxjaXJjbGUgY3g9IjkuMDEiIGN5PSI0LjU4IiByPSI0LjU4IiBmaWxsPSJ1cmwoI2I0NmZjMjQ2LTI1ZDgtNDM5OC04Nzc5LTEwNDJlOGNhY2FlNykiLz4mI3hhOzwvc3ZnPg==;" parent="1" vertex="1">
          <mxGeometry x="12.999999999999943" y="19.999999999999996" width="57.9" height="57.9" as="geometry" />
        </mxCell>
        <mxCell id="2IJK8Kk_YS6RuWI4rXo5-111" style="edgeStyle=orthogonalEdgeStyle;rounded=0;orthogonalLoop=1;jettySize=auto;html=1;flowAnimation=1;" edge="1" parent="1" source="pkNkX71hZxLETCZVfeRQ-11" target="pJm1IEaVSABAI1_1Q2Wr-4">
          <mxGeometry relative="1" as="geometry" />
        </mxCell>
        <mxCell id="pkNkX71hZxLETCZVfeRQ-11" value="" style="image;sketch=0;aspect=fixed;html=1;points=[];align=center;fontSize=12;image=img/lib/mscae/Service_Bus.svg;" parent="1" vertex="1">
          <mxGeometry x="-70" y="237.5" width="45" height="45" as="geometry" />
        </mxCell>
        <mxCell id="2IJK8Kk_YS6RuWI4rXo5-75" style="edgeStyle=orthogonalEdgeStyle;rounded=0;orthogonalLoop=1;jettySize=auto;html=1;entryX=1;entryY=0.75;entryDx=0;entryDy=0;flowAnimation=1;" edge="1" parent="1" source="2IJK8Kk_YS6RuWI4rXo5-8" target="2IJK8Kk_YS6RuWI4rXo5-31">
          <mxGeometry relative="1" as="geometry">
            <Array as="points">
              <mxPoint x="335" y="181.23" />
              <mxPoint x="278" y="181.23" />
            </Array>
          </mxGeometry>
        </mxCell>
        <mxCell id="2IJK8Kk_YS6RuWI4rXo5-88" value="" style="edgeStyle=orthogonalEdgeStyle;rounded=0;orthogonalLoop=1;jettySize=auto;html=1;flowAnimation=1;" edge="1" parent="1" source="2IJK8Kk_YS6RuWI4rXo5-8" target="2IJK8Kk_YS6RuWI4rXo5-86">
          <mxGeometry relative="1" as="geometry" />
        </mxCell>
        <mxCell id="2IJK8Kk_YS6RuWI4rXo5-90" value="Usuario Autenticado" style="edgeLabel;html=1;align=center;verticalAlign=middle;resizable=0;points=[];" vertex="1" connectable="0" parent="2IJK8Kk_YS6RuWI4rXo5-88">
          <mxGeometry x="-0.3647" y="-3" relative="1" as="geometry">
            <mxPoint as="offset" />
          </mxGeometry>
        </mxCell>
        <mxCell id="2IJK8Kk_YS6RuWI4rXo5-8" value="Api gateway&lt;div&gt;&lt;br&gt;&lt;/div&gt;&lt;div&gt;&lt;br&gt;&lt;/div&gt;&lt;div&gt;&lt;br&gt;&lt;/div&gt;&lt;div&gt;&lt;br&gt;&lt;/div&gt;&lt;div&gt;&lt;br&gt;&lt;/div&gt;" style="points=[];aspect=fixed;html=1;align=center;shadow=0;dashed=0;fillColor=#FF6A00;strokeColor=none;shape=mxgraph.alibaba_cloud.apigateway;" vertex="1" parent="1">
          <mxGeometry x="313" y="35.230000000000004" width="44.2" height="42.67" as="geometry" />
        </mxCell>
        <mxCell id="2IJK8Kk_YS6RuWI4rXo5-28" value="" style="group" vertex="1" connectable="0" parent="1">
          <mxGeometry x="123" y="131.23" width="120" height="66" as="geometry" />
        </mxCell>
        <mxCell id="2IJK8Kk_YS6RuWI4rXo5-29" value="" style="rounded=0;orthogonalLoop=1;jettySize=auto;html=1;strokeColor=#999999;flowAnimation=1;" edge="1" parent="2IJK8Kk_YS6RuWI4rXo5-28">
          <mxGeometry relative="1" as="geometry">
            <mxPoint x="53.8673289119289" y="29.930232558139778" as="sourcePoint" />
            <mxPoint x="118.29545454545455" y="60.627906976744185" as="targetPoint" />
          </mxGeometry>
        </mxCell>
        <mxCell id="2IJK8Kk_YS6RuWI4rXo5-30" value="&#xa;&#xa;&#xa;&#xa;&#xa;auth-service" style="group" vertex="1" connectable="0" parent="2IJK8Kk_YS6RuWI4rXo5-28">
          <mxGeometry width="120" height="66" as="geometry" />
        </mxCell>
        <mxCell id="2IJK8Kk_YS6RuWI4rXo5-31" value="&lt;span style=&quot;color: rgba(0, 0, 0, 0); font-family: monospace; font-size: 0px; text-align: start; text-wrap-mode: nowrap;&quot;&gt;%3CmxGraphModel%3E%3Croot%3E%3CmxCell%20id%3D%220%22%2F%3E%3CmxCell%20id%3D%221%22%20parent%3D%220%22%2F%3E%3CmxCell%20id%3D%222%22%20value%3D%22%22%20style%3D%22group%22%20vertex%3D%221%22%20connectable%3D%220%22%20parent%3D%221%22%3E%3CmxGeometry%20x%3D%2265%22%20y%3D%221320%22%20width%3D%22710%22%20height%3D%2285%22%20as%3D%22geometry%22%2F%3E%3C%2FmxCell%3E%3CmxCell%20id%3D%223%22%20value%3D%22%26lt%3Bdiv%26gt%3B%26lt%3Bstrong%20style%3D%26quot%3Bcolor%3A%20rgb(204%2C%20204%2C%20204)%3B%20font-family%3A%20-apple-system%2C%20%26amp%3Bquot%3Bsystem-ui%26amp%3Bquot%3B%2C%20sans-serif%3B%20font-size%3A%2013px%3B%20text-align%3A%20left%3B%20background-color%3A%20rgb(24%2C%2024%2C%2024)%3B%26quot%3B%26gt%3BVideo-Processor-Service%26lt%3B%2Fstrong%26gt%3B%26lt%3B%2Fdiv%26gt%3B%22%20style%3D%22rounded%3D1%3BwhiteSpace%3Dwrap%3Bhtml%3D1%3BverticalAlign%3Dtop%3B%22%20vertex%3D%221%22%20parent%3D%222%22%3E%3CmxGeometry%20width%3D%22710%22%20height%3D%2280%22%20as%3D%22geometry%22%2F%3E%3C%2FmxCell%3E%3CmxCell%20id%3D%224%22%20value%3D%22%22%20style%3D%22shape%3Dimage%3BverticalLabelPosition%3Dbottom%3BverticalAlign%3Dtop%3BimageAspect%3D0%3Baspect%3Dfixed%3Bimage%3Ddata%3Aimage%2Fpng%2CiVBORw0KGgoAAAANSUhEUgAAANIAAADSCAYAAAA%2FmZ5CAAA10klEQVR42uydC3BUZZbHz%2B3wclAeIyqFDrikH9GZlbFw1kWn1N1ylh21dtZRZ2a31qp13WV2eZqQJ89GBQeEEAJxREWKUlHzfnS6052QAIsBWYZneIaSwXEdXECgu9Od1713%2F9%2Ftxq%2Fpm04I5NGP71T9695%2BJrbnl3O%2B%2F%2Fn6QiJE9EkUqpL5pCr92KUm3efwTUyxtzycUu191mLzzjNXe3Ms1d75OH%2FRUuWdZqr0%2FsBS4hv6yC7V8ESDKpEIESIQuY0SrWiWHtjhH2%2Bqcs%2B0OFrtFmf7mRRnmzfF4e8ARIrF3tKJc1%2BKq%2BOblNqOzyzVvuWWMs8PU97xDHl0lyrdXyCAEpHAMeLlasMtK3aPuy2%2F6bmxG44euC3viHvY640dw5fvkcesPahM2HxGMZZfUgBTUC0yU4qzvQP6k9nm22wq8UyZXNYydFqDaqAmAZSIRIv8UwZpYf3tSa%2FuWp20bNd5WlAvU3adTDl1KmXXqpTlUiUcR1h3qndvOataqjwq2rugNKiUlJo22WL3n4XeNld6HjWVXBxOuVckKtwrgBIR5zFjo0TWhqG0cNu9tKRhCy3d4aZFDTJuq7QAAkgcpgBQhqw69a53TnOQwoFytHamuNrPW2wtH5hKLj%2BWXHxlFBWiQl2%2BLIASEacxa4uBFtdPAUQ2QNRBi7YFIapjCoLEIaJMVKYMp5oEmCZ%2B9LUKcLoECpJRoQCWz2Ou8peay72%2FSC67chs1NUnUrKJKibZPRLzEv5YZaEm9CRC5aOn2TkCkQCotrNODlA0BIk0AiebXqLeu2KuaKt2qGfCEysLPFTMqlMXuk2FYfGuu9G41ll95fFLpxSHE4gNUKREiYjreQ0VYsn06ADqAo8IhCgMJAGnKCoEoPaCk%2BS5WlThE3Us2230KXEDA5d9nLG95yVjivlurTLNUSVjnImIrrJcCCbuo%2Fqdk%2Fe9mVCMFrZ0GkR6kqxAxXVuNmAzznepdG5s5LD1LYYIZwYDyWhwddeaKlheNlS2jARJgapDuOndOACUiyuPlQokWN4ykZTufo2W7DuKcQaTSYsDTFUg53YMkpTrUcRuOM0B6r2rW9rGWr8NvqWnba7H5f2MqvHxnyvvfJv1kr2qYclBUKBHRGMvrJGgYWrl%2FAkR%2FClSibRyicJByQkFyBZQBpQdBSguCtP6oaq7yXq%2F0QFVpFUq2ONp8Fkf7blN5S6q5xHPvjytbkmgPYMoVQImIHosbzlzdOFpan0Wv7vqSljbIACgSSGEmg%2BuaasRBcqjSKwApn4HkiSBv6LEHsbavhQHVbrG3HjZXtWSYK7x3%2F%2BDDK0PofdVgzBdAiRjMsDYwiEbDUMgk604PXDqZwRMuDpLOrdODhGpEqUGQ1nGQ%2BkjM6ZPR7nXCOj9prvAsNxZduf9HW73Dxq2Hy7dRACVioCOD2dvbRmMd9CZmRBe7h6gOEGmKUJGcwfVRCEjz7Bykvpe2hgJMHZaa9v2mcu9rySXue6gAIP1ZzKFEDFR8rkpw5u7BWuhTgMTaOA2iSNLPj2oD4tUI4usjeuUqSE0s6ftbqFCabe5FtVpvKnc%2FPHmrezhr%2BahRACWiP8KKxLIWSgBjMkyFDzVXLjgj6km8IoWCBIWClK6tj4IgVXOQ%2Bl%2BadY5ZVCfavtOA6b3kEs%2FjtI8ZEoUSbWwRw10RfRRLkVCzd6Gd2%2FEAWrkyrIt8HKLegFQL8YrExCsSIEodYJD0QMlo%2B1SLve2SxebLwzrqYWPxpe9RvkcaJXaci7hJU0GiAlcSZkNTMWj9DBDJHKI%2BAInPkDhIczlIgyBFk72VDXfPWar9m01lV35u%2FOjKqL%2FeqkrT0hpFhRLRe4ggzIh2PgaI%2FgcVqZVDdGMgAaIIZsPV1s5%2BbUWqDFWfwRL5%2FSpDgdKGu4qlpuOiucrnMFX4nzSVtoy6lVnm62sFUCKuDyJAMAKGwS%2FYvrmuK1EdUwSA%2BOMcpHDr2xlQehhIrCLlNbGkjgYpkGzRKlS731zd5jKXu6cbS1puf2yHanh4j2j5RHQHkQaS6zm4c2dgLHQACAVSb0h6kKBQkBhE0QeSHig23PXJAOprs81vMxa7fzVpy8WR0%2BDwPfa%2B2HEuIjSmN0pI%2BjswG5qJatQBcYBuGqTasO1BDKQaDlKqDqRolaztlnC2y2j5jsCUeBlbkO4cV9aedNebokKJ2LRJosW1I%2BDMZQOkC7wK6aDAue4Ihd3Wmwx6kDK6AGkOBymKpTBhsCvD4fNgC9J2U7ln%2FuQP3GOnzgBMWQKoxItC2Nu%2FKTfQIlaJtr8Gh%2B4iAFAg9ebFQYLC10h8hgT7m1ckGwcpNnR1P5%2FfVOGtTS52T7%2FzHW%2FSuE2i3Uus%2BH0Vg2g83LkCqLUvIdJXJBd37HQg2WMTJC5WobDrvP0bfMFwprnQP%2BIJq7hAS2KEddsQJLuRFm%2FfjGrkwS5tDlGfg%2BQKAUm3qyHWQeKq8nbiy4UtxjLv3Invnh9KpaLNi3dnjlWiH6GVswOiNl0l6o%2BKpK9GIduDYh8kLgZT%2B0Vjie95UgVI8RsvlbOr%2FNyDDah7AFK7rhL1V0XiIAVhCgepGmYDQFp7RIUbFtuqasFQt%2FWgcas7mexivRRf8W%2BqRAsaRqASPYUkPwyQFF0l6v%2BKxK3vDGg%2Bb%2B04SE0xDxKENVNbh7Gs5feT3nUPIxHxdSF7JPffYefBMQgA1TKp%2FSo9SNdWI4AEiOIRJNbiyZbqjpPGIvcDJCIOwsoAqv8e1kLPQ8c1gKA%2BhCXyY3x%2FXQSQuPVN8%2BKmteNVyebvNBV55pGIGI8XCg0Qu9LPi7Rk51dIehlSILXfxW3vCCA5AiClhYA0uyp%2BQIIs1a2yubK1mETE9rUVkLi306KGTMyIzmC%2F20ABpLO9u69I9m5BMvEjV9hjkWSKdLv39%2FHHuj%2FXmw4VvmYSEcMWd07DSFy0fjnmRG6sjeQBBYgrDCTNseMQMaUF1kc0l7V2VertAAlJGR%2Bq9KqmMo%2BPRMRoJcqpG422ikHkG2yIOEhOgMRnSLwixTFIkLHUo5KIGIsZeQYksBFt3GYYDJ045xANNkhZHKQgRGEg2dDaxSFIZW4BUkzFnDmYEzmTMR%2BqRBXq5KZCNIAUhIivj6AQkOZpIPGKVO6JGxlLBUixEewKP6tXM4v7QVq03Y6dCj4OUZSDlBYGEqtIuQIkEQNvb0vanCin9iGsh%2BoBkRIdEOl3fAOkSNY3JEASMVixpVSipfYkVKJncHGS3VgXtSJxFUjttVji62%2FfvLJ7AskeBlKlAEnEANvb2c5baIHracyJvkQlkjlE0SQOkx4kOwdpngBJxKBc5cc5hHKcv8SOhROoRJ3RC5GTr49CQZofAlJqdQCkOQIkEQM6aHWOxfrjFQDkhWSeuLEAUg0HKc3Oh7HzbFdBEq6diH6ORzcZKLtmFOBZArm1GREqUcyABIiY%2BAxJB1LsVqQyAVKMOHNWCQv2CdjyswIzohYdQLEDUtgaiRsNoSAhMbsVT%2BBeqe%2Fet7yn%2B7iMJQKk6IAIQjs3Dvb223Do%2FByiWAGJr404RHwYy0GqCoC0hoMUWxIgRW%2F8RxnaOccEOHOfAiI31kYxBBGUFRkkVCM9SLMESCL69t9olZCMQ5CIDwKgIkhGYircTo5gMeO85%2BdEUDY%2FRlTOdf5cbnlz6ds6DtK8qyBVAKTDAiQRfRSZ5ahEzslYEzXQgno%2Fg6jr5HayY9SKQ%2FQdSFCY9a1VJAFS91GgSpRXLpHVaaCVriQqLDRQoWqgneLf7Owysm1sPTQS7txTaONOAiQFsDCpMaiuQUoXIPUuchslWnVeonUnR1D%2B0ftp3bGfUd7xZyj36CO09vB42vilQdsndkgApcVUmAqZmwxIvJ%2BjTWoGSDKHKNZB0jt2gCgIki0A0mwBkn5o%2BE5DEsC5l9afepnyTzip4PSXtPHseXr7j9%2FSW19cwH2naN3xtyj38EO0tNFA4p%2FGIFzZ5xZs9flnAASIXLwSxTRINUw6kILDWAFST1fxBEQ%2FATw2Wn%2ByjTacUnCbSf5O608otKFZxuNf4XY6rdo%2FBtVJm5ck5FV%2BWOTUzYWpcA4JyCGKG5A4RHwYG1qRqgIgzRQgYfKONi73xHDKP%2Fa3AOUI1IZzAHSUSe1CGlwArY3ymj6hNYcstPJDA22sTByYXio20EIn262QBoi%2BQSXiAMUVSA6ABHHrm4MUcOyurUilnriRsbg3IOV%2FLtGGAyPQsv0a8Jyg%2FOMcoJ6lBCtUM7158HF6fc9wsu6TEuLaCgtc30c7txhzogtIPBlS40q8GoWAZI8AUmUApNWJCpL1SiDp8479OtiqKZR3lEnthRTAJ1P%2ByWZac2QOrTo0nLZ8JcU1RBmuW2ERr6GFDR7KrpX1i3R%2Brk%2FQsHPd8%2FX36x%2FTv6f%2BvfXP4YoEDz%2FnayMHk96x4zMkCCDNTFSQCu0SrT16B6pJJtZEbg7QjeqYDBhRyU7YaOUfkum1HUOpsTF%2BgEpNlWj2u8yZ%2B0vAU4QZUQfOZUiNQ3GQoCBIULAaQQAptCIpqEgKWjvZVOpVEgekN%2FbCVDg8DO3cQkD0bbASqX0gBTC1w9XbQ6sPTic7YK2oiA%2BYMhokJNi9lOUqp%2Bw6BpHSP0lcM4DA1ES8Xw%2BS3mgIgqTQvGqZZlWcGV9wqt5U7mtPDJA27jPAIJiAVmwlqtE5zTQABH0oBSDJsM8v0JrDv6WFNSPo9Ri3yDdskdDuPAJ724GWzoNEUyA1rsUhigQSAGKy%2B2mu3SnNKJlmLLqUZa7wtyEJlfgGyXrcgCS%2FE%2FAUIdH9SHoOUd9Ks80Bqgfnn9Dq%2FZNojirRP5bFVnWy%2Fl%2FA1s%2BumQp3rolZ2xyihAZJgWS0d21o61bRf5VOMJVcNJjK3BkmgGQESJDKxZNTfx%2BX%2FnmRZWLq%2Ff1cER4zdgvStBckWrl%2FOJJ6CtYypWjp2ng7169i6yYZ8O5Aq%2FcIvk6QxOZVsWFvF7JWbiSq0D%2FAmWsMQqQmjDIdkaxvBUc%2FpTmO05yK39KMorH07%2B8aJrpaDMYyT7oOpBhW8jUg5Qb2xsFYeBDbfKqhyM7cWn4MSHf%2F9Ym%2FH6S1egoq4NeA6T%2FpjX2j6emz0Q3TG3USvWobCoiewZ65UzjKLLkSGyQ75FBofk0nIGqgWWV%2FQ09tMGguJqnSxHLVYCwFSOUAqcSjQCrEE7OEH8Me093WP4%2Bf6%2B%2FX%2Fwy9unttpN%2BFg8Qn72ubfkgbTn9Ga1GFkNiQOsACuJpFfgnnebTywBh6L0o3v87YaMDsZCiS6XlUojNYEzGIlMQFya65dQBJocy6VrR0n6ISmcl6SNK%2BMoKIBFKsK7kopCIBoJ%2FR%2BtPHKI9DNHhi24w0i3wvrTr4EOWdGEovqFKUXSprDOW45mDbjxsQdXadZNeTiP2R3AP0ukyIVyOF0lGFMlzH0dLNpaffSsLeQm4exT1IFaqEKjCFCr7Yh8SVOUSDLgZSB363P2oDXBbWPYPv6hUUSKhEY5BEVgB0UZsRIaESUtxkQCWuk%2FG57IJL9ySlOYfT7A0SIRIHpLXHxuOv%2F8dIWB%2BHKJp0jK2bfDhfTMs%2FH4sB7uDB9KQqUabzDsyI3oI8SKSEhghSAp%2BB6wI%2Bl48ptWISWruhxCOhQHpeW5Ngx0HUQcSl4Hf0U%2B5RF60%2B9FfamukjaCAvUJKWyyrRBOxUyA9O9JWEh4itC7Nrv6b51emA6A6am69dyOX6QXIHQXJHCRTu8Nu9AGl98%2FuwuTujFiIumTmJ%2BH3PYoD7K%2FrdH4aRdQAGuKlIjH8pMSBhjIDoYyTPpa4hcvScfD0%2F%2Fybfw9GnPyvy67TdGj7s3NiNtu7vKc12K1ntHKDrAsmngQSpfSgOwMAJIF1RCcnZDA1OS5d7I89F5cw%2F5aY1TW%2FA1RtHdu7q9YupkF%2BRBEfqPoBkgwCQg0mNU3GAIimrhlUhH84%2FAkBGWrUKnz%2BvQoMNEjQ4ICFB2yEkahOkHbn4%2FREfg3TPifB%2BkZ7fg%2FTvFbDnj3uxtiui5bv%2FAmBJfTzA5V9gzHKYkDg7oVYOUUJKYcK87DJa3KWUXn03zcUIYMYMiRC9AqkEIJUFQSoOJmQxF09S3X265%2FFz%2FVH%2FeKTbkV%2FDjxFez0Fq6oDU2FNg5gSYztPv9j9LaxqH077%2FlfoMomXVtyBxnoKpsJ%2BtBRIbohrWyrXieAAA%2FfS7r4nwuDGQigMgxbiCIK1Fa4e%2F8LEIE6SwVg9GyTn8d7xOGRUjYZXf3LrpxTcDlSjd%2FiyS5wsIs5GbgCijP143oO%2BpYFbWjs%2FhE0q3TaWCaunqTE%2BAFArSulOf4q%2B6jKSMVZggNnPSXL0qrJvuoxUeiU7cwP%2FsJ%2FCadOdoLKZfwIDxK7QwMtZHCqBiSZhoUvA5dAKgP%2BNzWIbPYDyG0EkUDAHS%2F7N3JsBRXGce%2F7pBRmBjYjtxCnYra2HH64TCTpw9yrvZbJx4Hdfm2I0T1k628DocAoRmdCEbHGxG94nwEmKismPXOlwaJI1mdAtsYiCEQ%2Bi%2BsMxuUsZkbUwwQjHo6O79v56W32havaPROTPdr%2Bpfr%2Bfo0UB9v%2Fm%2B9%2F9ez4yIl3ZPYOfAVQQhg0kJX7WrpR4yVBtu%2F4C%2B%2FrRABUG4emzB%2FNOGaPRENiJwLiBwZErRIPKTGSBCSSvDlTsLa3sFPeu%2BiR71fjBZIBmBlN96KwKvWivvmJQwlsyyE7Y6XabCtmTKbryN6gBTcYDvh9jSJ1Ci52aAk4qM9B4DCAGkYFZlKpjQYEUWuoZsVIYPlS%2FjOIp2eq1tC6T%2FD6Rv1Ymwkr9Mu873ACYJxzKkjFtFk3o8%2BL9RNK7nSyhZh6iwow579ZayJiEAGTsYVlWIlOBZjJ3K2bSpoY%2BSqmRIoWQG0ohMARJKObXB%2BiH%2Bven4P7jTd0OzBVIgkLQBiL5JO3vfoSIVJiUChOzEvirsncOU3%2FT3lHV8DsWdFke7c9tFSqqYRwlVhdgf1q9ezZlYqWBWvDBBKaYAiq2HWCmHdWH9arLVRFNirUjasEAaL0jqFzdWCiiLluOT%2FARmBGKnHBFA7egaphfPfYwSNp1dlgF4hE96RHHuZWSvclJizQDZ3DIyk0IJDCQIIDGNLzuFA1A1BgDVychC%2FVgXVlJS9f2fbInCsEAaJ0hO34xUXCzQNgTY9q4HYSWfgBhIcoRkJmZCXIep8l%2FYWnSXCtJ69xKA9CbZqgYp3i0DJEWVXYMJQmaCRoCqBlBMBmun1LCTzEBCj6wP2SgPWXkxPXuIryenG6RygHSwT4aUT1TKZgPxxyeu0vG%2BRjDP4yDx8dC7Au12iVTYfjcyUjmCbwiBGDGlHkAawL%2BrjZ576ylaV14DkIZoQ4VMcRUKbYTix4IJ0sEU9kCxBusQslEnYHqakioXIAuJNO0DIP0MIB3UgRTG4iDpx%2B4WkfI776Ci7gMIvsGIggmZFmXeMG15S6L1LpnWlyu0waVKA4rDBPnBZAAUtMlPAcEKArxNUw1RA1MtpXgeotSquSPbqyyQpg4kPjyKCNfr0yiLirFuuoFPcg5TJAC1HevA54%2Bp8PjDxLPTKJj0QCXz9ZNOHKaQEbLPENZCf8TxLrzvv6BVTnHEzbRAmh6Q%2BNfu7mqdB5i20X%2F2Xh0FUyFXKMJi%2FL783ndWI2BBkK1jMEEqTC4GE8RgGgOoJFUcJkOgQgYmGQAxV66HkittlOhe5PurIBZI0wcSH69eFqmg61Y4Xy8ApmsIQBlSIkq5zQi2wwrFliE7%2BcKky04QWzt5eIbi2UlTyMEkwUxgILVh29M%2F0tbyuSMNVgukmQGJj3%2BvEdW5sPMpwHQFc4TB1O6dn%2F8NQHJp2ckF6WDisnOYQjQ7yQBHhhP3AeZf4H0uJkeBMJKJLJBmFiQ%2BGhSBChvnw4BYSTvOvcf6TBPLTu1BPx%2BaAZCgAijjNDJOjUF2co929iCenZg0kAyBmtFSToIuQhvx3m7zvezBAml2QOLjZK%2Bg7qwu6voqQLqAWUYAMikRpbwWQFCn0NpSb3YCUDAhoNEwQRwmbkjMcqmnbvXpRzl3klKqvkYbPNG0mW%2FzCQmQnNc23TMCktM%2FKMcRvE4%2BGwf3ZMAI8vklACnoYdsjUEGLiPLuO2jedgCm4YiEKb9VoZ8eVdBnAkw8O0FaqVfhAxPkA5OxXW4EVLWB%2BOOBxbJQDctC11HOvYy%2FtUzNQj%2FO4RCFCEh3M5DKPh5AwMqQEu5aGiRIekcvv%2B0egHQKGhwFU0EEAcVKvfhKVupp2cnlU%2B5BvkAl6Eq9cZoRwUp3HiCqHUCD9QLuT8HfWaxu89H6QxZIoQ2SAInYv7aYdvTUY%2B00AIBkSJlWFU7m3Amen90EABr4uonDxPtOhqVe1dhApfhuitVmvTg0xo%2BPmApHKKXyUUr1RKlXsWrDAim0QeIwvfTuHGSm%2B5CVXABK5jBFmHKxbtr8a5aVtFJPhUqDyafcM1438f4TAOLiQE1AEtZDQyjrXJRc8yXv9%2B%2FVqRBZIIUPSHy8xhy9zgXISrvh6F3nMEWgMhsBDSCJLQVIuiaubs8eh0nXzJ0MULJmKryL19pICeUL6VdlImnDAik8QeKXYhS03U5FPemapRy5MGUBpuR6zdUr40CNgmmMci9RVSCgAkMEaxsgtSIT%2FRs9ViuS3dvns0AKb5D42Pt7ZKZz0QCpCBlKwixFLEx5rSj1jnhBiuVAGWcnDtQYMEEBYZIBDrsA7ypmJ7b6PEg2XJSoDQukyACJj6IOAdbx7ZTfngh7%2FEMGU0SXettOeF09np30RkS8Kg6UHibj7MRLOQl6n1Lrt5HNtZDWV4rclQtjkEqmOLBLmAzvhwKca3S7xPi%2BpQcA0rQMxwWRsn8XhUD7IUq9i8hOw4aBmM9kcD%2BfjZWvv82lf53A54%2FvtfltzdVLqOEwaU1cP5tcD5OqQGsntZS7AYDOwlD4ISXVLiRHMf%2By%2BnAEqQQglQKkEg2ksNb0gcTXTPndcym%2FYwUVvf0OFQAmBF3EKq9NwTVOqkUO6ddOepggj4EhwSGCJEBUQonu5SghR2UhC6TIB4nb45ktUchID1PRufOYGUxy5AIFmLYe9%2FaZYnl24kBB8byJa7RnT4MJpVzDnzDvxGOfUTebrnxdhcgCyTwg8eFEZtoJ5bXH0I7eN5CZ5MiGCcpuBgy1aqnHsxNklJ2YOEyy%2Bm1GKXUtyFo%2Folg0WFNdImnDAsmcIPEyjym%2FbSlt7zlmCphy0MB95k2A5OvqGZR7HCaJkmsHUerVA6K%2FVrPQ6lcEwrBAskDiI9sJmDqWUWG3R4NJivB1E7%2FGae1BwGS4dpLJ5pEpoeoiICrA%2FUsoyX0TPfCACpEFkgWSfmyoFwDREgTaHqyZhgBWZK%2BZ2Jx%2BxuvqrXHy7MRLPUBUKaHfdB5W%2BWpaty%2BaHNyRs0CyQDIeOYqIvWuLEGSvsM2umCUWdIbKY%2FN0q30aX09r4CbVezMTYNI2wMoU575OG91v0PrSvyV7%2BQL6%2FEkVIgukMAJp%2F2yAxB09BtNC9GMy4Oj1AxYJUkJLHOQpUS67xumY18lbWyaj5LuCXtNuij14F8VV8cseIh2kAwDpIEA60CdDyqRVwubZEgdpdmEq6LgNa6YtMCH6KLdNZgEX8Uo7LZO99gNadWAN%2FWT%2FIlre9kmD1QJpIjI7SI%2FvFGm183aKdSVT6puX8YltCpAgGR8el%2FDBsY62nVxAu05ZIFkgTSIbxWPP2DpXFm1wX8W6AQ3Iw2oPxhQwwWRBNr5C%2BZ27KKtpsVXaWSBNbMdDnOtzWB%2FswGL7Q6wZJICkulpwt9QejHkyUxfUfZoymu5XP1z%2B9YpggWSBFHg8WSGid7IEVm8xdkcPwQKWYAVrTtZBwAQxmDIazQSThAzVQdmta%2BHuzSdHh2CBZIE09mBd%2BkONAtkr%2FwrNxwr0Ta6pPZQN2l40BtM6Daa1yEzxHoUyzxq4X4Fv8zl48fNm8HXy21lmuo7n%2FIzSTy0hx1GR%2FTqIBZIFEh%2BOi4IKUkLFMkqsPg6QZNbNV7v6cZoYTOv8YIpzM4eLBaBZJFFhzzDmBqwV%2F4aOHxfo5XbBAskCiVQ3yo4mY2LFF2lTfR0lACJbBUDSLnrTYBozM62BNuA5204hyNrNAhOcS3YhZE8rMvK%2F0LYjcyn1uBhxIDlDFKT9oQjSs7kwFZxzKan6YagHu5olso38Ot7IlaOuUTBBHKa1DCZNz58wB0gcJom2n7uBddNrMCI%2BQz9WBPolFAkg7feChKCVISXctXQfQJpWZ25TyU2U6H6cUup6VYjsHhlSL2obBdPGEZjKDWByesu%2BLUdNBBMEmCBW7jkp48xyymmOiAv7liIj3e0H0lIudls%2F82Mu48f0t7n09xmfw49nBSS26TKleiElVT1FyTUXMA9RogaRKrcBTOWAiakMMEHaF4toMEE43vyWqWCCUObB1Svo7qXMpu9RbtM8KtwtRAJICE4ZUsJdMdMC0neKAZHrFkqsTEY5dwkQSYBIUZXAFSgzQRpMpSMwcaBS32CN2%2BkJ3JxZhCbHGCbY48hOHX2U1%2BUgx5k7ydEtWiBFKkgVFXDmXIsATx70PmDSIOLSgQQBJP81E4dpvQFMKYcAUwsLvuCVO77n8DlElNsuwYS4gbmKMprvpdcUkd57T7BAiiSQHC8KlOReQptq0wERg0aGFL3cAEmT3U86mHzXS5AvTKtL8Bq1CsqdAAHYOsHAbWWafXj07wXN2y4JMPVSVusTFLtDpJ01ogVSJID09BFA5Fmg%2FshvSs0VQ4g4TGMDZQsEU6nfmgmyAdqsZhZoZpIMkGSYEB9SZrONMk4vIKdHtEAKV5CcMBVynXMBx30AyEUptbIOoqBg4iUepIGkSQ8T5GSZiTduEWQmE8tOw8hSh9Bzupe%2B%2FVJYfIn%2B0v0WSKPtbZQUKOc%2BD4jq4c4NBIDIqMzTZv%2F1kssnKxlnJlWrfXdBmA4mrYHb3UiZjY9S2m%2BjqF4RQh6kEoC0r0%2BGlElJtZ9nVzF7AdKEIUqtjgIAD2E9dAQQDcFYCAIibjzoyzsDmPRrJg0onzVTbLm3cZtjQphy2dqp839R6iVQVst8WlkumAAkKFxBwk8pAiQRwf8IIGqHxT0MIGRImYi42WAMk9ZjgrgtDpj024lUmHDf1t%2BYECYIMCE7XUe59wqlN8Z4f%2FqyTQg9kPr8QLqqih8Hqz6m8T6uO4aCPg%2BaBEjLPoC9XR2NXQr%2FjAx0DpJ0EE01TPF%2B5gPEYSqFfA0Ircxj83PHvMGVzYXbuvt0j%2FPn6GauwK%2Bp%2F9t81t%2Bnk%2BFz%2BW3D%2B9Fz6pYop%2F08pTU%2BRMknBHbpSmiBdBUg%2FQkgXZUhJcwVJEgNDWi0ls1HGbcSIPVSQqWsg2iqgbIZOnl89wO%2Flom7eas1pb7JgsuMkgGSBP2BstvjadORKJadQguk%2FggC6aNxgvTkfpFNyEDY8lP7B0A0ToDck4PJuGELqVmJl3f88gsNphKvnvm1gjUDk%2BmAAkjITj0fod9UTI6zi%2BlUr3o5iwXSbID0%2BuusR7SYkqu3wd7uBxwypBiIAzQp%2BYNkCBPf%2FQBxmEaAAkirDrDGLQfJfMK6qVOGRd5OWW0P03Mn59DOt0ULpJkEyeEWKb4umpIqs1DSXQUkEgvyGZG9YrRsvtI3bPXWuHMEJr4LIqPJpDBpDdy87rcpo2UtZbTdQi%2B9JFggzQRIscXMmfscnLkiQPS%2BDqJZg8mlioOkSoOpTA%2FTGp%2FMFF%2BlwB72BhZkvlIPrl5uxyBlt71OmS3Y%2BNrAL8uYSZD2AaQDAGkvBwnHkPExvy%2FAY1wBz%2BXPM575ucaPxewxAon9rGKi%2B7Po9XgA0iCCmkMUAjABIk3%2Bu8V9y7wyXuZxmNgXM0pws4axfpg6mLKYQgCUrBEFyk6dyE5dbkpv%2Fjt64UwUg2lGQdrLQYKUcJcepK9gJ%2FF6TzSyz4NYm7hhLgziWJ4cCFOyXtKVdzpLnPeYdJlJA0pGw3aAVpWcQJn3FALqKOV0DCPoJEgXhAb3hYkCv1%2FAJMHRu4Rd5P9B6U03k%2BOwaIE0FSAVFQm07YgAR%2B4rsLcPAyIZAcykhIg4RIb9Jf%2BGrermychOEoD6I5q1r9HKPXfRCqeI8uYOZKU3EFCDHCZTSVaV143L2TsKyHF6CeU3ixZIkwFpxBJNcC%2BnpJrfIgvpIApJmHhmgvQwQTKOh2mDqx9ZaTOt2v8pSnEI9H04kc8dnYPm5TLAVEW5XUNaYCmmU3YbK%2FX6cVwDi%2FyLdEIR2GZkC6RgQVrhVHsLMBQeQ4%2BoV4XIxiEKO5h4mQeIXDLFVx6i9c5HcN9c%2BsZhQfe1yY6mmxBMuZTX04%2FZlDBBMso8ANWNUq8ljrY0zqMXFdECKRiQ1igC4PkStt%2B3oKyTeMCGC0j6NROOJbJ5BmhjRRlKvBj1w2ILIBpr%2FPKSCDv4VnwqA6bua%2Bg3yZBiQgEmtlev6yOsmzJgRNxJDd6fLLVAGg9INvefYU3kRIBen3g5V6Fq4ufqbwfWmDDJqhKq38G8leJK%2F5y%2BVSdSoJGtCLCDb8an8jMA6mMTwwS1sq1FUEcD3M17yHFqDhUfEiyQAoGU4P4RjIU%2BBKYMKWEnDhQAqhwiu6eF4t3fU7PQMw1iUL%2B%2BnnM6Gn2WjQiiy2q5A6AAmBJYPBB1twOcwxX4PH7%2F5KV%2FLb%2FslNshwYQ4h8z0BGWdupl2nhSmDKQ9AGm%2FD0h7Zkh7mXS3A5wT%2BLyYXwEkrI1eBUhSuEIEyUzIqmznxQFkovtpjWseTWR8vVmgzb8XEEiPYTvNFcAksQAzrbJaGUx9lNmeRmnNC1Eei1MJEmYZUsJYHCQE339DcthChA8BiG2kTad456cpBaXcZMb3twjkeFdEID2OUu93EINJNjFQMlzNQcps88DVW0Y%2FR%2BZeoQgWSP4g2dxDrDQKQ2mXcQAim%2Fu7WBfdQn95aWpqebbALjw3H9uJHgFIvRZMqqs3CJ2jtLP%2FQGw4jomTAWnpOEGK8Zu5Jn9ezNSCVBFuIGn2vKefEqtL4Mx9gew1U%2F9rd3g9SESv6bMwII5h3TTAYTJzdsJlGektebT1zCKyu0SKbRSCBSlGAwmzDClhLwYSAvI8c%2BvCBiS7WwJAV3GcAVNhMTn2Tcfvr3KYXr44B9tt7qOcTg9gkk0Pk3fd9DH6TWXkaLyX8lkDFzIxSHcxkBCUeymhSkJghjpMMsQgakVGWkk21%2B0zctVn0gmBfW8fAucOrBXcAMqCCf9%2BmDEy5XSdRUP7a5R2Oop%2B8qpobpBsriexzuhDcEqhDBEAGkD2rMPxV9UtLCuxzWcmh%2BPnrNe0BMGzi%2B0GMIQpwyQwZTCY2Nqx%2FQKlNaUCqFvpxf%2Fh24tMB5LdtRDlUiWCVA7NrORmEF0me9ULOL6bUiqjaMUKgWZj7FWQmVqjAdLLcLEYSBIDx5RK9wrHgKkNc3sFPX%2F6Tso5JJoTpG9kigjYB7DPrhMwTWOJ52LS3RfAlWMN1k6Kd9m9WWGnSLM97CdFBM9tUBo%2BkW%2FA0ZLMChJXs0yZaOCmtZygF87%2Bk%2Bp67oKMQPq%2F9s49OKryDOPvOQmEq0BBBZTds9rWccY%2FdLzU1o62Y2t1tLV1dFrrjB0RsYBSIhASctlNCIhQKyAgl%2BwmGxS8tBCMpUVl6FiQXDbJ5oJCQVBQUTEku5sbSc7ZPt%2FJZr4kh2UNJGT37PfMPHPOnmyMf3w%2F3st3OVsA0lazgRQSBu1d%2BJcfMDGQdgSH2CoAYnNEJYDoJ%2FR00Ui6ZpFEQy%2FehMitHAOInqVlB%2F24dsY5SEHKBkw57B%2BVuhOAaQalVSZS7j75fCDhqsHBWLdS2HMbBYxBy16WvD%2B0AFSDg%2Bf0s8ZnA%2FFdmK31YxCdQER6CV25cTR9H%2B%2FKRZNmemTK9CRgUD2MlvBxBlOcg9RtRKePOyiz8g1KK7tO322NfW7mB4mf0aAPWAz8mzCY97LUisN0SazPD2Fi9Qv87Rk0d%2Fs4uh%2FLdaJZK70SvfjxMKR4D2ALwqeoFdS4B8kB26tUsns7yV7zH0otu50eL5BZhzUeQOJa%2FLaMBoQVA3sHIkMHrupgQxSaZG2H34V%2FAZAv463tKBebQymEl3h%2FhshUx1YB4F6LN5A4RHBWZRARSaNMAJVV9zktKktGdEIqXClf%2FUpLPIDEN7xhcE%2FCoHbT3OJWpHqDBVNo28M7rP2eR7OLpuhnVafE2Nu7UVzDDKYbaGldWTdM%2BgBbAueE8RJmL2z4XkTz%2F%2FZF%2Bfx%2Fe4nReG6MQhwiDlKGbo0yAFN61VlKq3qR5pdfdeXLjQykhWYHiWt2fgIG%2BDgM9LU0b9dgwMSikMpWVuDvPIkNeVcxgPWzqmNRbBPcMji76iakevsAEwOJOWhSRwYpvaLLaR6V0rwapXpLpOT9NyruhtR4AIkr9T0ZxWISolMamhBnBhAmDQC1wAfome2%2F1IvRx7dLZAY5vmIwWTDQdqJm6uAwmR0kQ2oHmADRYh2kIC3yACREp5SKb65Yc3Kv7bWmdj4YzQ4SxE7cQQNiNKJGKiJTgOZcbAOiiEWhILwV5yrYaP4%2FE2nBbonMpDllCZjtVzB5%2BxZSPQaTamKIYEDjCNkO6yBV9AYphblcowUebcLK470jUSFs%2BMyvYX7GvSXS9%2FoBRmE%2FflbYD5B6njIEoB5FzVQPGHhHr39RSMXvHwaMyfAYmvWOmQAy1pkZ5WNRT7yEZUWtqIXMCpMRJEDEQfKEIlJ5kBbCC8qCE1Z%2Bwgahaay4G%2Fv5Wpc5O0cAhkdQ25zQYZqznTl4fu9g1pcfAaJawHgHzStKMkBkUpgw4L6Hw1WW0vMf%2B3Gvmhoke8hZIYjSQxClhkBKESB16UePSawGAES3wsdwUo8aASYtdKLPady%2FjvubKaVI5vVQHCivQabMmgSkeU8hzWtgNZM5UztjWsdBKg%2BBVNYF0op4B6nHhjc0Ce5EhCkGJG2IUN3RSe22HrHwHP4cESkV3x%2BPLdwSxaOe%2BEAipty6Z2gp3vOa7dUwAJmDJjBP67LOAdLiXiCJiGTQo1uR6v1jLICZDu8BVKdo3r%2Fq0ZCox%2BqEr%2FGsDhCtxpv17kBTYTRf5hOnOhiUaKq%2BevwhpHqnKSfGYXJw82jUA6T0cBGpVIB0ziYE2xc0680RgOV6nGx6D7Z%2BP4AIdDv9ecdkmrErgRxFElVXSyREdDNASjkkY%2FDdCZCO6Is8AZNpQVrcJyItBEjzS0Vqd06xSDNvlUSZS2Tcd3nRuwm0tlSi2XsFQMZtGEiNy5MwGB8ASEewj4fDZOaIlCJAEhoMpeyTMWlpBUwlqJvaYxkm3rELA9IiAZLQYImdvpN1IBED8oeISm%2FrG%2BNyYgumyKmdsfWtg%2FQCQHL7TGIBUrSsHmc101hEpWJYYzDFamrHlwbFGUgFAqTo2IaxBnZUWQDSRkSnVtxrcPCCnc3cv5%2Fx5%2F2wvdvhQeKrGgRIQpdCy5czmEZSds1S1E3NHKYotZ2bQyRAEoqWfU25FUmUU2On7Go%2FJm7VGIDJCFK6ASSe2j0nQBK6FMqvkpDeTcBAfRZANQOmzp61iPEa%2Fpnh9wzPjFc4wu%2Fz5UARI1Ja34jEQVLcPnNYgMQVnQerVCZi4N4HqD5D7dLJAYkS27l5x67CuH0i1QjSeAGS0CU98iuzZDgG7c8B0wm2CiJ6QapgEHGQutbYcZBSBEhCQ6mNX0i0rk7GYL2Pcg8e7krzKrWoBIlHo%2FAgzRcgCQ2V2FnaM9%2BWMXhvA0z7AJOmw4QBHAXmKR2zcfsEzBsNvUAq8JnEAqTY0awaiTYGJQBkA0x7ABMbxNrQA2SsjThIzN0glXW3vgFSiflAyhcgxZZS9Ynba8nh3QmrGNBqNIFkTO30Vd9GkJYfFSAJDbFmumXUJNei7fwG5po4TNEE0mIBklCMnAWBQTsaAziLcmpbGEzRk9p5QqldGJCSBUhC0QaTwzOKcrxLaUmdHxFqiGAKXyPxDX1mBsnPrk0kFOMw5XqT0HyYQ7kfNbDIFBUgLTZs6AvNIZkPJNuWJk1xB2pJKMa1Bu3xFXC290%2BUc%2FBzsns1vaOHAX7p3B2JjNsnwoPUaArbXm1Rba%2B2biMhE2g%2BJm4hNB9%2BTzl1pyirCiANMkyZPc1B4icHRYhI%2BY0D74IwnwfLBT4NqV2r4m6aTUImUbDrNf2A6B5EpU9hDtMlBIlHpL6HnhhAinkDJNW2pa3G5vLdQkIm0nQGkmcE2QFTVuUxclSrgwdTBJDSTA%2BSZits7kBEWqvk%2BceQkAn15E6ZHOWTEZU%2BpOzaTgbTkEWklD4gzQNIz8c8SKzBoNncTV6r0%2FcD2hoUp2WZUPyNGPaKGxCVdgGmjoGBqSIMTOGaDSYFqcDfiQZDvVLQ9DAJxUl73O65nBze1zFxexYgaHDwImxYpBqyYXu58dATONkEILkDqItavwRMaRZXwwR6U0Sj%2BNjT9MpJBtNYyq5ZT44aPwa9BgcHxBk97TGsseu9xTzmQVIVt1%2Bzvdr2tZIfWGDd1DqCHFUyCcWRniiSMdhHI81bhrqpBemYNuAgpfcBSW80lHWf983SulgDibe43T4VAPkVV%2BP7tsKW%2ByxO3zhyi0gUn3I6JcrwjqAs7yKyVw8ATMZoxOeQwoFUApAOAKQj0d9MyPexZgJrKjTbXmv7QMlvSLNt8k%2BgmQDIISCKb%2F3KJ1Fa6ThANBPzTaiZKtWBS%2Bv6pnYRQHI1nt%2F57DokVm0FAQ11UAdAqlIKAk%2FhmW2Ku3k4rQRAyQIioe66yXFcBgy%2Fw3zT14hQnbjXBg2khWFBiiYjAvlZBFKRun0FF9mcjX%2BYUhgYQev2SlQYFLWQUJjz8zJKRwCIB1E3HUXdpDKYLhok4z4kI0h%2FAUjLogokNBGakcK1NNncLbsRCX%2Bj5Pkmjn6xPYFKghKt3CIikFCkyPRhIkC4Cd28WsDUecFRKb0PSKl9QJofhSAhAsHtrJWN6%2BvW%2FMD91ryGKyc5P0sgxzYRgYT6CdOqUzJguJWyD%2B5FmqfiXoODkR1mWRAcxSBpzDY9AjXXIwoV4vM9Flf9MPx%2FSbRgv4g%2BQhcoe51ET%2BySAIWFHHV7KKta4zBFAijM%2Brreq745SPOGDCTWhVNRA50FRIhAgZcVl%2F8uLO%2B5Up9QPQI7xEvxhAaiZoJQ60whR21h6Nhh7buCxJsMxmjEd8YOSURi6VvQVqCvRjiKz68om7%2B9S29hQ2JVgtDg6D22erxyEmVWvQEzkNSIIHGIQr54kKzfARJr5AjE4GEg%2BRGBXHj246vdDaNwTqBMPxUACQ225m2TAcN4wLIMaV47ZVSqkaMR8%2FlB4u3vEoB0NGh1Nhrt4vcGu%2FiV2%2FAdTcEcEBoHZ5UtZ0vQPMi1bjh9HTn3SQwgWAAkdKlPKfKMR2culew1AaR6av9BgiOANIDWrC6%2FqhS2qYDokLUgYMez70%2FacHoYPY%2Fos9EjABIaIs0qk1HvJAGiuejo%2BVhk4hCFASmVOQxIyd3NhoEEyYfoA4DcLY1wpdXpz5rmbLje4kQK56iQaYVI4YSiQcs9Mjm8w1AvTUd376QOE17X0tse49YJ5oUcJL5gdcAiEos8GuBpUwpb9wOouZbNDdYbi9tkfRJ1rQBIKNo0u6stDGgeIsdHxxGFGEwah6gnSIbtEzwihWCS9NXfn1wYQC6fBrcDnkY0EEqVgubHFKfvGvwsiZyV8s0eAZBQNMvREIKp%2FBbKrD4CmDTAwxzEM0Ck25DWhZYH9aqRZMA0ceWn%2Fat%2FYCW%2FScOOVB%2Fg%2Bbc178zTSn79FHruw66XCxwSAAnFioqLu1Km9Mp7KdN7GFcdJiNIZcyhrl1pD5BKdCdgg9%2BUl0%2F1I4Xza9aCJoAU%2BACf%2F2jZdHqyPv9TA88tEQAJxahmvicDIiui0h5Kr%2BrsBVMqc2%2BQOEwAKflAcGRmbdCy%2BUyEDpwP9nco7tavrM6Gt9DG%2Fq3F1TiSVgEel1iJLWQWJdfJqJGuAVDvUIa3AyCpRpD4XiRmCVFJRr00efWXXcDkcXhwz6zhXkXqhk5cUwDOt26qf3Da%2BlNjaTcAQv0jViIImU%2BZ%2FgQAZEFk%2BjvqpnZApPZuNvRO7xJSPHib%2BbGgZdOZEDg9AfIzo4lw9oQ1z%2F8WILobXbiJEzZ%2Bk0gzAM8jAiAhM2vN%2F2S0vCfKGdV%2FlTNr%2FLjXAI%2FaEyAJTkr3Bq9Y%2FQWgaegDkA%2B1TwvcdFJxBjYomxvvner0j9JrMZeARyjeDlaZ%2B195%2FIpjv77shWOHRy072jY8q0YdnlWrjsk9pF3%2BtxPa1PWntW5wYBVmKVxAyW8%2BanUFViubvr3RsuHMhDG5gUQxiSoUv5q1XqK735eu3eafiqgzy%2BJq2m11tx1DpGlSXIFOa55Pg1VA06oUtJ5U3G37AdZyJa%2FhlqvXHU%2BkfYBnnQBISIjoESwILT4sWV%2F6SFbcgUnovN0GWB4CQMmYNE1TnI0L4cfx7E7UP9OmbTg1jFYdkM2yDu7%2F%2B4keC136S3IAAAAASUVORK5CYII%3D%22%20vertex%3D%221%22%20parent%3D%222%22%3E%3CmxGeometry%20x%3D%22644.9978324468085%22%20y%3D%2227.152558139534886%22%20width%3D%2230.697674418604652%22%20height%3D%2230.697674418604652%22%20as%3D%22geometry%22%2F%3E%3C%2FmxCell%3E%3CmxCell%20id%3D%225%22%20value%3D%22%22%20style%3D%22shape%3Dimage%3BverticalLabelPosition%3Dbottom%3BverticalAlign%3Dtop%3BimageAspect%3D0%3Baspect%3Dfixed%3Bimage%3Ddata%3Aimage%2Fsvg%2Bxml%2CPHN2ZyB4bWxucz0iaHR0cDovL3d3dy53My5vcmcvMjAwMC9zdmciIHdpZHRoPSIyNDkwLjgwMSIgaGVpZ2h0PSIxNDE0LjI1OCIgdmlld0JveD0iMCAwIDI1NS4wNTggMTQ0Ljc5MyI%2BJiN4YTsgICAgPGcgZmlsbD0ibm9uZSIgZmlsbC1ydWxlPSJldmVub2RkIj4mI3hhOyAgICAgICAgPHBhdGggZD0iTTE0Ny40ODggNDUuNzEyaDIyLjg2NnYyMy4zNzVoMTEuNTYxYzUuMzQgMCAxMC44MzEtLjk1MSAxNS44ODctMi42NjQgMi40ODUtLjg0MyA1LjI3My0yLjAxNSA3LjcyNC0zLjQ5LTMuMjI4LTQuMjE0LTQuODc2LTkuNTM1LTUuMzYtMTQuNzgtLjY2LTcuMTM1Ljc4LTE2LjQyMSA1LjYwOC0yMi4wMDVsMi40MDQtMi43OCAyLjg2NCAyLjMwM2M3LjIxMSA1Ljc5MyAxMy4yNzYgMTMuODg5IDE0LjM0NSAyMy4xMTggOC42ODMtMi41NTQgMTguODc4LTEuOTUgMjYuNTMxIDIuNDY3bDMuMTQgMS44MTItMS42NTIgMy4yMjZDMjQ2LjkzMyA2OC45MjYgMjMzLjQgNzIuODQgMjIwLjE3IDcyLjE0N2MtMTkuNzk3IDQ5LjMwOS02Mi44OTggNzIuNjUzLTExNS4xNTcgNzIuNjUzLTI3IDAtNTEuNzctMTAuMDkzLTY1Ljg3Ni0zNC4wNDdsLS4yMzEtLjM5LTIuMDU1LTQuMTgyYy00Ljc2OC0xMC41NDQtNi4zNTItMjIuMDk1LTUuMjc4LTMzLjYzN2wuMzIzLTMuNDU3SDUxLjQ1VjQ1LjcxMmgyMi44NjVWMjIuODQ2aDQ1LjczM1YtLjAyaDI3LjQ0djQ1LjczMiIgZmlsbD0iIzM2NDU0OCIvPiYjeGE7ICAgICAgICA8cGF0aCBkPSJNMjIxLjU3IDU0LjM2YzEuNTMzLTExLjkxNi03LjM4NC0yMS4yNzUtMTIuOTE0LTI1LjcxOS02LjM3MyA3LjM2OC03LjM2MyAyNi42NzggMi42MzUgMzQuODA4LTUuNTggNC45NTYtMTcuMzM3IDkuNDQ4LTI5LjM3NiA5LjQ0OEgzNS4zN2MtMS4xNyAxMi41NjcgMS4wMzYgMjQuMTQgNi4wNzUgMzQuMDQ1bDEuNjY3IDMuMDVhNTYuNTM2IDU2LjUzNiAwIDAwMy40NTUgNS4xODRjNi4wMjUuMzg3IDExLjU4LjUyIDE2LjY2Mi40MDhoLjAwMmM5Ljk4Ny0uMjIgMTguMTM2LTEuNCAyNC4zMTItMy41NGExLjc2MSAxLjc2MSAwIDAxMS4xNTMgMy4zMjZjLS44MjIuMjg2LTEuNjc4LjU1Mi0yLjU2Mi44MDVoLS4wMDNjLTQuODYzIDEuMzg5LTEwLjA3OCAyLjMyMy0xNi44MDYgMi43MzguNC4wMDctLjQxNi4wNi0uNDE4LjA2LS4yMjkuMDE1LS41MTcuMDQ4LS43NDcuMDYtMi42NDguMTQ5LTUuNTA2LjE4LTguNDI4LjE4LTMuMTk2IDAtNi4zNDMtLjA2LTkuODYyLS4yNGwtLjA5LjA2YzEyLjIxIDEzLjcyNCAzMS4zMDIgMjEuOTU1IDU1LjIzNCAyMS45NTUgNTAuNjQ4IDAgOTMuNjA4LTIyLjQ1MiAxMTIuNjMyLTcyLjg1NyAxMy40OTYgMS4zODUgMjYuNDY3LTIuMDU3IDMyLjM2Ny0xMy41NzUtOS4zOTgtNS40MjMtMjEuNDg0LTMuNjk0LTI4LjQ0My0uMTk2IiBmaWxsPSIjMjJhMGM4Ii8%2BJiN4YTsgICAgICAgIDxwYXRoIGQ9Ik0yMjEuNTcgNTQuMzZjMS41MzMtMTEuOTE2LTcuMzg0LTIxLjI3NS0xMi45MTQtMjUuNzE5LTYuMzczIDcuMzY4LTcuMzYzIDI2LjY3OCAyLjYzNSAzNC44MDgtNS41OCA0Ljk1Ni0xNy4zMzcgOS40NDgtMjkuMzc2IDkuNDQ4SDQ0LjA0OGMtLjU5OCAxOS4yNDYgNi41NDQgMzMuODU1IDE5LjE4IDQyLjY4N2guMDAzYzkuOTg3LS4yMiAxOC4xMzYtMS40IDI0LjMxMi0zLjU0YTEuNzYxIDEuNzYxIDAgMDExLjE1MyAzLjMyNmMtLjgyMi4yODYtMS42NzguNTUyLTIuNTYyLjgwNWgtLjAwM2MtNC44NjMgMS4zODktMTAuNTI2IDIuNDQzLTE3LjI1NCAyLjg1OC0uMDAyIDAtLjE2My0uMTU1LS4xNjUtLjE1NSAxNy4yMzcgOC44NDIgNDIuMjMgOC44MSA3MC44ODUtMi4xOTcgMzIuMTMtMTIuMzQ0IDYyLjAyOS0zNS44NiA4Mi44OS02Mi43NTctLjMxNC4xNDItLjYyLjI4Ny0uOTE3LjQzNiIgZmlsbD0iIzM3YjFkOSIvPiYjeGE7ICAgICAgICA8cGF0aCBkPSJNMzUuNjQ1IDg4LjE2NmMuOTEgNi43MzIgMi44OCAxMy4wMzUgNS44IDE4Ljc3NmwxLjY2NyAzLjA1YTU2LjQzMiA1Ni40MzIgMCAwMDMuNDU1IDUuMTg0YzYuMDI2LjM4NyAxMS41ODEuNTIgMTYuNjY0LjQwOCA5Ljk4Ny0uMjIgMTguMTM2LTEuNCAyNC4zMTItMy41NGExLjc2MSAxLjc2MSAwIDAxMS4xNTMgMy4zMjZjLS44MjIuMjg2LTEuNjc4LjU1Mi0yLjU2Mi44MDVoLS4wMDNjLTQuODYzIDEuMzg5LTEwLjQ5NiAyLjM4My0xNy4yMjQgMi43OTktLjIzMS4wMTQtLjYzNC4wMTctLjg2Ny4wMy0yLjY0Ni4xNDgtNS40NzUuMjM5LTguMzk4LjIzOS0zLjE5NSAwLTYuNDYzLS4wNjEtOS45OC0uMjQgMTIuMjEgMTMuNzI0IDMxLjQyIDIxLjk4NSA1NS4zNTIgMjEuOTg1IDQzLjM2IDAgODEuMDg0LTE2LjQ1OCAxMDIuOTc5LTUyLjgyMkgzNS42NDUiIGZpbGw9IiMxYjgxYTUiLz4mI3hhOyAgICAgICAgPHBhdGggZD0iTTQ1LjM2NyA4OC4xNjZjMi41OTIgMTEuODIgOC44MjEgMjEuMDk5IDE3Ljg2NCAyNy40MTggOS45ODctLjIyIDE4LjEzNi0xLjQgMjQuMzEyLTMuNTRhMS43NjEgMS43NjEgMCAwMTEuMTUzIDMuMzI2Yy0uODIyLjI4Ni0xLjY3OC41NTItMi41NjIuODA1aC0uMDAzYy00Ljg2MyAxLjM4OS0xMC42MTUgMi4zODMtMTcuMzQ0IDIuNzk5IDE3LjIzNiA4Ljg0IDQyLjE1NyA4LjcxMyA3MC44MS0yLjI5MyAxNy4zMzQtNi42NiAzNC4wMTctMTYuNTc0IDQ4Ljk4NC0yOC41MTVINDUuMzY3IiBmaWxsPSIjMWQ5MWI0Ii8%2BJiN4YTsgICAgICAgIDxwYXRoIGQ9Ik01NS4yNiA0OS41MjNoMTkuODE4djE5LjgxOEg1NS4yNnptMS42NTEgMS42NTJoMS41NjRWNjcuNjloLTEuNTY0em0yLjk0IDBoMS42MjdWNjcuNjloLTEuNjI2VjUxLjE3NXptMy4wMDIgMGgxLjYyN1Y2Ny42OWgtMS42Mjd6bTMuMDA0IDBoMS42MjZWNjcuNjloLTEuNjI2em0zLjAwMyAwaDEuNjI2VjY3LjY5SDY4Ljg2em0zLjAwMiAwaDEuNTY1VjY3LjY5aC0xLjU2NXptNi4yNjQtMjQuNTE4aDE5LjgxOXYxOS44MTdoLTE5LjgyVjI2LjY1N3ptMS42NTIgMS42NTJoMS41NjN2MTYuNTE0aC0xLjU2M3ptMi45NCAwaDEuNjI2djE2LjUxNGgtMS42MjVWMjguMzA5em0zLjAwMiAwaDEuNjI2djE2LjUxNEg4NS43MnptMy4wMDMgMGgxLjYyNnYxNi41MTRoLTEuNjI2em0zLjAwMyAwaDEuNjI3djE2LjUxNGgtMS42Mjd6bTMuMDAyIDBoMS41NjZ2MTYuNTE0aC0xLjU2NnoiIGZpbGw9IiMyM2EzYzIiLz4mI3hhOyAgICAgICAgPHBhdGggZD0iTTc4LjEyNiA0OS41MjNoMTkuODE5djE5LjgxOGgtMTkuODJWNDkuNTIzem0xLjY1MiAxLjY1MmgxLjU2M1Y2Ny42OWgtMS41NjN6bTIuOTQgMGgxLjYyNlY2Ny42OWgtMS42MjVWNTEuMTc1em0zLjAwMiAwaDEuNjI2VjY3LjY5SDg1Ljcyem0zLjAwMyAwaDEuNjI2VjY3LjY5aC0xLjYyNnptMy4wMDMgMGgxLjYyN1Y2Ny42OWgtMS42Mjd6bTMuMDAyIDBoMS41NjZWNjcuNjloLTEuNTY2eiIgZmlsbD0iIzM0YmJkZSIvPiYjeGE7ICAgICAgICA8cGF0aCBkPSJNMTAwLjk5MyA0OS41MjNoMTkuODE4djE5LjgxOGgtMTkuODE4em0xLjY1MSAxLjY1MmgxLjU2M1Y2Ny42OWgtMS41NjN6bTIuOTQgMGgxLjYyNlY2Ny42OWgtMS42MjZ6bTMuMDAzIDBoMS42MjZWNjcuNjloLTEuNjI2em0zLjAwMyAwaDEuNjI2VjY3LjY5aC0xLjYyNnptMy4wMDIgMGgxLjYyOFY2Ny42OWgtMS42Mjh6bTMuMDAzIDBoMS41NjRWNjcuNjloLTEuNTY0eiIgZmlsbD0iIzIzYTNjMiIvPiYjeGE7ICAgICAgICA8cGF0aCBkPSJNMTAwLjk5MyAyNi42NTdoMTkuODE4djE5LjgxN2gtMTkuODE4em0xLjY1MSAxLjY1MmgxLjU2M3YxNi41MTRoLTEuNTYzem0yLjk0IDBoMS42MjZ2MTYuNTE0aC0xLjYyNnptMy4wMDMgMGgxLjYyNnYxNi41MTRoLTEuNjI2em0zLjAwMyAwaDEuNjI2djE2LjUxNGgtMS42MjZ6bTMuMDAyIDBoMS42Mjh2MTYuNTE0aC0xLjYyOHptMy4wMDMgMGgxLjU2NHYxNi41MTRoLTEuNTY0em02LjI2NCAyMS4yMTRoMTkuODE4djE5LjgxOGgtMTkuODE4em0xLjY1MiAxLjY1MmgxLjU2M1Y2Ny42OWgtMS41NjN6bTIuOTQgMGgxLjYyNlY2Ny42OWgtMS42MjZ6bTMuMDAyIDBoMS42MjZWNjcuNjloLTEuNjI2em0zLjAwMyAwaDEuNjI3VjY3LjY5aC0xLjYyN3ptMy4wMDMgMGgxLjYyN1Y2Ny42OWgtMS42Mjd6bTMuMDAzIDBoMS41NjRWNjcuNjloLTEuNTY0eiIgZmlsbD0iIzM0YmJkZSIvPiYjeGE7ICAgICAgICA8cGF0aCBkPSJNMTIzLjg1OSAyNi42NTdoMTkuODE4djE5LjgxN2gtMTkuODE4em0xLjY1MiAxLjY1MmgxLjU2M3YxNi41MTRoLTEuNTYzem0yLjk0IDBoMS42MjZ2MTYuNTE0aC0xLjYyNnptMy4wMDIgMGgxLjYyNnYxNi41MTRoLTEuNjI2em0zLjAwMyAwaDEuNjI3djE2LjUxNGgtMS42Mjd6bTMuMDAzIDBoMS42Mjd2MTYuNTE0aC0xLjYyN3ptMy4wMDMgMGgxLjU2NHYxNi41MTRoLTEuNTY0eiIgZmlsbD0iIzIzYTNjMiIvPiYjeGE7ICAgICAgICA8cGF0aCBkPSJNMTIzLjg1OSAzLjc5aDE5LjgxOHYxOS44MmgtMTkuODE4em0xLjY1MiAxLjY1MWgxLjU2M3YxNi41MTZoLTEuNTYzVjUuNDR6bTIuOTQgMGgxLjYyNnYxNi41MTZoLTEuNjI2VjUuNDR6bTMuMDAyIDBoMS42MjZ2MTYuNTE2aC0xLjYyNlY1LjQ0em0zLjAwMyAwaDEuNjI3djE2LjUxNmgtMS42MjdWNS40NHptMy4wMDMgMGgxLjYyN3YxNi41MTZoLTEuNjI3VjUuNDR6bTMuMDAzIDBoMS41NjR2MTYuNTE2aC0xLjU2NFY1LjQ0eiIgZmlsbD0iIzM0YmJkZSIvPiYjeGE7ICAgICAgICA8cGF0aCBkPSJNMTQ2LjcyNSA0OS41MjNoMTkuODE4djE5LjgxOGgtMTkuODE4em0xLjY1IDEuNjUyaDEuNTY1VjY3LjY5aC0xLjU2NFY1MS4xNzV6bTIuOTQgMGgxLjYyN1Y2Ny42OWgtMS42MjZWNTEuMTc1em0zLjAwNCAwaDEuNjI3VjY3LjY5aC0xLjYyN3ptMy4wMDIgMGgxLjYyN1Y2Ny42OWgtMS42Mjd6bTMuMDA0IDBoMS42MjZWNjcuNjloLTEuNjI2em0zLjAwMiAwaDEuNTY0VjY3LjY5aC0xLjU2NHoiIGZpbGw9IiMyM2EzYzIiLz4mI3hhOyAgICAgICAgPHBhdGggZD0iTTk2LjcwNCAxMDEuNDcyYTUuNDY4IDUuNDY4IDAgMTEtLjAwMiAxMC45MzUgNS40NjggNS40NjggMCAwMS4wMDItMTAuOTM1IiBmaWxsPSIjZDNlY2VjIi8%2BJiN4YTsgICAgICAgIDxwYXRoIGQ9Ik05Ni43MDQgMTAzLjAyM2MuNSAwIC45NzcuMDk0IDEuNDE3LjI2NWExLjU5OCAxLjU5OCAwIDAwLjc5OCAyLjk4Yy42MDUgMCAxLjEzLS4zMzUgMS40MDItLjgzMWEzLjkxNSAzLjkxNSAwIDExLTMuNjE3LTIuNDE0TTAgOTAuMTQyaDI1NC4zMjdjLTUuNTM3LTEuNDA0LTE3LjUyLTMuMzAyLTE1LjU0NC0xMC41Ni0xMC4wNyAxMS42NTItMzQuMzUzIDguMTc1LTQwLjQ4MiAyLjQzLTYuODI0IDkuODk4LTQ2LjU1NCA2LjEzNS00OS4zMjUtMS41NzYtOC41NTYgMTAuMDQxLTM1LjA2NyAxMC4wNDEtNDMuNjIzIDAtMi43NzMgNy43MTEtNDIuNTAyIDExLjQ3NC00OS4zMjcgMS41NzUtNi4xMjggNS43NDYtMzAuNDEgOS4yMjMtNDAuNDgtMi40MjhDMTcuNTIyIDg2Ljg0IDUuNTM5IDg4LjczOCAwIDkwLjE0MyIgZmlsbD0iIzM2NDU0OCIvPiYjeGE7ICAgICAgICA8cGF0aCBkPSJNMTExLjIzNyAxNDAuODdjLTEzLjU0LTYuNDI1LTIwLjk3MS0xNS4xNi0yNS4xMDYtMjQuNjk0LTUuMDMgMS40MzUtMTEuMDc1IDIuMzUzLTE4LjEgMi43NDctMi42NDYuMTQ4LTUuNDMuMjI0LTguMzUuMjI0LTMuMzY4IDAtNi45MTctLjEtMTAuNjQzLS4yOTcgMTIuNDE3IDEyLjQxIDI3LjY5MiAyMS45NjQgNTUuOTc2IDIyLjEzOCAyLjA4OCAwIDQuMTYtLjA0IDYuMjIzLS4xMTgiIGZpbGw9IiNiZGQ5ZDciLz4mI3hhOyAgICAgICAgPHBhdGggZD0iTTkxLjE2IDEyNC45NzRjLTEuODczLTIuNTQzLTMuNjktNS43MzktNS4wMjYtOC44LTUuMDMgMS40MzctMTEuMDc3IDIuMzU1LTE4LjEwMyAyLjc1IDQuODI2IDIuNjE5IDExLjcyNyA1LjA0NiAyMy4xMyA2LjA1IiBmaWxsPSIjZDNlY2VjIi8%2BJiN4YTsgICAgPC9nPiYjeGE7PC9zdmc%2B%3B%22%20vertex%3D%221%22%20parent%3D%222%22%3E%3CmxGeometry%20x%3D%22545.0003501773049%22%20y%3D%2225.430930232558143%22%20width%3D%2263.57488372093024%22%20height%3D%2236.06976744186046%22%20as%3D%22geometry%22%2F%3E%3C%2FmxCell%3E%3CmxCell%20id%3D%226%22%20value%3D%22%22%20style%3D%22shape%3Dimage%3BverticalLabelPosition%3Dbottom%3BverticalAlign%3Dtop%3BimageAspect%3D0%3Baspect%3Dfixed%3Bimage%3Ddata%3Aimage%2Fsvg%2Bxml%2CPHN2ZyB4bWxucz0iaHR0cDovL3d3dy53My5vcmcvMjAwMC9zdmciIHdpZHRoPSIxMDI0IiBoZWlnaHQ9IjEwMjQiIGZpbGw9Im5vbmUiIHZpZXdCb3g9IjAgMCAxMDI0IDEwMjQiPiYjeGE7ICAgIDxwYXRoIGZpbGwtcnVsZT0iZXZlbm9kZCIgY2xpcC1ydWxlPSJldmVub2RkIiBkPSJNNTEyIDBDMjI5LjEyIDAgMCAyMjkuMTIgMCA1MTJjMCAyMjYuNTYgMTQ2LjU2IDQxNy45MiAzNTAuMDggNDg1Ljc2IDI1LjYgNC40OCAzNS4yLTEwLjg4IDM1LjItMjQuMzIgMC0xMi4xNi0uNjQtNTIuNDgtLjY0LTk1LjM2LTEyOC42NCAyMy42OC0xNjEuOTItMzEuMzYtMTcyLjE2LTYwLjE2LTUuNzYtMTQuNzItMzAuNzItNjAuMTYtNTIuNDgtNzIuMzItMTcuOTItOS42LTQzLjUyLTMzLjI4LS42NC0zMy45MiA0MC4zMi0uNjQgNjkuMTIgMzcuMTIgNzguNzIgNTIuNDggNDYuMDggNzcuNDQgMTE5LjY4IDU1LjY4IDE0OS4xMiA0Mi4yNCA0LjQ4LTMzLjI4IDE3LjkyLTU1LjY4IDMyLjY0LTY4LjQ4LTExMy45Mi0xMi44LTIzMi45Ni01Ni45Ni0yMzIuOTYtMjUyLjggMC01NS42OCAxOS44NC0xMDEuNzYgNTIuNDgtMTM3LjYtNS4xMi0xMi44LTIzLjA0LTY1LjI4IDUuMTItMTM1LjY4IDAgMCA0Mi44OC0xMy40NCAxNDAuOCA1Mi40OCA0MC45Ni0xMS41MiA4NC40OC0xNy4yOCAxMjgtMTcuMjggNDMuNTIgMCA4Ny4wNCA1Ljc2IDEyOCAxNy4yOCA5Ny45Mi02Ni41NiAxNDAuOC01Mi40OCAxNDAuOC01Mi40OCAyOC4xNiA3MC40IDEwLjI0IDEyMi44OCA1LjEyIDEzNS42OCAzMi42NCAzNS44NCA1Mi40OCA4MS4yOCA1Mi40OCAxMzcuNiAwIDE5Ni40OC0xMTkuNjggMjQwLTIzMy42IDI1Mi44IDE4LjU2IDE2IDM0LjU2IDQ2LjcyIDM0LjU2IDk0LjcyIDAgNjguNDgtLjY0IDEyMy41Mi0uNjQgMTQwLjggMCAxMy40NCA5LjYgMjkuNDQgMzUuMiAyNC4zMkM4NzcuNDQgOTI5LjkyIDEwMjQgNzM3LjkyIDEwMjQgNTEyIDEwMjQgMjI5LjEyIDc5NC44OCAwIDUxMiAweiIgZmlsbD0iIzFCMUYyMyIvPiYjeGE7PC9zdmc%2B%22%20vertex%3D%221%22%20parent%3D%222%22%3E%3CmxGeometry%20x%3D%2220.77127659574468%22%20y%3D%221.86046511627907%22%20width%3D%2230.697674418604652%22%20height%3D%2230.697674418604652%22%20as%3D%22geometry%22%2F%3E%3C%2FmxCell%3E%3CmxCell%20id%3D%227%22%20value%3D%22%22%20style%3D%22aspect%3Dfixed%3Bsketch%3D0%3Bhtml%3D1%3Bdashed%3D0%3Bwhitespace%3Dwrap%3BverticalLabelPosition%3Dbottom%3BverticalAlign%3Dtop%3BfillColor%3D%232875E2%3BstrokeColor%3D%23ffffff%3Bpoints%3D%5B%5B0.005%2C0.63%2C0%5D%2C%5B0.1%2C0.2%2C0%5D%2C%5B0.9%2C0.2%2C0%5D%2C%5B0.5%2C0%2C0%5D%2C%5B0.995%2C0.63%2C0%5D%2C%5B0.72%2C0.99%2C0%5D%2C%5B0.5%2C1%2C0%5D%2C%5B0.28%2C0.99%2C0%5D%5D%3Bshape%3Dmxgraph.kubernetes.icon2%3BkubernetesLabel%3D1%3BprIcon%3Dnode%22%20vertex%3D%221%22%20parent%3D%222%22%3E%3CmxGeometry%20x%3D%22455.00333333333333%22%20y%3D%2218.93%22%20width%3D%2250%22%20height%3D%2248%22%20as%3D%22geometry%22%2F%3E%3C%2FmxCell%3E%3CmxCell%20id%3D%228%22%20value%3D%22%22%20style%3D%22shape%3Dimage%3BverticalLabelPosition%3Dbottom%3BlabelBackgroundColor%3Ddefault%3BverticalAlign%3Dtop%3Baspect%3Dfixed%3BimageAspect%3D0%3Bimage%3Ddata%3Aimage%2Fpng%2CiVBORw0KGgoAAAANSUhEUgAAAOEAAADhCAIAAACx0UUtAAAAAXNSR0IArs4c6QAAAERlWElmTU0AKgAAAAgAAYdpAAQAAAABAAAAGgAAAAAAA6ABAAMAAAABAAEAAKACAAQAAAABAAAA4aADAAQAAAABAAAA4QAAAAAYn8bHAAAdTUlEQVR4Ae1dC5QU1Zm%2BVdXdDA3MAMNrYHjM8FR5CIpENFEhxo0BEt2NzzxEjVmN0TUxukg0MR7jiie7MbLhrPHFMYLoRhMxZg0CxggKRGEEeTs8hvf7OWB3V9V%2Bt%2B9QVHdX91RP1%2B3pov46fWZu3br3v%2F%2F9%2Fq%2F%2F%2B6zbimmajC5CoIQRUEtYN1KNEOAIEEeJB6WOAHG01C1E%2BhFHiQOljkCoOAqasePmuiXmhn%2BgOK3xZMsK1aNlZnml2u8sdcBYnTEjHm%2BZnLxyhcNhlMX2bTZWLVQP7G2x8qJQffBwNniMVl6Vlw4BT6wUYVyv%2F22W%2BvL32IFGFuFoKwV8L8wEMxuZPmikevsLrM9wqTQNmTEj0o4d2Wm88OPQh7O55m0KZQuU53ImPmxe82MFwulygYB0jupP3ay%2B%2F7zS0YUu7pPEmHGE6T98Tr10sjyaquEw3Kc2tQbEUqLulWs%2BJQTGK6u1Xywlh9o8WPhKS%2FWjxvM%2FVOZN5%2B4n6UG5QjFb2I2C2dOYR5k5Zb45bJwkmqqHt6sPnqOcbHL%2F2RVp0ZMYi1VUR37d0KLMwcokccxkbFzMCdohlZQWWQvGGdTXZ92LtrhgSQ4C4ETN1x5lx%2BQQFAVGWHj%2FttichxzKpqhUBGRydO5vCu%2FApWqbehdhoS3LzfUreaPs%2BYVWfvksb5v4NB0hPLLgkXhRRn5pRfvrViJH1ffnnG7iJaGiMXXlXM9lc9JvWsEOJwc4nku3CTT2MW3LMlsEBR0QkMVRTDY5lOZ1FKYIjL1bvZbK5ZkQq8kQnCKTd1e2rUuJopsMBKRx9ID%2FRwN8XlTypTElYUguw%2FfipXE0WuF7bOT7Ud9DVJQKyOJoUZSnQgKBAHE0EGb2dSWJo742XyCUJ44Gwsy%2BriRx1NfmC4Ty%2FudouG0gDBXgSvqfowE2XkCqThwNiKF9XE3iqI%2BNFxDViaMBMbSPq0kc9bHxAqI6cTQghvZxNYmjPjZeQFQnjgbE0D6uJnHUx8YLiOrE0YAY2sfVJI762HgBUZ04GhBD%2B7iaxFEfGy8gqhNHA2JoH1eTOOpj4wVEdeJoQAzt42oSR31svICoThwNiKF9XE3iqI%2BNFxDViaMBMbSPq0kc9bHxAqI6cTQghvZxNYmjPjZeQFQnjgbE0D6uJnHUx8YLiOrE0YAY2sfVJI762HgBUZ04GhBD%2B7iaxFEfGy8gqhNHA2JoH1eTOOpj4wVEdeJoQAzt42oSR31svICoThwNiKF9XE3iqI%2BNFxDViaMBMbSPq0kc9bHxAqI6cTQghvZxNYmjPjZeQFQnjgbE0D6uJnHUx8YLiOrE0YAY2sfVJI762HgBUZ04GhBD%2B7iaxFEfGy8gqhNHA2JoH1eTOOpj4wVEdeJoQAzt42oSR1vVeDGmVFS2qgY%2BKJw46gMjBVxF%2F3P0UIMaO%2B65Fc2NHyohz6WmC1SijDWsT4%2Bl%2B1QEfM7RCAttXWxurVPD4dR6tfyOi9r6SfjT2SzSciHucxrLXjYlfMfcK1D6KX3O0STAxos%2FgSv1hKYQwr3yzHtZrCi2w3esfrn%2BzrNFKcyvhSimacrQXT%2ByU5ncU%2B0iQ3a6TLORJapHanfPMnsMSX%2BW572ya63xxERtz0beChfnijHzc2ZceZ96zUNKpF1xyvRXKWcCRznisHSC6bVjlYEXm%2B17KEZcjx%2BzLKHFPxdhJd5oRWYGzG3rlBXz1HJWnFbergC%2BZqx9VB80Ue3Y1R5fsmGj%2B0C191Bl8JgifK%2FOFI4KYyYbaJBVXC0Z9BSlD5rCPOgsCi1O7yKl7JbfwPfj0qsGqDf9jzpsXMsFuch5ZnHURYUpiZcIJJsv41u%2F1a643UuxqbLOhDFTao3orogIRBg67urv79C3fiKvVOKoPGyDIpn3qTATIu0ijkqDNjiCI0xdMk%2FeLC9xNDhUklnTdiyxYbGkAoijkoAlsZ4hQBz1DEoSJAkB4qgkYEmsZwgQRz2DkgRJQoA4KglYEusZAsRRz6AkQZIQII5KApbEeoYAcdQzKEmQJASIo5KAJbGeIUAc9QxKEiQJAeKoJGBJrGcIEEc9g5IESUKAOCoJWBLrGQLEUc%2BgJEGSECCOSgKWxHqGAHHUMyhJkCQEiKOSgCWxniFAHPUMShIkCQHiqCRgSaxnCBBHPYOSBElCgDgqCVgS6xkCxFHPoCRBkhAgjkoClsR6hgBx1DMoSZAkBIijkoAlsZ4hQBz1DEoSJAkB4qgkYEmsZwgQRz2DkgRJQkD%2B77tIUvyMFoujx1tyCHUSExxj3ZS3%2BGdSyzEKcVQOri2Vah5lShtmXPW4MvB81rVnS8Ts3aE3rDL%2B%2BkR4zzalQ0sElFoe4mjJWCT5AyOJ254LXzpZK0SpHkNwQL1%2B5V3G32Zps27kP%2BLjc4dK%2FdFC6OBd3hiLVVQb%2F1EHgnoiFCzXLrlBn1pnlkWL9FtTnujtJIQ46oRKa8SF7pyj9RnubckQaEz5gPyot6gGURpGSPrEx9UBY2VUHjTVr%2F4t%2F%2F0n317kR1vfdPHKanXCD%2BTpoV72HfwOoDz5siUTR2Uj3Ix8eDjt%2FBuk%2FlochKvnXO5fV0ocbYZD0h9j3D34QumloAgU5M%2BLONr6djOi8n%2FKtnstK2hCqzVRIo62JvqibK2NfI6iJL31a9oyDYijLcPNh7nIj%2FrQaKSyPxAgP%2BoPOwVZS%2BJokK3vj7oTR%2F1hpyBrSRwNsvX9UXfiqD%2FsFGQtiaNBtr4%2F6k4c9YedgqwlcTTI1vdH3Ymj%2FrBTkLUkjgbZ%2Bv6oO3HUH3YKspbE0da2ftG2etC%2Bp9Y2NZWfCwEldoz2j%2BYCiJ7lQkBn5sE9uRIE%2Fhm19a1NgaK09fq2da1dz5aXTxxtOXae5MTJOezDNzwRlUOIum0tL8ifF3G0te0WYdqq5%2FV9m%2BXpAeHa36f59yQI4qg8briWHGPGrAdcp84%2F4f%2FN8O%2BLy6gtcTR%2Fk3ueI8JCH87W%2FzbLc8EQGH%2F3eXXuNCUqQ3aRZBJHiwR07mJwCKP6zI362zNyJ8v3KQgaevZmpWO%2B%2BUorPXG0VOwBV6fOvMP4%2BThj19oCdcJsvb71k8S0r4eevtnXHlTgQOePFsgHL7PDmypbFrIpZyU6Dzg2%2BuYOVX3Ndl1QgHJ8n8tikN747H116Wxtz0Z%2BmjOdkesSOEqWBwLJ82xDxzZW%2FDk5ihILmO7nUHWmacmzxv3cAU2Di%2FxoGiClcnsGtNFeQUn9Ua%2BQJDmyECCOykKW5HqFAHHUKyRJjiwEiKOykCW5XiFAHPUKSZIjCwHiqCxkSa5XCBBHvUKS5MhCgDgqC1mS6xUCxFGvkCQ5shAgjspCluR6hQBx1CskSY4sBIijspAluV4hQBz1CkmSIwsB4qgsZEmuVwgQR71CkuTIQoA4KgtZkusVAsRRr5AkObIQII7KQpbkeoUAcdQrJEmOLASIo7KQJbleIUAc9QpJkiMLAeKoLGRJrlcIEEe9QpLkyEKAOCoLWZLrFQLEUa%2BQJDmyEJDIUX7eEF2EQMEISOSomShYOxJACMg7I1ctKyd4A4WAVtlbUn1l%2BVEl0i7RS5GkNIktQQTUHkMkaSWLo1BXnfQ786gktUlsCSGAw%2FaNiffJU0gxTVOedP2Rr6jr59ExhfIQbn3JMWaWRdmTe9BySlJGoh%2FlGt89M1E9krypJOO1ulh4UBDUmPKBPIKijnL9qABRf22aOu9hc08jzUa1Oqu8UgCTNmgezXF3mv%2F8gFZe5ZVYRznF4CgKxpHZxxtWtz2y3VEJivQdAkq0XKkZ4%2F4M9EIqWCSOFqIi5Q04ApL7owFHl6rvBQLEUS9QJBkyESCOykSXZHuBAHHUCxRJhkwEiro3ST%2By07EuRtsu4XDY8VGBkWbsuHHyCDYP5DuBF4%2FH1RP81%2BXynVjhP%2Fp1qpqF1AsKhMyYVf189RcZUX33ElDi7v17t%2B%2FeqcdOapEyZOzfu1%2BXzpWWhNYKFG9cj1%2BwVO8YwRwXIzpH4%2BEToZE%2FYOdfZQ4b5%2BGMBn4zU3vvDeO6%2B7RvPZ4XxMbKBcqU8aycGb%2FZpHXp5z4vfixevamGV%2FM4Mx%2Bbrw4b5z6vPWV9%2FbpFn9RZMZd94eLqHj2tWzeBletWr1izyko5cdwVHcsrrFt7AOxctmLpZ9u3K0rKFgusQSJmzIjzBvartacvcri4bX05w28A86VR0BA%2FOohPMqCcbIwcNdX3piuPjTd%2FPNDYuNgrFJS2leCZmkiB3q1w7NyqiLJIG7fpRTqk78Srib8FXuCHdcG95Sttw%2BZ6K3u7tll%2Fm3Hbrh0v%2F%2Fn1%2Bh07kFgUAWriQljEfLjiH4uXLcq3dA%2FTF7Wt53rHWGL4tWzwWBYTP4XJFCPOtq81dqwIbVmutGGhAxvNhy%2FSb31Ju%2BQGb%2BrpoVt2qRBqhlb6dEPtMluuZIeOHM71OOMZ0jeePJERnR4Bgr67ZJHgYrSs7bDBZ3cqrwiFOCuONR7%2FdMPavQf24ykYzJYtGjv6ovT8RbkvNkf5xufBY0NX3pVWOzV23NxaZ776mLL6TTha7YUb9ZqhWp%2Fhacl8cWsOm8DC7c34MbOC%2F2py5oV%2Bufn%2Bq5kgZKYEb9pFoyAKPmiR3ffaG3Y2LenV9uzJGeZ0gcdL6z7GE3jNQTX9R5093C4fHQP0LtDlWLFhA%2BgOIR3WrQaJnSTJjStuW4%2FmA1%2BKUx7UXjOMCdQBY9Upc%2BMTHhQeSHlpqj2BX8IYY6EWyr2z8dfxO4Z%2BufHY19j8p1zWqLZ3P5Fybf0Gl1mQbMeeXfgLiveodP6e4OnqdauErwVB0em0E9QqqLZ28AUjRolbdB7wPbEeFS1QbI42W7HwVffHe4xEMmXlm9nmAZoVUtIJ3nspVL%2Bcte%2FmUsmunStBNSQWtHOTC0yC30XKXj2qIlHn37Dfd2C%2F8K%2BQDw%2BaQyy8qRgzgdB5fU9yyMzrUclxFA7VvPCb4l0oZc%2BmvCrji8R6uA0fKbq%2BMNzp0ZmPv%2Fbs3%2BfSjWEKSYjv1b3qxMmTjkV99GmdiIefdvSg9lyDawaI7wlcqT2%2BOOGS4yiqrVWdxTdKacw8uKc4KJR4KV278s1vGLts3t7gRtWtDfy7DVZlm64C1483Noo0buaV0DdFtxjp4UrhgN3o4GGaUuSogvf1hKdJ4uhhbX0qql%2Bv3sKN1TdsbrYK4N%2BuAweRTHhfx%2FRwtMdPcI6iM%2BCYIDPS6hZ%2F5kKHzOyFxBR7XO9GV33%2FllByYsqMljumxzy5uWmV0rBajx9DArWyL%2Bs%2FNFQzxjFxWiSGLOb6Zcb%2BLVq4vTL8YqXPCJdLOHwwvu4jUahWO4rVnJttbh8plcbDZqjMngA6K4mTiAw1HhTfQN7bjn0u1OOPohXZ1rTQFsONwYfB%2BYGCuZvmw0ePgH9wusL7plVf3B48fMiab3JMkBmJOSkM%2F5Er31mwTFH5xpQiR7VNH2OiFO8hsC5d0%2BrD2fnc3aHP3uBPddbUCmh8uiDReYB6%2B0xMDqRlsW45J2ZOVZc%2Bjxgt%2BR1Q5rJEn7HKLTMcB%2BBWRgQS7zyr%2FeEuzBlahSodWOLrTzrPH73xa%2BXtacqI69i9s4UQ3nP5SQ3WLEw1qhiNLMpCuxab9w84XcSxxsSEB7Vrf3E65lQIhOsYrujZrQeGQQiDgrnXJ%2BHnwCTwCd73lIz0%2F0ePcEeLq1MFFhtcXRUdytEzxvdEjMZc5fEoUcm19cauteqH02FOLNVovYbaqwkXCEuH1rzBJ6faRzENqV96q37uJL2yFmMsTP6rj16ENPYsIqyEoli5Vv7zRvWD58Fms%2F9lyJjoO5Ln2rpY%2B9kIrHxm5rJi9LdnaM%2Fdyg43oiA26jqUCIJCB%2B33dyee%2Fp6VzArwUVHyO2DFNAViDCtq1tw%2BwtYH6bV4k09Nz5W8713VS7ix9Z%2BtdUwgIuFlt%2B%2FiK1LdKnNtgRCdAfQf2kcd16adSxBdUqhRZFdaWn6UM%2Bn3D8OKYA8mSiO2Vw357pAZN6Gbikf6F29Vrp6KllR8w%2BAgjXdeVP%2F3fnhfNvNe8%2F7X05pvPVqmv%2F54eM3CeFV16JaZyuAxIcwexI7r770ceulWGESdPl5%2F1GFdPt6mc2jPOvb0HUo508ffp0z6N6O8CpDxDsOzt3N%2Bz38mUT3M2ZvaDA21jamLzEh7JRJhf%2FlvZcF0vIqo3T3LjNkWo7J0bIQYPmpJujHQK0dzbzX08Lu28lOCyJ5y7%2B4mdwfDnYwWpiohP8rb8V9dp3z6MqqidxuAiVJ7nfS6hXxaEY9qx4Zu%2B529q4dunHb1fewrPD1elTZ2fWbPiLCx%2Bd3wu78CQbUf%2FRmbPASD8Tf05VsSNz4D0vP3G197NC0XbsOfHzBenMo7Et98ErtSeEHJROgbaFP%2FiiCcfehPd0PzZHSuP%2BiEIBcOSkhEO8FrKpG2CHM51qe5nStiAC6a%2B2wl7dy7W3Q04XezpbHH51jHtyezhyEfy6T2GNnh1uBoRBi6qWpo3OOfztOfulm9p0Zd%2FyYYg56lMmVemi9UV72NR8YRZl7zc0dQjAn%2FigQwv1H%2FkT0BGBZe%2BRd2oFG90aHfaV7yHTT9SKP9%2FRloYs%2BIMPqOcJbG0MszPSXU0296iZMbfdT5z6VllHEraAeK5BhZW8tL2bY4FaJYhzK0U61wFb2tj3DHY86dAvNjAIFRiBJjUIJvhgqxWAeFXfRT5eoHQxnbSc3x32NDxwOh0EDnURE8a6yTEt5nmrsdZv7NcyeERk%2FIBBhNWPzSbytPL0Q%2FwahbyDIOhDE%2FZ8r1P8%2FMiBj1wq%2Bzl6O8T7niTfOq%2B9O%2BVI5ZCokE7dCDxKgFPc742Q6je3QTreWlHAXBE0NIjgSl9qg1%2FCgYmRw6cOuGODv5Tja0yH0v0x6qj1z7C8euD28TR38DnxxU0Lp%2BmQ8%2Bwu3TUAbPzC%2FfkhZp3aqj%2FomPgXAtfd2KbArEmF41wMwyV8Bd6cgbkDK8a7lxpGlpJ12Cp%2FfWlCd4linYGnFjb3LmU%2F%2FGtAJH451HGl%2B6Ux81WXywVS%2FWtho0UrcsxLA9NuehFqNptu%2FsnBedi5pznR%2FBHZaVG1WX4am2bV7mcNy44PqUrkmqFGXwZbw7iz7GphWpT6TcDerPz%2F3KNgEkZvjhazFPlKN49EHFikCONCX1qOhtPeZfxnxb%2FcY9dhQwxDbXLdFf%2BD7mj8JvPqLHP89327yQZmrOX7l4ZXW4PH2q1VIA7tCo7Me2MPNQ8jUP26kbIJ9ae4GVMjOgdD41fG5Yz0ZnPvc4BjOjorkHHdPWMNHQi%2BVNLB05NkSFq3L0ZK7ZscLlZ5PgbNRsqT2J55uaUy%2BwhA%2B3p8xLVNSi9VffnuZmKz5nNuaP9m3GTBDSY45TPbyvaRHVJh88C3U%2FN0cPAWn1btUiB9aHbFmTwYx1BHsC7BCFwvxqLNIqtmjuQce0SUo09KKXiX0kdg1zhx37DLmzYH40r1nV3NLcPC26H82uFAY98W%2F81Hz2Zljd%2FPtslqUXCAF8evLj%2BeqaBcbu1aHD9bypTTbSKlannBpms31WJ5qmTsqEJfrN%2BMK0rUhLY7%2Fl85144wUKFOvq07sGe%2BpEc28fvB84zJeO4GW7VzZT2ZZ5WfusagtmrAqBpxX8aA51MXzhazkYP9W95ZgM00PGYxOVe0Zor%2FwIG0y1%2FXyrGB91deAfThenS%2B3QzSnaIc7U8xvwYv2dL2%2FiS7V3i4M4CVGgoOhN2veXWMtL8LJuKCi2koDoec10WmMyN0V4WPUS8qOoFSbJzeoL2OF6eEe%2BKJo6E8Tf1Zw2nhOiDYt3q9a%2B%2BoA5aJRS2UdkxF%2F%2BFuhHb7QMHe6MMX7K6TUdJDcewewE8ipd%2Bzo8lRAFfoCI9Tv4%2FhI098KVYh8TCIdWGF7WTZnWmCnW6PYUY6xgicVYrLK6KcLDNKXlR1Ex%2FewLBV3Y3pS3cEBZTlCcJ9jIErc9p%2F26Qbvidux14ms%2Fp0Y5xtEt6I%2BKzVB2jPSDm%2B23meHwiRiojwt%2BMe2pcSKjh5qWInnL1%2BiLdYGIoAtIeWDfLlGmeGsUTXCzDb1Ij60kkIDw3qN845iby1rBsncw3GQsPE3JcVQddH4TXTb8w14989Vp%2FBYTlt99MnzpZKduJwvv22DPcjp8qAGjq9O3qSE%2B9tr5KY%2BLMGuJlb8ulyxDPZY1I3KYydeGEFC6u3JgvJSCLxBR9Agthont8S4bepRvSRAbUNxoZL2pUvzJ15LjqNmxp%2BhWmnV%2FsrADjfByM2%2Fly6Jaltl4vmiOvXOp5DV7D4MQrGdaojIDOMgksZvPbsY7Kaef4nxN%2BGzMfe5YdzoyI6SsnS%2FiNOxhLdYlmnuUJhhmbYzPsWE0TTVIsPbV4%2FXltKeZtyhCdEbRSci9MzAzb%2BExJcdRtbxr04z6nhXWjDpWcUKHOFf0btlnkd57RThgOyhKrxq%2BiwrrTFvr7PH2sLJlTXj%2FNsTwg1JOXVADaw1cYObi06k0UM9c%2Fhq%2Fw0bBqtpT0cX4L%2BiI5h5dUmv5Hm%2FPuS%2F7nIF8OQAXXqIXgRx%2FrZef0iZlc2Tx8FHJcRQTmeaA0byGhxtZxn4iM%2BY87kZvVZt7v8O4fvAYSOJ79jCZleUy3nmae2jMT3%2FxeisJ1NAGXYRbrX4e3xztdCkrF2h7NuIJVkStToJTwtS4tvwlzwIv62VRvEcvJkoRk1dPEa86CU7DQeLUnRz6oCNhOdEhtQNzpJT0qOQ4inoa1UM4Y9Bqn1pghFdLdByMR3xlPGN3EqZLlYfPcwQIwyl9CN%2BDgoN6HNcF9GV%2FDH0yBwn0gWPT9vAbQ6%2FgaoDif%2Fgl%2F5dxJZ79Lu8PYBV33OSMh1kj1CifCMM%2B%2FGzUz5rT9gB0FI21RaAcG0Zt%2BVKC550zQtzjWKgldR%2FZZ0CtdKAvHolbHABR5FknUW4pclSt5YTj7SwWGJOX8Gp8vI%2F9%2BQ%2Bfl9i0BO0sMAVfsb6PjfSYAMKOvkT%2FSWIyX%2BQSf9V%2FeURQLTH9WrDZ%2FggE1X57FWRCsvrtJ%2ByPEMY%2BKRAXAWXedPzshP0p6KU%2F8hX0EDDJYFw4OY3c9pSZYbXfWeJNGP0vMzKfuo8RpERzjywYpLvcMGqXj54ljn4QM0rg%2Bpy3%2FohzndA9FR9Q87W336xbmxxNMoZWHh8MDOC28UEaqx9slykjnJxxkSG4AJlqj%2F78MDDMO25cdFrMV3%2FAFkzHLTb1af%2F%2BBRBLBU91FuGv1HJnhqVUY9YDmfuesMqqX3mf%2Bta0yOFt5tQR8dHXqyMmmAd3m0texAlTDEtTR%2FlkVthpWUv54UvmPTWgFDb5Jxb9jn3xDqVTd6X%2BA3XBdN490Ln31b7%2F1GklrVDq0M2KRgBv%2BeGQCzQI4T89klg9Xxn7LVZWAZmJyp6RSVPsKXOHQUr4P7GjGXOWeTX0lmTQrm1ZGU7UEVzHCpY4GMJKYAUwPntx0yvWLQI43aQ446ficvQIM9A1dHGZ3ceYKxeqS05PyPMd7HfN1X4zEbnRwvIrqTv3ZEMvxw9B8VlSrNcf5%2FOjaQzBDpVE%2Bx7aH37EMy2bzfABv5OJMFGg3zEn7LS1FInRyzSeWBP%2F5dnhRpN3PSHByogh%2F%2BV3hiY7EJS%2F%2BXmQ4bwn2zQB11dcaBOU22bE%2FutCLrN%2BMcMH37FGxq558FSSpv9iCjMt0roFKUFNHAyBmNwNPeQIClp57QF0TPGB1wQLsXwvSG9PIMKQYH8EmaIfnJnS85jinT%2FK54%2Fq5qECSu8haQtImbVC31EcAGGc%2BzV7H4hPML33CvyrebBBK%2B%2BlVJ1jXjzJamqbcnWvxWZTB5lYR%2F34r2zVfJ63TUfW9xxz6Hh1xOUgTWZieww6FeriV9kn77BD28zEcdaxt9J3lDJ2UrZa8B7F7nqlUzdLMbs0EUZvwVz6lrJmEebUEKNGu7Av3WQ%2FKhCFYvWoLNIGG%2B3sCNhFgSViMRObPLL5USEHubKdB5EmMJFIHHR3Rl%2B%2BozR7QXmFi8fRvNRqNjEYjzTN0stRTovztjijoxoiUshscV1ySD5jHvmVo2eMAagizSJQiuP6ZpWmBIFCgDgaKHP7srLEUV%2BaLVBK%2Fz9KPFygGXip3AAAAABJRU5ErkJggg%3D%3D%3B%22%20vertex%3D%221%22%20parent%3D%222%22%3E%3CmxGeometry%20x%3D%22365%22%20y%3D%2225.43%22%20width%3D%2235%22%20height%3D%2235%22%20as%3D%22geometry%22%2F%3E%3C%2FmxCell%3E%3CmxCell%20id%3D%229%22%20value%3D%22%22%20style%3D%22image%3Baspect%3Dfixed%3Bhtml%3D1%3Bpoints%3D%5B%5D%3Balign%3Dcenter%3BfontSize%3D12%3Bimage%3Dimg%2Flib%2Fazure2%2Fdatabases%2FAzure_Database_PostgreSQL_Server.svg%3B%22%20vertex%3D%221%22%20parent%3D%222%22%3E%3CmxGeometry%20x%3D%22275%22%20y%3D%2218.5%22%20width%3D%2236%22%20height%3D%2248%22%20as%3D%22geometry%22%2F%3E%3C%2FmxCell%3E%3CmxCell%20id%3D%2210%22%20value%3D%22%22%20style%3D%22points%3D%5B%5D%3Baspect%3Dfixed%3Bhtml%3D1%3Balign%3Dcenter%3Bshadow%3D0%3Bdashed%3D0%3BfillColor%3D%23FF6A00%3BstrokeColor%3Dnone%3Bshape%3Dmxgraph.alibaba_cloud.prometheus%3B%22%20vertex%3D%221%22%20parent%3D%222%22%3E%3CmxGeometry%20x%3D%22155%22%20y%3D%2215.55%22%20width%3D%2248.9%22%20height%3D%2248.9%22%20as%3D%22geometry%22%2F%3E%3C%2FmxCell%3E%3CmxCell%20id%3D%2211%22%20value%3D%22%22%20style%3D%22image%3Baspect%3Dfixed%3Bhtml%3D1%3Bpoints%3D%5B%5D%3Balign%3Dcenter%3BfontSize%3D12%3Bimage%3Dimg%2Flib%2Fazure2%2Fother%2FGrafana.svg%3B%22%20vertex%3D%221%22%20parent%3D%222%22%3E%3CmxGeometry%20x%3D%2245%22%20y%3D%2218.5%22%20width%3D%2254%22%20height%3D%2241.93%22%20as%3D%22geometry%22%2F%3E%3C%2FmxCell%3E%3C%2Froot%3E%3C%2FmxGraphModel%3E&lt;/span&gt;" style="rounded=1;whiteSpace=wrap;html=1;align=center;verticalAlign=bottom;" vertex="1" parent="2IJK8Kk_YS6RuWI4rXo5-30">
          <mxGeometry width="120" height="66" as="geometry" />
        </mxCell>
        <mxCell id="2IJK8Kk_YS6RuWI4rXo5-69" value="" style="aspect=fixed;sketch=0;html=1;dashed=0;whitespace=wrap;verticalLabelPosition=bottom;verticalAlign=top;fillColor=#2875E2;strokeColor=#ffffff;points=[[0.005,0.63,0],[0.1,0.2,0],[0.9,0.2,0],[0.5,0,0],[0.995,0.63,0],[0.72,0.99,0],[0.5,1,0],[0.28,0.99,0]];shape=mxgraph.kubernetes.icon2;kubernetesLabel=1;prIcon=node" vertex="1" parent="2IJK8Kk_YS6RuWI4rXo5-30">
          <mxGeometry x="30" y="12.5" width="42.71" height="41" as="geometry" />
        </mxCell>
        <mxCell id="2IJK8Kk_YS6RuWI4rXo5-83" value="" style="group" vertex="1" connectable="0" parent="1">
          <mxGeometry x="550" y="23.57" width="120" height="66" as="geometry" />
        </mxCell>
        <mxCell id="2IJK8Kk_YS6RuWI4rXo5-84" value="" style="rounded=0;orthogonalLoop=1;jettySize=auto;html=1;strokeColor=#999999;flowAnimation=1;" edge="1" parent="2IJK8Kk_YS6RuWI4rXo5-83">
          <mxGeometry relative="1" as="geometry">
            <mxPoint x="53.8673289119289" y="29.930232558139778" as="sourcePoint" />
            <mxPoint x="118.29545454545455" y="60.627906976744185" as="targetPoint" />
          </mxGeometry>
        </mxCell>
        <mxCell id="2IJK8Kk_YS6RuWI4rXo5-85" value="&#xa;&#xa;&#xa;&#xa;&#xa;video-processor-service" style="group" vertex="1" connectable="0" parent="2IJK8Kk_YS6RuWI4rXo5-83">
          <mxGeometry width="120" height="66" as="geometry" />
        </mxCell>
        <mxCell id="2IJK8Kk_YS6RuWI4rXo5-86" value="&lt;span style=&quot;color: rgba(0, 0, 0, 0); font-family: monospace; font-size: 0px; text-align: start; text-wrap-mode: nowrap;&quot;&gt;%3CmxGraphModel%3E%3Croot%3E%3CmxCell%20id%3D%220%22%2F%3E%3CmxCell%20id%3D%221%22%20parent%3D%220%22%2F%3E%3CmxCell%20id%3D%222%22%20value%3D%22%22%20style%3D%22group%22%20vertex%3D%221%22%20connectable%3D%220%22%20parent%3D%221%22%3E%3CmxGeometry%20x%3D%2265%22%20y%3D%221320%22%20width%3D%22710%22%20height%3D%2285%22%20as%3D%22geometry%22%2F%3E%3C%2FmxCell%3E%3CmxCell%20id%3D%223%22%20value%3D%22%26lt%3Bdiv%26gt%3B%26lt%3Bstrong%20style%3D%26quot%3Bcolor%3A%20rgb(204%2C%20204%2C%20204)%3B%20font-family%3A%20-apple-system%2C%20%26amp%3Bquot%3Bsystem-ui%26amp%3Bquot%3B%2C%20sans-serif%3B%20font-size%3A%2013px%3B%20text-align%3A%20left%3B%20background-color%3A%20rgb(24%2C%2024%2C%2024)%3B%26quot%3B%26gt%3BVideo-Processor-Service%26lt%3B%2Fstrong%26gt%3B%26lt%3B%2Fdiv%26gt%3B%22%20style%3D%22rounded%3D1%3BwhiteSpace%3Dwrap%3Bhtml%3D1%3BverticalAlign%3Dtop%3B%22%20vertex%3D%221%22%20parent%3D%222%22%3E%3CmxGeometry%20width%3D%22710%22%20height%3D%2280%22%20as%3D%22geometry%22%2F%3E%3C%2FmxCell%3E%3CmxCell%20id%3D%224%22%20value%3D%22%22%20style%3D%22shape%3Dimage%3BverticalLabelPosition%3Dbottom%3BverticalAlign%3Dtop%3BimageAspect%3D0%3Baspect%3Dfixed%3Bimage%3Ddata%3Aimage%2Fpng%2CiVBORw0KGgoAAAANSUhEUgAAANIAAADSCAYAAAA%2FmZ5CAAA10klEQVR42uydC3BUZZbHz%2B3wclAeIyqFDrikH9GZlbFw1kWn1N1ylh21dtZRZ2a31qp13WV2eZqQJ89GBQeEEAJxREWKUlHzfnS6052QAIsBWYZneIaSwXEdXECgu9Od1713%2F9%2Ftxq%2Fpm04I5NGP71T9695%2BJrbnl3O%2B%2F%2Fn6QiJE9EkUqpL5pCr92KUm3efwTUyxtzycUu191mLzzjNXe3Ms1d75OH%2FRUuWdZqr0%2FsBS4hv6yC7V8ESDKpEIESIQuY0SrWiWHtjhH2%2Bqcs%2B0OFrtFmf7mRRnmzfF4e8ARIrF3tKJc1%2BKq%2BOblNqOzyzVvuWWMs8PU97xDHl0lyrdXyCAEpHAMeLlasMtK3aPuy2%2F6bmxG44euC3viHvY640dw5fvkcesPahM2HxGMZZfUgBTUC0yU4qzvQP6k9nm22wq8UyZXNYydFqDaqAmAZSIRIv8UwZpYf3tSa%2FuWp20bNd5WlAvU3adTDl1KmXXqpTlUiUcR1h3qndvOataqjwq2rugNKiUlJo22WL3n4XeNld6HjWVXBxOuVckKtwrgBIR5zFjo0TWhqG0cNu9tKRhCy3d4aZFDTJuq7QAAkgcpgBQhqw69a53TnOQwoFytHamuNrPW2wtH5hKLj%2BWXHxlFBWiQl2%2BLIASEacxa4uBFtdPAUQ2QNRBi7YFIapjCoLEIaJMVKYMp5oEmCZ%2B9LUKcLoECpJRoQCWz2Ou8peay72%2FSC67chs1NUnUrKJKibZPRLzEv5YZaEm9CRC5aOn2TkCkQCotrNODlA0BIk0AiebXqLeu2KuaKt2qGfCEysLPFTMqlMXuk2FYfGuu9G41ll95fFLpxSHE4gNUKREiYjreQ0VYsn06ADqAo8IhCgMJAGnKCoEoPaCk%2BS5WlThE3Us2230KXEDA5d9nLG95yVjivlurTLNUSVjnImIrrJcCCbuo%2Fqdk%2Fe9mVCMFrZ0GkR6kqxAxXVuNmAzznepdG5s5LD1LYYIZwYDyWhwddeaKlheNlS2jARJgapDuOndOACUiyuPlQokWN4ykZTufo2W7DuKcQaTSYsDTFUg53YMkpTrUcRuOM0B6r2rW9rGWr8NvqWnba7H5f2MqvHxnyvvfJv1kr2qYclBUKBHRGMvrJGgYWrl%2FAkR%2FClSibRyicJByQkFyBZQBpQdBSguCtP6oaq7yXq%2F0QFVpFUq2ONp8Fkf7blN5S6q5xHPvjytbkmgPYMoVQImIHosbzlzdOFpan0Wv7vqSljbIACgSSGEmg%2BuaasRBcqjSKwApn4HkiSBv6LEHsbavhQHVbrG3HjZXtWSYK7x3%2F%2BDDK0PofdVgzBdAiRjMsDYwiEbDUMgk604PXDqZwRMuDpLOrdODhGpEqUGQ1nGQ%2BkjM6ZPR7nXCOj9prvAsNxZduf9HW73Dxq2Hy7dRACVioCOD2dvbRmMd9CZmRBe7h6gOEGmKUJGcwfVRCEjz7Bykvpe2hgJMHZaa9v2mcu9rySXue6gAIP1ZzKFEDFR8rkpw5u7BWuhTgMTaOA2iSNLPj2oD4tUI4usjeuUqSE0s6ftbqFCabe5FtVpvKnc%2FPHmrezhr%2BahRACWiP8KKxLIWSgBjMkyFDzVXLjgj6km8IoWCBIWClK6tj4IgVXOQ%2Bl%2BadY5ZVCfavtOA6b3kEs%2FjtI8ZEoUSbWwRw10RfRRLkVCzd6Gd2%2FEAWrkyrIt8HKLegFQL8YrExCsSIEodYJD0QMlo%2B1SLve2SxebLwzrqYWPxpe9RvkcaJXaci7hJU0GiAlcSZkNTMWj9DBDJHKI%2BAInPkDhIczlIgyBFk72VDXfPWar9m01lV35u%2FOjKqL%2FeqkrT0hpFhRLRe4ggzIh2PgaI%2FgcVqZVDdGMgAaIIZsPV1s5%2BbUWqDFWfwRL5%2FSpDgdKGu4qlpuOiucrnMFX4nzSVtoy6lVnm62sFUCKuDyJAMAKGwS%2FYvrmuK1EdUwSA%2BOMcpHDr2xlQehhIrCLlNbGkjgYpkGzRKlS731zd5jKXu6cbS1puf2yHanh4j2j5RHQHkQaS6zm4c2dgLHQACAVSb0h6kKBQkBhE0QeSHig23PXJAOprs81vMxa7fzVpy8WR0%2BDwPfa%2B2HEuIjSmN0pI%2BjswG5qJatQBcYBuGqTasO1BDKQaDlKqDqRolaztlnC2y2j5jsCUeBlbkO4cV9aedNebokKJ2LRJosW1I%2BDMZQOkC7wK6aDAue4Ihd3Wmwx6kDK6AGkOBymKpTBhsCvD4fNgC9J2U7ln%2FuQP3GOnzgBMWQKoxItC2Nu%2FKTfQIlaJtr8Gh%2B4iAFAg9ebFQYLC10h8hgT7m1ckGwcpNnR1P5%2FfVOGtTS52T7%2FzHW%2FSuE2i3Uus%2BH0Vg2g83LkCqLUvIdJXJBd37HQg2WMTJC5WobDrvP0bfMFwprnQP%2BIJq7hAS2KEddsQJLuRFm%2FfjGrkwS5tDlGfg%2BQKAUm3qyHWQeKq8nbiy4UtxjLv3Invnh9KpaLNi3dnjlWiH6GVswOiNl0l6o%2BKpK9GIduDYh8kLgZT%2B0Vjie95UgVI8RsvlbOr%2FNyDDah7AFK7rhL1V0XiIAVhCgepGmYDQFp7RIUbFtuqasFQt%2FWgcas7mexivRRf8W%2BqRAsaRqASPYUkPwyQFF0l6v%2BKxK3vDGg%2Bb%2B04SE0xDxKENVNbh7Gs5feT3nUPIxHxdSF7JPffYefBMQgA1TKp%2FSo9SNdWI4AEiOIRJNbiyZbqjpPGIvcDJCIOwsoAqv8e1kLPQ8c1gKA%2BhCXyY3x%2FXQSQuPVN8%2BKmteNVyebvNBV55pGIGI8XCg0Qu9LPi7Rk51dIehlSILXfxW3vCCA5AiClhYA0uyp%2BQIIs1a2yubK1mETE9rUVkLi306KGTMyIzmC%2F20ABpLO9u69I9m5BMvEjV9hjkWSKdLv39%2FHHuj%2FXmw4VvmYSEcMWd07DSFy0fjnmRG6sjeQBBYgrDCTNseMQMaUF1kc0l7V2VertAAlJGR%2Bq9KqmMo%2BPRMRoJcqpG422ikHkG2yIOEhOgMRnSLwixTFIkLHUo5KIGIsZeQYksBFt3GYYDJ045xANNkhZHKQgRGEg2dDaxSFIZW4BUkzFnDmYEzmTMR%2BqRBXq5KZCNIAUhIivj6AQkOZpIPGKVO6JGxlLBUixEewKP6tXM4v7QVq03Y6dCj4OUZSDlBYGEqtIuQIkEQNvb0vanCin9iGsh%2BoBkRIdEOl3fAOkSNY3JEASMVixpVSipfYkVKJncHGS3VgXtSJxFUjttVji62%2FfvLJ7AskeBlKlAEnEANvb2c5baIHracyJvkQlkjlE0SQOkx4kOwdpngBJxKBc5cc5hHKcv8SOhROoRJ3RC5GTr49CQZofAlJqdQCkOQIkEQM6aHWOxfrjFQDkhWSeuLEAUg0HKc3Oh7HzbFdBEq6diH6ORzcZKLtmFOBZArm1GREqUcyABIiY%2BAxJB1LsVqQyAVKMOHNWCQv2CdjyswIzohYdQLEDUtgaiRsNoSAhMbsVT%2BBeqe%2Fet7yn%2B7iMJQKk6IAIQjs3Dvb223Do%2FByiWAGJr404RHwYy0GqCoC0hoMUWxIgRW%2F8RxnaOccEOHOfAiI31kYxBBGUFRkkVCM9SLMESCL69t9olZCMQ5CIDwKgIkhGYircTo5gMeO85%2BdEUDY%2FRlTOdf5cbnlz6ds6DtK8qyBVAKTDAiQRfRSZ5ahEzslYEzXQgno%2Fg6jr5HayY9SKQ%2FQdSFCY9a1VJAFS91GgSpRXLpHVaaCVriQqLDRQoWqgneLf7Owysm1sPTQS7txTaONOAiQFsDCpMaiuQUoXIPUuchslWnVeonUnR1D%2B0ftp3bGfUd7xZyj36CO09vB42vilQdsndkgApcVUmAqZmwxIvJ%2BjTWoGSDKHKNZB0jt2gCgIki0A0mwBkn5o%2BE5DEsC5l9afepnyTzip4PSXtPHseXr7j9%2FSW19cwH2naN3xtyj38EO0tNFA4p%2FGIFzZ5xZs9flnAASIXLwSxTRINUw6kILDWAFST1fxBEQ%2FATw2Wn%2ByjTacUnCbSf5O608otKFZxuNf4XY6rdo%2FBtVJm5ck5FV%2BWOTUzYWpcA4JyCGKG5A4RHwYG1qRqgIgzRQgYfKONi73xHDKP%2Fa3AOUI1IZzAHSUSe1CGlwArY3ymj6hNYcstPJDA22sTByYXio20EIn262QBoi%2BQSXiAMUVSA6ABHHrm4MUcOyurUilnriRsbg3IOV%2FLtGGAyPQsv0a8Jyg%2FOMcoJ6lBCtUM7158HF6fc9wsu6TEuLaCgtc30c7txhzogtIPBlS40q8GoWAZI8AUmUApNWJCpL1SiDp8479OtiqKZR3lEnthRTAJ1P%2ByWZac2QOrTo0nLZ8JcU1RBmuW2ERr6GFDR7KrpX1i3R%2Brk%2FQsHPd8%2FX36x%2FTv6f%2BvfXP4YoEDz%2FnayMHk96x4zMkCCDNTFSQCu0SrT16B6pJJtZEbg7QjeqYDBhRyU7YaOUfkum1HUOpsTF%2BgEpNlWj2u8yZ%2B0vAU4QZUQfOZUiNQ3GQoCBIULAaQQAptCIpqEgKWjvZVOpVEgekN%2FbCVDg8DO3cQkD0bbASqX0gBTC1w9XbQ6sPTic7YK2oiA%2BYMhokJNi9lOUqp%2Bw6BpHSP0lcM4DA1ES8Xw%2BS3mgIgqTQvGqZZlWcGV9wqt5U7mtPDJA27jPAIJiAVmwlqtE5zTQABH0oBSDJsM8v0JrDv6WFNSPo9Ri3yDdskdDuPAJ724GWzoNEUyA1rsUhigQSAGKy%2B2mu3SnNKJlmLLqUZa7wtyEJlfgGyXrcgCS%2FE%2FAUIdH9SHoOUd9Ks80Bqgfnn9Dq%2FZNojirRP5bFVnWy%2Fl%2FA1s%2BumQp3rolZ2xyihAZJgWS0d21o61bRf5VOMJVcNJjK3BkmgGQESJDKxZNTfx%2BX%2FnmRZWLq%2Ff1cER4zdgvStBckWrl%2FOJJ6CtYypWjp2ng7169i6yYZ8O5Aq%2FcIvk6QxOZVsWFvF7JWbiSq0D%2FAmWsMQqQmjDIdkaxvBUc%2FpTmO05yK39KMorH07%2B8aJrpaDMYyT7oOpBhW8jUg5Qb2xsFYeBDbfKqhyM7cWn4MSHf%2F9Ym%2FH6S1egoq4NeA6T%2FpjX2j6emz0Q3TG3USvWobCoiewZ65UzjKLLkSGyQ75FBofk0nIGqgWWV%2FQ09tMGguJqnSxHLVYCwFSOUAqcSjQCrEE7OEH8Me093WP4%2Bf6%2B%2FX%2Fwy9unttpN%2BFg8Qn72ubfkgbTn9Ga1GFkNiQOsACuJpFfgnnebTywBh6L0o3v87YaMDsZCiS6XlUojNYEzGIlMQFya65dQBJocy6VrR0n6ISmcl6SNK%2BMoKIBFKsK7kopCIBoJ%2FR%2BtPHKI9DNHhi24w0i3wvrTr4EOWdGEovqFKUXSprDOW45mDbjxsQdXadZNeTiP2R3AP0ukyIVyOF0lGFMlzH0dLNpaffSsLeQm4exT1IFaqEKjCFCr7Yh8SVOUSDLgZSB363P2oDXBbWPYPv6hUUSKhEY5BEVgB0UZsRIaESUtxkQCWuk%2FG57IJL9ySlOYfT7A0SIRIHpLXHxuOv%2F8dIWB%2BHKJp0jK2bfDhfTMs%2FH4sB7uDB9KQqUabzDsyI3oI8SKSEhghSAp%2BB6wI%2Bl48ptWISWruhxCOhQHpeW5Ngx0HUQcSl4Hf0U%2B5RF60%2B9FfamukjaCAvUJKWyyrRBOxUyA9O9JWEh4itC7Nrv6b51emA6A6am69dyOX6QXIHQXJHCRTu8Nu9AGl98%2FuwuTujFiIumTmJ%2BH3PYoD7K%2FrdH4aRdQAGuKlIjH8pMSBhjIDoYyTPpa4hcvScfD0%2F%2Fybfw9GnPyvy67TdGj7s3NiNtu7vKc12K1ntHKDrAsmngQSpfSgOwMAJIF1RCcnZDA1OS5d7I89F5cw%2F5aY1TW%2FA1RtHdu7q9YupkF%2BRBEfqPoBkgwCQg0mNU3GAIimrhlUhH84%2FAkBGWrUKnz%2BvQoMNEjQ4ICFB2yEkahOkHbn4%2FREfg3TPifB%2BkZ7fg%2FTvFbDnj3uxtiui5bv%2FAmBJfTzA5V9gzHKYkDg7oVYOUUJKYcK87DJa3KWUXn03zcUIYMYMiRC9AqkEIJUFQSoOJmQxF09S3X265%2FFz%2FVH%2FeKTbkV%2FDjxFez0Fq6oDU2FNg5gSYztPv9j9LaxqH077%2FlfoMomXVtyBxnoKpsJ%2BtBRIbohrWyrXieAAA%2FfS7r4nwuDGQigMgxbiCIK1Fa4e%2F8LEIE6SwVg9GyTn8d7xOGRUjYZXf3LrpxTcDlSjd%2FiyS5wsIs5GbgCijP143oO%2BpYFbWjs%2FhE0q3TaWCaunqTE%2BAFArSulOf4q%2B6jKSMVZggNnPSXL0qrJvuoxUeiU7cwP%2FsJ%2FCadOdoLKZfwIDxK7QwMtZHCqBiSZhoUvA5dAKgP%2BNzWIbPYDyG0EkUDAHS%2F7N3JsBRXGce%2F7pBRmBjYjtxCnYra2HH64TCTpw9yrvZbJx4Hdfm2I0T1k628DocAoRmdCEbHGxG94nwEmKismPXOlwaJI1mdAtsYiCEQ%2Bi%2BsMxuUsZkbUwwQjHo6O79v56W32havaPROTPdr%2Bpfr%2Bfo0UB9v%2Fm%2B9%2F9ez4yIl3ZPYOfAVQQhg0kJX7WrpR4yVBtu%2F4C%2B%2FrRABUG4emzB%2FNOGaPRENiJwLiBwZErRIPKTGSBCSSvDlTsLa3sFPeu%2BiR71fjBZIBmBlN96KwKvWivvmJQwlsyyE7Y6XabCtmTKbryN6gBTcYDvh9jSJ1Ci52aAk4qM9B4DCAGkYFZlKpjQYEUWuoZsVIYPlS%2FjOIp2eq1tC6T%2FD6Rv1Ymwkr9Mu873ACYJxzKkjFtFk3o8%2BL9RNK7nSyhZh6iwow579ZayJiEAGTsYVlWIlOBZjJ3K2bSpoY%2BSqmRIoWQG0ohMARJKObXB%2BiH%2Bven4P7jTd0OzBVIgkLQBiL5JO3vfoSIVJiUChOzEvirsncOU3%2FT3lHV8DsWdFke7c9tFSqqYRwlVhdgf1q9ezZlYqWBWvDBBKaYAiq2HWCmHdWH9arLVRFNirUjasEAaL0jqFzdWCiiLluOT%2FARmBGKnHBFA7egaphfPfYwSNp1dlgF4hE96RHHuZWSvclJizQDZ3DIyk0IJDCQIIDGNLzuFA1A1BgDVychC%2FVgXVlJS9f2fbInCsEAaJ0hO34xUXCzQNgTY9q4HYSWfgBhIcoRkJmZCXIep8l%2FYWnSXCtJ69xKA9CbZqgYp3i0DJEWVXYMJQmaCRoCqBlBMBmun1LCTzEBCj6wP2SgPWXkxPXuIryenG6RygHSwT4aUT1TKZgPxxyeu0vG%2BRjDP4yDx8dC7Au12iVTYfjcyUjmCbwiBGDGlHkAawL%2BrjZ576ylaV14DkIZoQ4VMcRUKbYTix4IJ0sEU9kCxBusQslEnYHqakioXIAuJNO0DIP0MIB3UgRTG4iDpx%2B4WkfI776Ci7gMIvsGIggmZFmXeMG15S6L1LpnWlyu0waVKA4rDBPnBZAAUtMlPAcEKArxNUw1RA1MtpXgeotSquSPbqyyQpg4kPjyKCNfr0yiLirFuuoFPcg5TJAC1HevA54%2Bp8PjDxLPTKJj0QCXz9ZNOHKaQEbLPENZCf8TxLrzvv6BVTnHEzbRAmh6Q%2BNfu7mqdB5i20X%2F2Xh0FUyFXKMJi%2FL783ndWI2BBkK1jMEEqTC4GE8RgGgOoJFUcJkOgQgYmGQAxV66HkittlOhe5PurIBZI0wcSH69eFqmg61Y4Xy8ApmsIQBlSIkq5zQi2wwrFliE7%2BcKky04QWzt5eIbi2UlTyMEkwUxgILVh29M%2F0tbyuSMNVgukmQGJj3%2BvEdW5sPMpwHQFc4TB1O6dn%2F8NQHJp2ckF6WDisnOYQjQ7yQBHhhP3AeZf4H0uJkeBMJKJLJBmFiQ%2BGhSBChvnw4BYSTvOvcf6TBPLTu1BPx%2BaAZCgAijjNDJOjUF2co929iCenZg0kAyBmtFSToIuQhvx3m7zvezBAml2QOLjZK%2Bg7qwu6voqQLqAWUYAMikRpbwWQFCn0NpSb3YCUDAhoNEwQRwmbkjMcqmnbvXpRzl3klKqvkYbPNG0mW%2FzCQmQnNc23TMCktM%2FKMcRvE4%2BGwf3ZMAI8vklACnoYdsjUEGLiPLuO2jedgCm4YiEKb9VoZ8eVdBnAkw8O0FaqVfhAxPkA5OxXW4EVLWB%2BOOBxbJQDctC11HOvYy%2FtUzNQj%2FO4RCFCEh3M5DKPh5AwMqQEu5aGiRIekcvv%2B0egHQKGhwFU0EEAcVKvfhKVupp2cnlU%2B5BvkAl6Eq9cZoRwUp3HiCqHUCD9QLuT8HfWaxu89H6QxZIoQ2SAInYv7aYdvTUY%2B00AIBkSJlWFU7m3Amen90EABr4uonDxPtOhqVe1dhApfhuitVmvTg0xo%2BPmApHKKXyUUr1RKlXsWrDAim0QeIwvfTuHGSm%2B5CVXABK5jBFmHKxbtr8a5aVtFJPhUqDyafcM1438f4TAOLiQE1AEtZDQyjrXJRc8yXv9%2B%2FVqRBZIIUPSHy8xhy9zgXISrvh6F3nMEWgMhsBDSCJLQVIuiaubs8eh0nXzJ0MULJmKryL19pICeUL6VdlImnDAik8QeKXYhS03U5FPemapRy5MGUBpuR6zdUr40CNgmmMci9RVSCgAkMEaxsgtSIT%2FRs9ViuS3dvns0AKb5D42Pt7ZKZz0QCpCBlKwixFLEx5rSj1jnhBiuVAGWcnDtQYMEEBYZIBDrsA7ypmJ7b6PEg2XJSoDQukyACJj6IOAdbx7ZTfngh7%2FEMGU0SXettOeF09np30RkS8Kg6UHibj7MRLOQl6n1Lrt5HNtZDWV4rclQtjkEqmOLBLmAzvhwKca3S7xPi%2BpQcA0rQMxwWRsn8XhUD7IUq9i8hOw4aBmM9kcD%2BfjZWvv82lf53A54%2FvtfltzdVLqOEwaU1cP5tcD5OqQGsntZS7AYDOwlD4ISXVLiRHMf%2By%2BnAEqQQglQKkEg2ksNb0gcTXTPndcym%2FYwUVvf0OFQAmBF3EKq9NwTVOqkUO6ddOepggj4EhwSGCJEBUQonu5SghR2UhC6TIB4nb45ktUchID1PRufOYGUxy5AIFmLYe9%2FaZYnl24kBB8byJa7RnT4MJpVzDnzDvxGOfUTebrnxdhcgCyTwg8eFEZtoJ5bXH0I7eN5CZ5MiGCcpuBgy1aqnHsxNklJ2YOEyy%2Bm1GKXUtyFo%2Folg0WFNdImnDAsmcIPEyjym%2FbSlt7zlmCphy0MB95k2A5OvqGZR7HCaJkmsHUerVA6K%2FVrPQ6lcEwrBAskDiI9sJmDqWUWG3R4NJivB1E7%2FGae1BwGS4dpLJ5pEpoeoiICrA%2FUsoyX0TPfCACpEFkgWSfmyoFwDREgTaHqyZhgBWZK%2BZ2Jx%2BxuvqrXHy7MRLPUBUKaHfdB5W%2BWpaty%2BaHNyRs0CyQDIeOYqIvWuLEGSvsM2umCUWdIbKY%2FN0q30aX09r4CbVezMTYNI2wMoU575OG91v0PrSvyV7%2BQL6%2FEkVIgukMAJp%2F2yAxB09BtNC9GMy4Oj1AxYJUkJLHOQpUS67xumY18lbWyaj5LuCXtNuij14F8VV8cseIh2kAwDpIEA60CdDyqRVwubZEgdpdmEq6LgNa6YtMCH6KLdNZgEX8Uo7LZO99gNadWAN%2FWT%2FIlre9kmD1QJpIjI7SI%2FvFGm183aKdSVT6puX8YltCpAgGR8el%2FDBsY62nVxAu05ZIFkgTSIbxWPP2DpXFm1wX8W6AQ3Iw2oPxhQwwWRBNr5C%2BZ27KKtpsVXaWSBNbMdDnOtzWB%2FswGL7Q6wZJICkulpwt9QejHkyUxfUfZoymu5XP1z%2B9YpggWSBFHg8WSGid7IEVm8xdkcPwQKWYAVrTtZBwAQxmDIazQSThAzVQdmta%2BHuzSdHh2CBZIE09mBd%2BkONAtkr%2FwrNxwr0Ta6pPZQN2l40BtM6Daa1yEzxHoUyzxq4X4Fv8zl48fNm8HXy21lmuo7n%2FIzSTy0hx1GR%2FTqIBZIFEh%2BOi4IKUkLFMkqsPg6QZNbNV7v6cZoYTOv8YIpzM4eLBaBZJFFhzzDmBqwV%2F4aOHxfo5XbBAskCiVQ3yo4mY2LFF2lTfR0lACJbBUDSLnrTYBozM62BNuA5204hyNrNAhOcS3YhZE8rMvK%2F0LYjcyn1uBhxIDlDFKT9oQjSs7kwFZxzKan6YagHu5olso38Ot7IlaOuUTBBHKa1DCZNz58wB0gcJom2n7uBddNrMCI%2BQz9WBPolFAkg7feChKCVISXctXQfQJpWZ25TyU2U6H6cUup6VYjsHhlSL2obBdPGEZjKDWByesu%2BLUdNBBMEmCBW7jkp48xyymmOiAv7liIj3e0H0lIudls%2F82Mu48f0t7n09xmfw49nBSS26TKleiElVT1FyTUXMA9RogaRKrcBTOWAiakMMEHaF4toMEE43vyWqWCCUObB1Svo7qXMpu9RbtM8KtwtRAJICE4ZUsJdMdMC0neKAZHrFkqsTEY5dwkQSYBIUZXAFSgzQRpMpSMwcaBS32CN2%2BkJ3JxZhCbHGCbY48hOHX2U1%2BUgx5k7ydEtWiBFKkgVFXDmXIsATx70PmDSIOLSgQQBJP81E4dpvQFMKYcAUwsLvuCVO77n8DlElNsuwYS4gbmKMprvpdcUkd57T7BAiiSQHC8KlOReQptq0wERg0aGFL3cAEmT3U86mHzXS5AvTKtL8Bq1CsqdAAHYOsHAbWWafXj07wXN2y4JMPVSVusTFLtDpJ01ogVSJID09BFA5Fmg%2FshvSs0VQ4g4TGMDZQsEU6nfmgmyAdqsZhZoZpIMkGSYEB9SZrONMk4vIKdHtEAKV5CcMBVynXMBx30AyEUptbIOoqBg4iUepIGkSQ8T5GSZiTduEWQmE8tOw8hSh9Bzupe%2B%2FVJYfIn%2B0v0WSKPtbZQUKOc%2BD4jq4c4NBIDIqMzTZv%2F1kssnKxlnJlWrfXdBmA4mrYHb3UiZjY9S2m%2BjqF4RQh6kEoC0r0%2BGlElJtZ9nVzF7AdKEIUqtjgIAD2E9dAQQDcFYCAIibjzoyzsDmPRrJg0onzVTbLm3cZtjQphy2dqp839R6iVQVst8WlkumAAkKFxBwk8pAiQRwf8IIGqHxT0MIGRImYi42WAMk9ZjgrgtDpj024lUmHDf1t%2BYECYIMCE7XUe59wqlN8Z4f%2FqyTQg9kPr8QLqqih8Hqz6m8T6uO4aCPg%2BaBEjLPoC9XR2NXQr%2FjAx0DpJ0EE01TPF%2B5gPEYSqFfA0Ircxj83PHvMGVzYXbuvt0j%2FPn6GauwK%2Bp%2F9t81t%2Bnk%2BFz%2BW3D%2B9Fz6pYop%2F08pTU%2BRMknBHbpSmiBdBUg%2FQkgXZUhJcwVJEgNDWi0ls1HGbcSIPVSQqWsg2iqgbIZOnl89wO%2Flom7eas1pb7JgsuMkgGSBP2BstvjadORKJadQguk%2FggC6aNxgvTkfpFNyEDY8lP7B0A0ToDck4PJuGELqVmJl3f88gsNphKvnvm1gjUDk%2BmAAkjITj0fod9UTI6zi%2BlUr3o5iwXSbID0%2BuusR7SYkqu3wd7uBxwypBiIAzQp%2BYNkCBPf%2FQBxmEaAAkirDrDGLQfJfMK6qVOGRd5OWW0P03Mn59DOt0ULpJkEyeEWKb4umpIqs1DSXQUkEgvyGZG9YrRsvtI3bPXWuHMEJr4LIqPJpDBpDdy87rcpo2UtZbTdQi%2B9JFggzQRIscXMmfscnLkiQPS%2BDqJZg8mlioOkSoOpTA%2FTGp%2FMFF%2BlwB72BhZkvlIPrl5uxyBlt71OmS3Y%2BNrAL8uYSZD2AaQDAGkvBwnHkPExvy%2FAY1wBz%2BXPM575ucaPxewxAon9rGKi%2B7Po9XgA0iCCmkMUAjABIk3%2Bu8V9y7wyXuZxmNgXM0pws4axfpg6mLKYQgCUrBEFyk6dyE5dbkpv%2Fjt64UwUg2lGQdrLQYKUcJcepK9gJ%2FF6TzSyz4NYm7hhLgziWJ4cCFOyXtKVdzpLnPeYdJlJA0pGw3aAVpWcQJn3FALqKOV0DCPoJEgXhAb3hYkCv1%2FAJMHRu4Rd5P9B6U03k%2BOwaIE0FSAVFQm07YgAR%2B4rsLcPAyIZAcykhIg4RIb9Jf%2BGrermychOEoD6I5q1r9HKPXfRCqeI8uYOZKU3EFCDHCZTSVaV143L2TsKyHF6CeU3ixZIkwFpxBJNcC%2BnpJrfIgvpIApJmHhmgvQwQTKOh2mDqx9ZaTOt2v8pSnEI9H04kc8dnYPm5TLAVEW5XUNaYCmmU3YbK%2FX6cVwDi%2FyLdEIR2GZkC6RgQVrhVHsLMBQeQ4%2BoV4XIxiEKO5h4mQeIXDLFVx6i9c5HcN9c%2BsZhQfe1yY6mmxBMuZTX04%2FZlDBBMso8ANWNUq8ljrY0zqMXFdECKRiQ1igC4PkStt%2B3oKyTeMCGC0j6NROOJbJ5BmhjRRlKvBj1w2ILIBpr%2FPKSCDv4VnwqA6bua%2Bg3yZBiQgEmtlev6yOsmzJgRNxJDd6fLLVAGg9INvefYU3kRIBen3g5V6Fq4ufqbwfWmDDJqhKq38G8leJK%2F5y%2BVSdSoJGtCLCDb8an8jMA6mMTwwS1sq1FUEcD3M17yHFqDhUfEiyQAoGU4P4RjIU%2BBKYMKWEnDhQAqhwiu6eF4t3fU7PQMw1iUL%2B%2BnnM6Gn2WjQiiy2q5A6AAmBJYPBB1twOcwxX4PH7%2F5KV%2FLb%2FslNshwYQ4h8z0BGWdupl2nhSmDKQ9AGm%2FD0h7Zkh7mXS3A5wT%2BLyYXwEkrI1eBUhSuEIEyUzIqmznxQFkovtpjWseTWR8vVmgzb8XEEiPYTvNFcAksQAzrbJaGUx9lNmeRmnNC1Eei1MJEmYZUsJYHCQE339DcthChA8BiG2kTad456cpBaXcZMb3twjkeFdEID2OUu93EINJNjFQMlzNQcps88DVW0Y%2FR%2BZeoQgWSP4g2dxDrDQKQ2mXcQAim%2Fu7WBfdQn95aWpqebbALjw3H9uJHgFIvRZMqqs3CJ2jtLP%2FQGw4jomTAWnpOEGK8Zu5Jn9ezNSCVBFuIGn2vKefEqtL4Mx9gew1U%2F9rd3g9SESv6bMwII5h3TTAYTJzdsJlGektebT1zCKyu0SKbRSCBSlGAwmzDClhLwYSAvI8c%2BvCBiS7WwJAV3GcAVNhMTn2Tcfvr3KYXr44B9tt7qOcTg9gkk0Pk3fd9DH6TWXkaLyX8lkDFzIxSHcxkBCUeymhSkJghjpMMsQgakVGWkk21%2B0zctVn0gmBfW8fAucOrBXcAMqCCf9%2BmDEy5XSdRUP7a5R2Oop%2B8qpobpBsriexzuhDcEqhDBEAGkD2rMPxV9UtLCuxzWcmh%2BPnrNe0BMGzi%2B0GMIQpwyQwZTCY2Nqx%2FQKlNaUCqFvpxf%2Fh24tMB5LdtRDlUiWCVA7NrORmEF0me9ULOL6bUiqjaMUKgWZj7FWQmVqjAdLLcLEYSBIDx5RK9wrHgKkNc3sFPX%2F6Tso5JJoTpG9kigjYB7DPrhMwTWOJ52LS3RfAlWMN1k6Kd9m9WWGnSLM97CdFBM9tUBo%2BkW%2FA0ZLMChJXs0yZaOCmtZygF87%2Bk%2Bp67oKMQPq%2F9s49OKryDOPvOQmEq0BBBZTds9rWccY%2FdLzU1o62Y2t1tLV1dFrrjB0RsYBSIhASctlNCIhQKyAgl%2BwmGxS8tBCMpUVl6FiQXDbJ5oJCQVBQUTEku5sbSc7ZPt%2FJZr4kh2UNJGT37PfMPHPOnmyMf3w%2F3st3OVsA0lazgRQSBu1d%2BJcfMDGQdgSH2CoAYnNEJYDoJ%2FR00Ui6ZpFEQy%2FehMitHAOInqVlB%2F24dsY5SEHKBkw57B%2BVuhOAaQalVSZS7j75fCDhqsHBWLdS2HMbBYxBy16WvD%2B0AFSDg%2Bf0s8ZnA%2FFdmK31YxCdQER6CV25cTR9H%2B%2FKRZNmemTK9CRgUD2MlvBxBlOcg9RtRKePOyiz8g1KK7tO322NfW7mB4mf0aAPWAz8mzCY97LUisN0SazPD2Fi9Qv87Rk0d%2Fs4uh%2FLdaJZK70SvfjxMKR4D2ALwqeoFdS4B8kB26tUsns7yV7zH0otu50eL5BZhzUeQOJa%2FLaMBoQVA3sHIkMHrupgQxSaZG2H34V%2FAZAv463tKBebQymEl3h%2FhshUx1YB4F6LN5A4RHBWZRARSaNMAJVV9zktKktGdEIqXClf%2FUpLPIDEN7xhcE%2FCoHbT3OJWpHqDBVNo28M7rP2eR7OLpuhnVafE2Nu7UVzDDKYbaGldWTdM%2BgBbAueE8RJmL2z4XkTz%2F%2FZF%2Bfx%2Fe4nReG6MQhwiDlKGbo0yAFN61VlKq3qR5pdfdeXLjQykhWYHiWt2fgIG%2BDgM9LU0b9dgwMSikMpWVuDvPIkNeVcxgPWzqmNRbBPcMji76iakevsAEwOJOWhSRwYpvaLLaR6V0rwapXpLpOT9NyruhtR4AIkr9T0ZxWISolMamhBnBhAmDQC1wAfome2%2F1IvRx7dLZAY5vmIwWTDQdqJm6uAwmR0kQ2oHmADRYh2kIC3yACREp5SKb65Yc3Kv7bWmdj4YzQ4SxE7cQQNiNKJGKiJTgOZcbAOiiEWhILwV5yrYaP4%2FE2nBbonMpDllCZjtVzB5%2BxZSPQaTamKIYEDjCNkO6yBV9AYphblcowUebcLK470jUSFs%2BMyvYX7GvSXS9%2FoBRmE%2FflbYD5B6njIEoB5FzVQPGHhHr39RSMXvHwaMyfAYmvWOmQAy1pkZ5WNRT7yEZUWtqIXMCpMRJEDEQfKEIlJ5kBbCC8qCE1Z%2Bwgahaay4G%2Fv5Wpc5O0cAhkdQ25zQYZqznTl4fu9g1pcfAaJawHgHzStKMkBkUpgw4L6Hw1WW0vMf%2B3Gvmhoke8hZIYjSQxClhkBKESB16UePSawGAES3wsdwUo8aASYtdKLPady%2FjvubKaVI5vVQHCivQabMmgSkeU8hzWtgNZM5UztjWsdBKg%2BBVNYF0op4B6nHhjc0Ce5EhCkGJG2IUN3RSe22HrHwHP4cESkV3x%2BPLdwSxaOe%2BEAipty6Z2gp3vOa7dUwAJmDJjBP67LOAdLiXiCJiGTQo1uR6v1jLICZDu8BVKdo3r%2Fq0ZCox%2BqEr%2FGsDhCtxpv17kBTYTRf5hOnOhiUaKq%2BevwhpHqnKSfGYXJw82jUA6T0cBGpVIB0ziYE2xc0680RgOV6nGx6D7Z%2BP4AIdDv9ecdkmrErgRxFElVXSyREdDNASjkkY%2FDdCZCO6Is8AZNpQVrcJyItBEjzS0Vqd06xSDNvlUSZS2Tcd3nRuwm0tlSi2XsFQMZtGEiNy5MwGB8ASEewj4fDZOaIlCJAEhoMpeyTMWlpBUwlqJvaYxkm3rELA9IiAZLQYImdvpN1IBED8oeISm%2FrG%2BNyYgumyKmdsfWtg%2FQCQHL7TGIBUrSsHmc101hEpWJYYzDFamrHlwbFGUgFAqTo2IaxBnZUWQDSRkSnVtxrcPCCnc3cv5%2Fx5%2F2wvdvhQeKrGgRIQpdCy5czmEZSds1S1E3NHKYotZ2bQyRAEoqWfU25FUmUU2On7Go%2FJm7VGIDJCFK6ASSe2j0nQBK6FMqvkpDeTcBAfRZANQOmzp61iPEa%2Fpnh9wzPjFc4wu%2Fz5UARI1Ja34jEQVLcPnNYgMQVnQerVCZi4N4HqD5D7dLJAYkS27l5x67CuH0i1QjSeAGS0CU98iuzZDgG7c8B0wm2CiJ6QapgEHGQutbYcZBSBEhCQ6mNX0i0rk7GYL2Pcg8e7krzKrWoBIlHo%2FAgzRcgCQ2V2FnaM9%2BWMXhvA0z7AJOmw4QBHAXmKR2zcfsEzBsNvUAq8JnEAqTY0awaiTYGJQBkA0x7ABMbxNrQA2SsjThIzN0glXW3vgFSiflAyhcgxZZS9Ynba8nh3QmrGNBqNIFkTO30Vd9GkJYfFSAJDbFmumXUJNei7fwG5po4TNEE0mIBklCMnAWBQTsaAziLcmpbGEzRk9p5QqldGJCSBUhC0QaTwzOKcrxLaUmdHxFqiGAKXyPxDX1mBsnPrk0kFOMw5XqT0HyYQ7kfNbDIFBUgLTZs6AvNIZkPJNuWJk1xB2pJKMa1Bu3xFXC290%2BUc%2FBzsns1vaOHAX7p3B2JjNsnwoPUaArbXm1Rba%2B2biMhE2g%2BJm4hNB9%2BTzl1pyirCiANMkyZPc1B4icHRYhI%2BY0D74IwnwfLBT4NqV2r4m6aTUImUbDrNf2A6B5EpU9hDtMlBIlHpL6HnhhAinkDJNW2pa3G5vLdQkIm0nQGkmcE2QFTVuUxclSrgwdTBJDSTA%2BSZits7kBEWqvk%2BceQkAn15E6ZHOWTEZU%2BpOzaTgbTkEWklD4gzQNIz8c8SKzBoNncTV6r0%2FcD2hoUp2WZUPyNGPaKGxCVdgGmjoGBqSIMTOGaDSYFqcDfiQZDvVLQ9DAJxUl73O65nBze1zFxexYgaHDwImxYpBqyYXu58dATONkEILkDqItavwRMaRZXwwR6U0Sj%2BNjT9MpJBtNYyq5ZT44aPwa9BgcHxBk97TGsseu9xTzmQVIVt1%2Bzvdr2tZIfWGDd1DqCHFUyCcWRniiSMdhHI81bhrqpBemYNuAgpfcBSW80lHWf983SulgDibe43T4VAPkVV%2BP7tsKW%2ByxO3zhyi0gUn3I6JcrwjqAs7yKyVw8ATMZoxOeQwoFUApAOAKQj0d9MyPexZgJrKjTbXmv7QMlvSLNt8k%2BgmQDIISCKb%2F3KJ1Fa6ThANBPzTaiZKtWBS%2Bv6pnYRQHI1nt%2F57DokVm0FAQ11UAdAqlIKAk%2FhmW2Ku3k4rQRAyQIioe66yXFcBgy%2Fw3zT14hQnbjXBg2khWFBiiYjAvlZBFKRun0FF9mcjX%2BYUhgYQev2SlQYFLWQUJjz8zJKRwCIB1E3HUXdpDKYLhok4z4kI0h%2FAUjLogokNBGakcK1NNncLbsRCX%2Bj5Pkmjn6xPYFKghKt3CIikFCkyPRhIkC4Cd28WsDUecFRKb0PSKl9QJofhSAhAsHtrJWN6%2BvW%2FMD91ryGKyc5P0sgxzYRgYT6CdOqUzJguJWyD%2B5FmqfiXoODkR1mWRAcxSBpzDY9AjXXIwoV4vM9Flf9MPx%2FSbRgv4g%2BQhcoe51ET%2BySAIWFHHV7KKta4zBFAijM%2Brreq745SPOGDCTWhVNRA50FRIhAgZcVl%2F8uLO%2B5Up9QPQI7xEvxhAaiZoJQ60whR21h6Nhh7buCxJsMxmjEd8YOSURi6VvQVqCvRjiKz68om7%2B9S29hQ2JVgtDg6D22erxyEmVWvQEzkNSIIHGIQr54kKzfARJr5AjE4GEg%2BRGBXHj246vdDaNwTqBMPxUACQ225m2TAcN4wLIMaV47ZVSqkaMR8%2FlB4u3vEoB0NGh1Nhrt4vcGu%2FiV2%2FAdTcEcEBoHZ5UtZ0vQPMi1bjh9HTn3SQwgWAAkdKlPKfKMR2culew1AaR6av9BgiOANIDWrC6%2FqhS2qYDokLUgYMez70%2FacHoYPY%2Fos9EjABIaIs0qk1HvJAGiuejo%2BVhk4hCFASmVOQxIyd3NhoEEyYfoA4DcLY1wpdXpz5rmbLje4kQK56iQaYVI4YSiQcs9Mjm8w1AvTUd376QOE17X0tse49YJ5oUcJL5gdcAiEos8GuBpUwpb9wOouZbNDdYbi9tkfRJ1rQBIKNo0u6stDGgeIsdHxxGFGEwah6gnSIbtEzwihWCS9NXfn1wYQC6fBrcDnkY0EEqVgubHFKfvGvwsiZyV8s0eAZBQNMvREIKp%2FBbKrD4CmDTAwxzEM0Ck25DWhZYH9aqRZMA0ceWn%2Fat%2FYCW%2FScOOVB%2Fg%2Bbc178zTSn79FHruw66XCxwSAAnFioqLu1Km9Mp7KdN7GFcdJiNIZcyhrl1pD5BKdCdgg9%2BUl0%2F1I4Xza9aCJoAU%2BACf%2F2jZdHqyPv9TA88tEQAJxahmvicDIiui0h5Kr%2BrsBVMqc2%2BQOEwAKflAcGRmbdCy%2BUyEDpwP9nco7tavrM6Gt9DG%2Fq3F1TiSVgEel1iJLWQWJdfJqJGuAVDvUIa3AyCpRpD4XiRmCVFJRr00efWXXcDkcXhwz6zhXkXqhk5cUwDOt26qf3Da%2BlNjaTcAQv0jViIImU%2BZ%2FgQAZEFk%2BjvqpnZApPZuNvRO7xJSPHib%2BbGgZdOZEDg9AfIzo4lw9oQ1z%2F8WILobXbiJEzZ%2Bk0gzAM8jAiAhM2vN%2F2S0vCfKGdV%2FlTNr%2FLjXAI%2FaEyAJTkr3Bq9Y%2FQWgaegDkA%2B1TwvcdFJxBjYomxvvner0j9JrMZeARyjeDlaZ%2B195%2FIpjv77shWOHRy072jY8q0YdnlWrjsk9pF3%2BtxPa1PWntW5wYBVmKVxAyW8%2BanUFViubvr3RsuHMhDG5gUQxiSoUv5q1XqK735eu3eafiqgzy%2BJq2m11tx1DpGlSXIFOa55Pg1VA06oUtJ5U3G37AdZyJa%2FhlqvXHU%2BkfYBnnQBISIjoESwILT4sWV%2F6SFbcgUnovN0GWB4CQMmYNE1TnI0L4cfx7E7UP9OmbTg1jFYdkM2yDu7%2F%2B4keC136S3IAAAAASUVORK5CYII%3D%22%20vertex%3D%221%22%20parent%3D%222%22%3E%3CmxGeometry%20x%3D%22644.9978324468085%22%20y%3D%2227.152558139534886%22%20width%3D%2230.697674418604652%22%20height%3D%2230.697674418604652%22%20as%3D%22geometry%22%2F%3E%3C%2FmxCell%3E%3CmxCell%20id%3D%225%22%20value%3D%22%22%20style%3D%22shape%3Dimage%3BverticalLabelPosition%3Dbottom%3BverticalAlign%3Dtop%3BimageAspect%3D0%3Baspect%3Dfixed%3Bimage%3Ddata%3Aimage%2Fsvg%2Bxml%2CPHN2ZyB4bWxucz0iaHR0cDovL3d3dy53My5vcmcvMjAwMC9zdmciIHdpZHRoPSIyNDkwLjgwMSIgaGVpZ2h0PSIxNDE0LjI1OCIgdmlld0JveD0iMCAwIDI1NS4wNTggMTQ0Ljc5MyI%2BJiN4YTsgICAgPGcgZmlsbD0ibm9uZSIgZmlsbC1ydWxlPSJldmVub2RkIj4mI3hhOyAgICAgICAgPHBhdGggZD0iTTE0Ny40ODggNDUuNzEyaDIyLjg2NnYyMy4zNzVoMTEuNTYxYzUuMzQgMCAxMC44MzEtLjk1MSAxNS44ODctMi42NjQgMi40ODUtLjg0MyA1LjI3My0yLjAxNSA3LjcyNC0zLjQ5LTMuMjI4LTQuMjE0LTQuODc2LTkuNTM1LTUuMzYtMTQuNzgtLjY2LTcuMTM1Ljc4LTE2LjQyMSA1LjYwOC0yMi4wMDVsMi40MDQtMi43OCAyLjg2NCAyLjMwM2M3LjIxMSA1Ljc5MyAxMy4yNzYgMTMuODg5IDE0LjM0NSAyMy4xMTggOC42ODMtMi41NTQgMTguODc4LTEuOTUgMjYuNTMxIDIuNDY3bDMuMTQgMS44MTItMS42NTIgMy4yMjZDMjQ2LjkzMyA2OC45MjYgMjMzLjQgNzIuODQgMjIwLjE3IDcyLjE0N2MtMTkuNzk3IDQ5LjMwOS02Mi44OTggNzIuNjUzLTExNS4xNTcgNzIuNjUzLTI3IDAtNTEuNzctMTAuMDkzLTY1Ljg3Ni0zNC4wNDdsLS4yMzEtLjM5LTIuMDU1LTQuMTgyYy00Ljc2OC0xMC41NDQtNi4zNTItMjIuMDk1LTUuMjc4LTMzLjYzN2wuMzIzLTMuNDU3SDUxLjQ1VjQ1LjcxMmgyMi44NjVWMjIuODQ2aDQ1LjczM1YtLjAyaDI3LjQ0djQ1LjczMiIgZmlsbD0iIzM2NDU0OCIvPiYjeGE7ICAgICAgICA8cGF0aCBkPSJNMjIxLjU3IDU0LjM2YzEuNTMzLTExLjkxNi03LjM4NC0yMS4yNzUtMTIuOTE0LTI1LjcxOS02LjM3MyA3LjM2OC03LjM2MyAyNi42NzggMi42MzUgMzQuODA4LTUuNTggNC45NTYtMTcuMzM3IDkuNDQ4LTI5LjM3NiA5LjQ0OEgzNS4zN2MtMS4xNyAxMi41NjcgMS4wMzYgMjQuMTQgNi4wNzUgMzQuMDQ1bDEuNjY3IDMuMDVhNTYuNTM2IDU2LjUzNiAwIDAwMy40NTUgNS4xODRjNi4wMjUuMzg3IDExLjU4LjUyIDE2LjY2Mi40MDhoLjAwMmM5Ljk4Ny0uMjIgMTguMTM2LTEuNCAyNC4zMTItMy41NGExLjc2MSAxLjc2MSAwIDAxMS4xNTMgMy4zMjZjLS44MjIuMjg2LTEuNjc4LjU1Mi0yLjU2Mi44MDVoLS4wMDNjLTQuODYzIDEuMzg5LTEwLjA3OCAyLjMyMy0xNi44MDYgMi43MzguNC4wMDctLjQxNi4wNi0uNDE4LjA2LS4yMjkuMDE1LS41MTcuMDQ4LS43NDcuMDYtMi42NDguMTQ5LTUuNTA2LjE4LTguNDI4LjE4LTMuMTk2IDAtNi4zNDMtLjA2LTkuODYyLS4yNGwtLjA5LjA2YzEyLjIxIDEzLjcyNCAzMS4zMDIgMjEuOTU1IDU1LjIzNCAyMS45NTUgNTAuNjQ4IDAgOTMuNjA4LTIyLjQ1MiAxMTIuNjMyLTcyLjg1NyAxMy40OTYgMS4zODUgMjYuNDY3LTIuMDU3IDMyLjM2Ny0xMy41NzUtOS4zOTgtNS40MjMtMjEuNDg0LTMuNjk0LTI4LjQ0My0uMTk2IiBmaWxsPSIjMjJhMGM4Ii8%2BJiN4YTsgICAgICAgIDxwYXRoIGQ9Ik0yMjEuNTcgNTQuMzZjMS41MzMtMTEuOTE2LTcuMzg0LTIxLjI3NS0xMi45MTQtMjUuNzE5LTYuMzczIDcuMzY4LTcuMzYzIDI2LjY3OCAyLjYzNSAzNC44MDgtNS41OCA0Ljk1Ni0xNy4zMzcgOS40NDgtMjkuMzc2IDkuNDQ4SDQ0LjA0OGMtLjU5OCAxOS4yNDYgNi41NDQgMzMuODU1IDE5LjE4IDQyLjY4N2guMDAzYzkuOTg3LS4yMiAxOC4xMzYtMS40IDI0LjMxMi0zLjU0YTEuNzYxIDEuNzYxIDAgMDExLjE1MyAzLjMyNmMtLjgyMi4yODYtMS42NzguNTUyLTIuNTYyLjgwNWgtLjAwM2MtNC44NjMgMS4zODktMTAuNTI2IDIuNDQzLTE3LjI1NCAyLjg1OC0uMDAyIDAtLjE2My0uMTU1LS4xNjUtLjE1NSAxNy4yMzcgOC44NDIgNDIuMjMgOC44MSA3MC44ODUtMi4xOTcgMzIuMTMtMTIuMzQ0IDYyLjAyOS0zNS44NiA4Mi44OS02Mi43NTctLjMxNC4xNDItLjYyLjI4Ny0uOTE3LjQzNiIgZmlsbD0iIzM3YjFkOSIvPiYjeGE7ICAgICAgICA8cGF0aCBkPSJNMzUuNjQ1IDg4LjE2NmMuOTEgNi43MzIgMi44OCAxMy4wMzUgNS44IDE4Ljc3NmwxLjY2NyAzLjA1YTU2LjQzMiA1Ni40MzIgMCAwMDMuNDU1IDUuMTg0YzYuMDI2LjM4NyAxMS41ODEuNTIgMTYuNjY0LjQwOCA5Ljk4Ny0uMjIgMTguMTM2LTEuNCAyNC4zMTItMy41NGExLjc2MSAxLjc2MSAwIDAxMS4xNTMgMy4zMjZjLS44MjIuMjg2LTEuNjc4LjU1Mi0yLjU2Mi44MDVoLS4wMDNjLTQuODYzIDEuMzg5LTEwLjQ5NiAyLjM4My0xNy4yMjQgMi43OTktLjIzMS4wMTQtLjYzNC4wMTctLjg2Ny4wMy0yLjY0Ni4xNDgtNS40NzUuMjM5LTguMzk4LjIzOS0zLjE5NSAwLTYuNDYzLS4wNjEtOS45OC0uMjQgMTIuMjEgMTMuNzI0IDMxLjQyIDIxLjk4NSA1NS4zNTIgMjEuOTg1IDQzLjM2IDAgODEuMDg0LTE2LjQ1OCAxMDIuOTc5LTUyLjgyMkgzNS42NDUiIGZpbGw9IiMxYjgxYTUiLz4mI3hhOyAgICAgICAgPHBhdGggZD0iTTQ1LjM2NyA4OC4xNjZjMi41OTIgMTEuODIgOC44MjEgMjEuMDk5IDE3Ljg2NCAyNy40MTggOS45ODctLjIyIDE4LjEzNi0xLjQgMjQuMzEyLTMuNTRhMS43NjEgMS43NjEgMCAwMTEuMTUzIDMuMzI2Yy0uODIyLjI4Ni0xLjY3OC41NTItMi41NjIuODA1aC0uMDAzYy00Ljg2MyAxLjM4OS0xMC42MTUgMi4zODMtMTcuMzQ0IDIuNzk5IDE3LjIzNiA4Ljg0IDQyLjE1NyA4LjcxMyA3MC44MS0yLjI5MyAxNy4zMzQtNi42NiAzNC4wMTctMTYuNTc0IDQ4Ljk4NC0yOC41MTVINDUuMzY3IiBmaWxsPSIjMWQ5MWI0Ii8%2BJiN4YTsgICAgICAgIDxwYXRoIGQ9Ik01NS4yNiA0OS41MjNoMTkuODE4djE5LjgxOEg1NS4yNnptMS42NTEgMS42NTJoMS41NjRWNjcuNjloLTEuNTY0em0yLjk0IDBoMS42MjdWNjcuNjloLTEuNjI2VjUxLjE3NXptMy4wMDIgMGgxLjYyN1Y2Ny42OWgtMS42Mjd6bTMuMDA0IDBoMS42MjZWNjcuNjloLTEuNjI2em0zLjAwMyAwaDEuNjI2VjY3LjY5SDY4Ljg2em0zLjAwMiAwaDEuNTY1VjY3LjY5aC0xLjU2NXptNi4yNjQtMjQuNTE4aDE5LjgxOXYxOS44MTdoLTE5LjgyVjI2LjY1N3ptMS42NTIgMS42NTJoMS41NjN2MTYuNTE0aC0xLjU2M3ptMi45NCAwaDEuNjI2djE2LjUxNGgtMS42MjVWMjguMzA5em0zLjAwMiAwaDEuNjI2djE2LjUxNEg4NS43MnptMy4wMDMgMGgxLjYyNnYxNi41MTRoLTEuNjI2em0zLjAwMyAwaDEuNjI3djE2LjUxNGgtMS42Mjd6bTMuMDAyIDBoMS41NjZ2MTYuNTE0aC0xLjU2NnoiIGZpbGw9IiMyM2EzYzIiLz4mI3hhOyAgICAgICAgPHBhdGggZD0iTTc4LjEyNiA0OS41MjNoMTkuODE5djE5LjgxOGgtMTkuODJWNDkuNTIzem0xLjY1MiAxLjY1MmgxLjU2M1Y2Ny42OWgtMS41NjN6bTIuOTQgMGgxLjYyNlY2Ny42OWgtMS42MjVWNTEuMTc1em0zLjAwMiAwaDEuNjI2VjY3LjY5SDg1Ljcyem0zLjAwMyAwaDEuNjI2VjY3LjY5aC0xLjYyNnptMy4wMDMgMGgxLjYyN1Y2Ny42OWgtMS42Mjd6bTMuMDAyIDBoMS41NjZWNjcuNjloLTEuNTY2eiIgZmlsbD0iIzM0YmJkZSIvPiYjeGE7ICAgICAgICA8cGF0aCBkPSJNMTAwLjk5MyA0OS41MjNoMTkuODE4djE5LjgxOGgtMTkuODE4em0xLjY1MSAxLjY1MmgxLjU2M1Y2Ny42OWgtMS41NjN6bTIuOTQgMGgxLjYyNlY2Ny42OWgtMS42MjZ6bTMuMDAzIDBoMS42MjZWNjcuNjloLTEuNjI2em0zLjAwMyAwaDEuNjI2VjY3LjY5aC0xLjYyNnptMy4wMDIgMGgxLjYyOFY2Ny42OWgtMS42Mjh6bTMuMDAzIDBoMS41NjRWNjcuNjloLTEuNTY0eiIgZmlsbD0iIzIzYTNjMiIvPiYjeGE7ICAgICAgICA8cGF0aCBkPSJNMTAwLjk5MyAyNi42NTdoMTkuODE4djE5LjgxN2gtMTkuODE4em0xLjY1MSAxLjY1MmgxLjU2M3YxNi41MTRoLTEuNTYzem0yLjk0IDBoMS42MjZ2MTYuNTE0aC0xLjYyNnptMy4wMDMgMGgxLjYyNnYxNi41MTRoLTEuNjI2em0zLjAwMyAwaDEuNjI2djE2LjUxNGgtMS42MjZ6bTMuMDAyIDBoMS42Mjh2MTYuNTE0aC0xLjYyOHptMy4wMDMgMGgxLjU2NHYxNi41MTRoLTEuNTY0em02LjI2NCAyMS4yMTRoMTkuODE4djE5LjgxOGgtMTkuODE4em0xLjY1MiAxLjY1MmgxLjU2M1Y2Ny42OWgtMS41NjN6bTIuOTQgMGgxLjYyNlY2Ny42OWgtMS42MjZ6bTMuMDAyIDBoMS42MjZWNjcuNjloLTEuNjI2em0zLjAwMyAwaDEuNjI3VjY3LjY5aC0xLjYyN3ptMy4wMDMgMGgxLjYyN1Y2Ny42OWgtMS42Mjd6bTMuMDAzIDBoMS41NjRWNjcuNjloLTEuNTY0eiIgZmlsbD0iIzM0YmJkZSIvPiYjeGE7ICAgICAgICA8cGF0aCBkPSJNMTIzLjg1OSAyNi42NTdoMTkuODE4djE5LjgxN2gtMTkuODE4em0xLjY1MiAxLjY1MmgxLjU2M3YxNi41MTRoLTEuNTYzem0yLjk0IDBoMS42MjZ2MTYuNTE0aC0xLjYyNnptMy4wMDIgMGgxLjYyNnYxNi41MTRoLTEuNjI2em0zLjAwMyAwaDEuNjI3djE2LjUxNGgtMS42Mjd6bTMuMDAzIDBoMS42Mjd2MTYuNTE0aC0xLjYyN3ptMy4wMDMgMGgxLjU2NHYxNi41MTRoLTEuNTY0eiIgZmlsbD0iIzIzYTNjMiIvPiYjeGE7ICAgICAgICA8cGF0aCBkPSJNMTIzLjg1OSAzLjc5aDE5LjgxOHYxOS44MmgtMTkuODE4em0xLjY1MiAxLjY1MWgxLjU2M3YxNi41MTZoLTEuNTYzVjUuNDR6bTIuOTQgMGgxLjYyNnYxNi41MTZoLTEuNjI2VjUuNDR6bTMuMDAyIDBoMS42MjZ2MTYuNTE2aC0xLjYyNlY1LjQ0em0zLjAwMyAwaDEuNjI3djE2LjUxNmgtMS42MjdWNS40NHptMy4wMDMgMGgxLjYyN3YxNi41MTZoLTEuNjI3VjUuNDR6bTMuMDAzIDBoMS41NjR2MTYuNTE2aC0xLjU2NFY1LjQ0eiIgZmlsbD0iIzM0YmJkZSIvPiYjeGE7ICAgICAgICA8cGF0aCBkPSJNMTQ2LjcyNSA0OS41MjNoMTkuODE4djE5LjgxOGgtMTkuODE4em0xLjY1IDEuNjUyaDEuNTY1VjY3LjY5aC0xLjU2NFY1MS4xNzV6bTIuOTQgMGgxLjYyN1Y2Ny42OWgtMS42MjZWNTEuMTc1em0zLjAwNCAwaDEuNjI3VjY3LjY5aC0xLjYyN3ptMy4wMDIgMGgxLjYyN1Y2Ny42OWgtMS42Mjd6bTMuMDA0IDBoMS42MjZWNjcuNjloLTEuNjI2em0zLjAwMiAwaDEuNTY0VjY3LjY5aC0xLjU2NHoiIGZpbGw9IiMyM2EzYzIiLz4mI3hhOyAgICAgICAgPHBhdGggZD0iTTk2LjcwNCAxMDEuNDcyYTUuNDY4IDUuNDY4IDAgMTEtLjAwMiAxMC45MzUgNS40NjggNS40NjggMCAwMS4wMDItMTAuOTM1IiBmaWxsPSIjZDNlY2VjIi8%2BJiN4YTsgICAgICAgIDxwYXRoIGQ9Ik05Ni43MDQgMTAzLjAyM2MuNSAwIC45NzcuMDk0IDEuNDE3LjI2NWExLjU5OCAxLjU5OCAwIDAwLjc5OCAyLjk4Yy42MDUgMCAxLjEzLS4zMzUgMS40MDItLjgzMWEzLjkxNSAzLjkxNSAwIDExLTMuNjE3LTIuNDE0TTAgOTAuMTQyaDI1NC4zMjdjLTUuNTM3LTEuNDA0LTE3LjUyLTMuMzAyLTE1LjU0NC0xMC41Ni0xMC4wNyAxMS42NTItMzQuMzUzIDguMTc1LTQwLjQ4MiAyLjQzLTYuODI0IDkuODk4LTQ2LjU1NCA2LjEzNS00OS4zMjUtMS41NzYtOC41NTYgMTAuMDQxLTM1LjA2NyAxMC4wNDEtNDMuNjIzIDAtMi43NzMgNy43MTEtNDIuNTAyIDExLjQ3NC00OS4zMjcgMS41NzUtNi4xMjggNS43NDYtMzAuNDEgOS4yMjMtNDAuNDgtMi40MjhDMTcuNTIyIDg2Ljg0IDUuNTM5IDg4LjczOCAwIDkwLjE0MyIgZmlsbD0iIzM2NDU0OCIvPiYjeGE7ICAgICAgICA8cGF0aCBkPSJNMTExLjIzNyAxNDAuODdjLTEzLjU0LTYuNDI1LTIwLjk3MS0xNS4xNi0yNS4xMDYtMjQuNjk0LTUuMDMgMS40MzUtMTEuMDc1IDIuMzUzLTE4LjEgMi43NDctMi42NDYuMTQ4LTUuNDMuMjI0LTguMzUuMjI0LTMuMzY4IDAtNi45MTctLjEtMTAuNjQzLS4yOTcgMTIuNDE3IDEyLjQxIDI3LjY5MiAyMS45NjQgNTUuOTc2IDIyLjEzOCAyLjA4OCAwIDQuMTYtLjA0IDYuMjIzLS4xMTgiIGZpbGw9IiNiZGQ5ZDciLz4mI3hhOyAgICAgICAgPHBhdGggZD0iTTkxLjE2IDEyNC45NzRjLTEuODczLTIuNTQzLTMuNjktNS43MzktNS4wMjYtOC44LTUuMDMgMS40MzctMTEuMDc3IDIuMzU1LTE4LjEwMyAyLjc1IDQuODI2IDIuNjE5IDExLjcyNyA1LjA0NiAyMy4xMyA2LjA1IiBmaWxsPSIjZDNlY2VjIi8%2BJiN4YTsgICAgPC9nPiYjeGE7PC9zdmc%2B%3B%22%20vertex%3D%221%22%20parent%3D%222%22%3E%3CmxGeometry%20x%3D%22545.0003501773049%22%20y%3D%2225.430930232558143%22%20width%3D%2263.57488372093024%22%20height%3D%2236.06976744186046%22%20as%3D%22geometry%22%2F%3E%3C%2FmxCell%3E%3CmxCell%20id%3D%226%22%20value%3D%22%22%20style%3D%22shape%3Dimage%3BverticalLabelPosition%3Dbottom%3BverticalAlign%3Dtop%3BimageAspect%3D0%3Baspect%3Dfixed%3Bimage%3Ddata%3Aimage%2Fsvg%2Bxml%2CPHN2ZyB4bWxucz0iaHR0cDovL3d3dy53My5vcmcvMjAwMC9zdmciIHdpZHRoPSIxMDI0IiBoZWlnaHQ9IjEwMjQiIGZpbGw9Im5vbmUiIHZpZXdCb3g9IjAgMCAxMDI0IDEwMjQiPiYjeGE7ICAgIDxwYXRoIGZpbGwtcnVsZT0iZXZlbm9kZCIgY2xpcC1ydWxlPSJldmVub2RkIiBkPSJNNTEyIDBDMjI5LjEyIDAgMCAyMjkuMTIgMCA1MTJjMCAyMjYuNTYgMTQ2LjU2IDQxNy45MiAzNTAuMDggNDg1Ljc2IDI1LjYgNC40OCAzNS4yLTEwLjg4IDM1LjItMjQuMzIgMC0xMi4xNi0uNjQtNTIuNDgtLjY0LTk1LjM2LTEyOC42NCAyMy42OC0xNjEuOTItMzEuMzYtMTcyLjE2LTYwLjE2LTUuNzYtMTQuNzItMzAuNzItNjAuMTYtNTIuNDgtNzIuMzItMTcuOTItOS42LTQzLjUyLTMzLjI4LS42NC0zMy45MiA0MC4zMi0uNjQgNjkuMTIgMzcuMTIgNzguNzIgNTIuNDggNDYuMDggNzcuNDQgMTE5LjY4IDU1LjY4IDE0OS4xMiA0Mi4yNCA0LjQ4LTMzLjI4IDE3LjkyLTU1LjY4IDMyLjY0LTY4LjQ4LTExMy45Mi0xMi44LTIzMi45Ni01Ni45Ni0yMzIuOTYtMjUyLjggMC01NS42OCAxOS44NC0xMDEuNzYgNTIuNDgtMTM3LjYtNS4xMi0xMi44LTIzLjA0LTY1LjI4IDUuMTItMTM1LjY4IDAgMCA0Mi44OC0xMy40NCAxNDAuOCA1Mi40OCA0MC45Ni0xMS41MiA4NC40OC0xNy4yOCAxMjgtMTcuMjggNDMuNTIgMCA4Ny4wNCA1Ljc2IDEyOCAxNy4yOCA5Ny45Mi02Ni41NiAxNDAuOC01Mi40OCAxNDAuOC01Mi40OCAyOC4xNiA3MC40IDEwLjI0IDEyMi44OCA1LjEyIDEzNS42OCAzMi42NCAzNS44NCA1Mi40OCA4MS4yOCA1Mi40OCAxMzcuNiAwIDE5Ni40OC0xMTkuNjggMjQwLTIzMy42IDI1Mi44IDE4LjU2IDE2IDM0LjU2IDQ2LjcyIDM0LjU2IDk0LjcyIDAgNjguNDgtLjY0IDEyMy41Mi0uNjQgMTQwLjggMCAxMy40NCA5LjYgMjkuNDQgMzUuMiAyNC4zMkM4NzcuNDQgOTI5LjkyIDEwMjQgNzM3LjkyIDEwMjQgNTEyIDEwMjQgMjI5LjEyIDc5NC44OCAwIDUxMiAweiIgZmlsbD0iIzFCMUYyMyIvPiYjeGE7PC9zdmc%2B%22%20vertex%3D%221%22%20parent%3D%222%22%3E%3CmxGeometry%20x%3D%2220.77127659574468%22%20y%3D%221.86046511627907%22%20width%3D%2230.697674418604652%22%20height%3D%2230.697674418604652%22%20as%3D%22geometry%22%2F%3E%3C%2FmxCell%3E%3CmxCell%20id%3D%227%22%20value%3D%22%22%20style%3D%22aspect%3Dfixed%3Bsketch%3D0%3Bhtml%3D1%3Bdashed%3D0%3Bwhitespace%3Dwrap%3BverticalLabelPosition%3Dbottom%3BverticalAlign%3Dtop%3BfillColor%3D%232875E2%3BstrokeColor%3D%23ffffff%3Bpoints%3D%5B%5B0.005%2C0.63%2C0%5D%2C%5B0.1%2C0.2%2C0%5D%2C%5B0.9%2C0.2%2C0%5D%2C%5B0.5%2C0%2C0%5D%2C%5B0.995%2C0.63%2C0%5D%2C%5B0.72%2C0.99%2C0%5D%2C%5B0.5%2C1%2C0%5D%2C%5B0.28%2C0.99%2C0%5D%5D%3Bshape%3Dmxgraph.kubernetes.icon2%3BkubernetesLabel%3D1%3BprIcon%3Dnode%22%20vertex%3D%221%22%20parent%3D%222%22%3E%3CmxGeometry%20x%3D%22455.00333333333333%22%20y%3D%2218.93%22%20width%3D%2250%22%20height%3D%2248%22%20as%3D%22geometry%22%2F%3E%3C%2FmxCell%3E%3CmxCell%20id%3D%228%22%20value%3D%22%22%20style%3D%22shape%3Dimage%3BverticalLabelPosition%3Dbottom%3BlabelBackgroundColor%3Ddefault%3BverticalAlign%3Dtop%3Baspect%3Dfixed%3BimageAspect%3D0%3Bimage%3Ddata%3Aimage%2Fpng%2CiVBORw0KGgoAAAANSUhEUgAAAOEAAADhCAIAAACx0UUtAAAAAXNSR0IArs4c6QAAAERlWElmTU0AKgAAAAgAAYdpAAQAAAABAAAAGgAAAAAAA6ABAAMAAAABAAEAAKACAAQAAAABAAAA4aADAAQAAAABAAAA4QAAAAAYn8bHAAAdTUlEQVR4Ae1dC5QU1Zm%2BVdXdDA3MAMNrYHjM8FR5CIpENFEhxo0BEt2NzzxEjVmN0TUxukg0MR7jiie7MbLhrPHFMYLoRhMxZg0CxggKRGEEeTs8hvf7OWB3V9V%2Bt%2B9QVHdX91RP1%2B3pov46fWZu3br3v%2F%2F9%2Fq%2F%2F%2B6zbimmajC5CoIQRUEtYN1KNEOAIEEeJB6WOAHG01C1E%2BhFHiQOljkCoOAqasePmuiXmhn%2BgOK3xZMsK1aNlZnml2u8sdcBYnTEjHm%2BZnLxyhcNhlMX2bTZWLVQP7G2x8qJQffBwNniMVl6Vlw4BT6wUYVyv%2F22W%2BvL32IFGFuFoKwV8L8wEMxuZPmikevsLrM9wqTQNmTEj0o4d2Wm88OPQh7O55m0KZQuU53ImPmxe82MFwulygYB0jupP3ay%2B%2F7zS0YUu7pPEmHGE6T98Tr10sjyaquEw3Kc2tQbEUqLulWs%2BJQTGK6u1Xywlh9o8WPhKS%2FWjxvM%2FVOZN5%2B4n6UG5QjFb2I2C2dOYR5k5Zb45bJwkmqqHt6sPnqOcbHL%2F2RVp0ZMYi1VUR37d0KLMwcokccxkbFzMCdohlZQWWQvGGdTXZ92LtrhgSQ4C4ETN1x5lx%2BQQFAVGWHj%2FttichxzKpqhUBGRydO5vCu%2FApWqbehdhoS3LzfUreaPs%2BYVWfvksb5v4NB0hPLLgkXhRRn5pRfvrViJH1ffnnG7iJaGiMXXlXM9lc9JvWsEOJwc4nku3CTT2MW3LMlsEBR0QkMVRTDY5lOZ1FKYIjL1bvZbK5ZkQq8kQnCKTd1e2rUuJopsMBKRx9ID%2FRwN8XlTypTElYUguw%2FfipXE0WuF7bOT7Ud9DVJQKyOJoUZSnQgKBAHE0EGb2dSWJo742XyCUJ44Gwsy%2BriRx1NfmC4Ty%2FudouG0gDBXgSvqfowE2XkCqThwNiKF9XE3iqI%2BNFxDViaMBMbSPq0kc9bHxAqI6cTQghvZxNYmjPjZeQFQnjgbE0D6uJnHUx8YLiOrE0YAY2sfVJI762HgBUZ04GhBD%2B7iaxFEfGy8gqhNHA2JoH1eTOOpj4wVEdeJoQAzt42oSR31svICoThwNiKF9XE3iqI%2BNFxDViaMBMbSPq0kc9bHxAqI6cTQghvZxNYmjPjZeQFQnjgbE0D6uJnHUx8YLiOrE0YAY2sfVJI762HgBUZ04GhBD%2B7iaxFEfGy8gqhNHA2JoH1eTOOpj4wVEdeJoQAzt42oSR31svICoThwNiKF9XE3iqI%2BNFxDViaMBMbSPq0kc9bHxAqI6cTQghvZxNYmjPjZeQFQnjgbE0D6uJnHUx8YLiOrE0YAY2sfVJI762HgBUZ04GhBD%2B7iaxFEfGy8gqhNHA2JoH1eTOOpj4wVEdeJoQAzt42oSR1vVeDGmVFS2qgY%2BKJw46gMjBVxF%2F3P0UIMaO%2B65Fc2NHyohz6WmC1SijDWsT4%2Bl%2B1QEfM7RCAttXWxurVPD4dR6tfyOi9r6SfjT2SzSciHucxrLXjYlfMfcK1D6KX3O0STAxos%2FgSv1hKYQwr3yzHtZrCi2w3esfrn%2BzrNFKcyvhSimacrQXT%2ByU5ncU%2B0iQ3a6TLORJapHanfPMnsMSX%2BW572ya63xxERtz0beChfnijHzc2ZceZ96zUNKpF1xyvRXKWcCRznisHSC6bVjlYEXm%2B17KEZcjx%2BzLKHFPxdhJd5oRWYGzG3rlBXz1HJWnFbergC%2BZqx9VB80Ue3Y1R5fsmGj%2B0C191Bl8JgifK%2FOFI4KYyYbaJBVXC0Z9BSlD5rCPOgsCi1O7yKl7JbfwPfj0qsGqDf9jzpsXMsFuch5ZnHURYUpiZcIJJsv41u%2F1a643UuxqbLOhDFTao3orogIRBg67urv79C3fiKvVOKoPGyDIpn3qTATIu0ijkqDNjiCI0xdMk%2FeLC9xNDhUklnTdiyxYbGkAoijkoAlsZ4hQBz1DEoSJAkB4qgkYEmsZwgQRz2DkgRJQoA4KglYEusZAsRRz6AkQZIQII5KApbEeoYAcdQzKEmQJASIo5KAJbGeIUAc9QxKEiQJAeKoJGBJrGcIEEc9g5IESUKAOCoJWBLrGQLEUc%2BgJEGSECCOSgKWxHqGAHHUMyhJkCQEiKOSgCWxniFAHPUMShIkCQHiqCRgSaxnCBBHPYOSBElCgDgqCVgS6xkCxFHPoCRBkhAgjkoClsR6hgBx1DMoSZAkBIijkoAlsZ4hQBz1DEoSJAkB4qgkYEmsZwgQRz2DkgRJQkD%2B77tIUvyMFoujx1tyCHUSExxj3ZS3%2BGdSyzEKcVQOri2Vah5lShtmXPW4MvB81rVnS8Ts3aE3rDL%2B%2BkR4zzalQ0sElFoe4mjJWCT5AyOJ254LXzpZK0SpHkNwQL1%2B5V3G32Zps27kP%2BLjc4dK%2FdFC6OBd3hiLVVQb%2F1EHgnoiFCzXLrlBn1pnlkWL9FtTnujtJIQ46oRKa8SF7pyj9RnubckQaEz5gPyot6gGURpGSPrEx9UBY2VUHjTVr%2F4t%2F%2F0n317kR1vfdPHKanXCD%2BTpoV72HfwOoDz5siUTR2Uj3Ix8eDjt%2FBuk%2FlochKvnXO5fV0ocbYZD0h9j3D34QumloAgU5M%2BLONr6djOi8n%2FKtnstK2hCqzVRIo62JvqibK2NfI6iJL31a9oyDYijLcPNh7nIj%2FrQaKSyPxAgP%2BoPOwVZS%2BJokK3vj7oTR%2F1hpyBrSRwNsvX9UXfiqD%2FsFGQtiaNBtr4%2F6k4c9YedgqwlcTTI1vdH3Ymj%2FrBTkLUkjgbZ%2Bv6oO3HUH3YKspbE0da2ftG2etC%2Bp9Y2NZWfCwEldoz2j%2BYCiJ7lQkBn5sE9uRIE%2Fhm19a1NgaK09fq2da1dz5aXTxxtOXae5MTJOezDNzwRlUOIum0tL8ifF3G0te0WYdqq5%2FV9m%2BXpAeHa36f59yQI4qg8briWHGPGrAdcp84%2F4f%2FN8O%2BLy6gtcTR%2Fk3ueI8JCH87W%2FzbLc8EQGH%2F3eXXuNCUqQ3aRZBJHiwR07mJwCKP6zI362zNyJ8v3KQgaevZmpWO%2B%2BUorPXG0VOwBV6fOvMP4%2BThj19oCdcJsvb71k8S0r4eevtnXHlTgQOePFsgHL7PDmypbFrIpZyU6Dzg2%2BuYOVX3Ndl1QgHJ8n8tikN747H116Wxtz0Z%2BmjOdkesSOEqWBwLJ82xDxzZW%2FDk5ihILmO7nUHWmacmzxv3cAU2Di%2FxoGiClcnsGtNFeQUn9Ua%2BQJDmyECCOykKW5HqFAHHUKyRJjiwEiKOykCW5XiFAHPUKSZIjCwHiqCxkSa5XCBBHvUKS5MhCgDgqC1mS6xUCxFGvkCQ5shAgjspCluR6hQBx1CskSY4sBIijspAluV4hQBz1CkmSIwsB4qgsZEmuVwgQR71CkuTIQoA4KgtZkusVAsRRr5AkObIQII7KQpbkeoUAcdQrJEmOLASIo7KQJbleIUAc9QpJkiMLAeKoLGRJrlcIEEe9QpLkyEKAOCoLWZLrFQLEUa%2BQJDmyEJDIUX7eEF2EQMEISOSomShYOxJACMg7I1ctKyd4A4WAVtlbUn1l%2BVEl0i7RS5GkNIktQQTUHkMkaSWLo1BXnfQ786gktUlsCSGAw%2FaNiffJU0gxTVOedP2Rr6jr59ExhfIQbn3JMWaWRdmTe9BySlJGoh%2FlGt89M1E9krypJOO1ulh4UBDUmPKBPIKijnL9qABRf22aOu9hc08jzUa1Oqu8UgCTNmgezXF3mv%2F8gFZe5ZVYRznF4CgKxpHZxxtWtz2y3VEJivQdAkq0XKkZ4%2F4M9EIqWCSOFqIi5Q04ApL7owFHl6rvBQLEUS9QJBkyESCOykSXZHuBAHHUCxRJhkwEiro3ST%2By07EuRtsu4XDY8VGBkWbsuHHyCDYP5DuBF4%2FH1RP81%2BXynVjhP%2Fp1qpqF1AsKhMyYVf189RcZUX33ElDi7v17t%2B%2FeqcdOapEyZOzfu1%2BXzpWWhNYKFG9cj1%2BwVO8YwRwXIzpH4%2BEToZE%2FYOdfZQ4b5%2BGMBn4zU3vvDeO6%2B7RvPZ4XxMbKBcqU8aycGb%2FZpHXp5z4vfixevamGV%2FM4Mx%2Bbrw4b5z6vPWV9%2FbpFn9RZMZd94eLqHj2tWzeBletWr1izyko5cdwVHcsrrFt7AOxctmLpZ9u3K0rKFgusQSJmzIjzBvartacvcri4bX05w28A86VR0BA%2FOohPMqCcbIwcNdX3piuPjTd%2FPNDYuNgrFJS2leCZmkiB3q1w7NyqiLJIG7fpRTqk78Srib8FXuCHdcG95Sttw%2BZ6K3u7tll%2Fm3Hbrh0v%2F%2Fn1%2Bh07kFgUAWriQljEfLjiH4uXLcq3dA%2FTF7Wt53rHWGL4tWzwWBYTP4XJFCPOtq81dqwIbVmutGGhAxvNhy%2FSb31Ju%2BQGb%2BrpoVt2qRBqhlb6dEPtMluuZIeOHM71OOMZ0jeePJERnR4Bgr67ZJHgYrSs7bDBZ3cqrwiFOCuONR7%2FdMPavQf24ykYzJYtGjv6ovT8RbkvNkf5xufBY0NX3pVWOzV23NxaZ776mLL6TTha7YUb9ZqhWp%2Fhacl8cWsOm8DC7c34MbOC%2F2py5oV%2Bufn%2Bq5kgZKYEb9pFoyAKPmiR3ffaG3Y2LenV9uzJGeZ0gcdL6z7GE3jNQTX9R5093C4fHQP0LtDlWLFhA%2BgOIR3WrQaJnSTJjStuW4%2FmA1%2BKUx7UXjOMCdQBY9Upc%2BMTHhQeSHlpqj2BX8IYY6EWyr2z8dfxO4Z%2BufHY19j8p1zWqLZ3P5Fybf0Gl1mQbMeeXfgLiveodP6e4OnqdauErwVB0em0E9QqqLZ28AUjRolbdB7wPbEeFS1QbI42W7HwVffHe4xEMmXlm9nmAZoVUtIJ3nspVL%2Bcte%2FmUsmunStBNSQWtHOTC0yC30XKXj2qIlHn37Dfd2C%2F8K%2BQDw%2BaQyy8qRgzgdB5fU9yyMzrUclxFA7VvPCb4l0oZc%2BmvCrji8R6uA0fKbq%2BMNzp0ZmPv%2Fbs3%2BfSjWEKSYjv1b3qxMmTjkV99GmdiIefdvSg9lyDawaI7wlcqT2%2BOOGS4yiqrVWdxTdKacw8uKc4KJR4KV278s1vGLts3t7gRtWtDfy7DVZlm64C1483Noo0buaV0DdFtxjp4UrhgN3o4GGaUuSogvf1hKdJ4uhhbX0qql%2Bv3sKN1TdsbrYK4N%2BuAweRTHhfx%2FRwtMdPcI6iM%2BCYIDPS6hZ%2F5kKHzOyFxBR7XO9GV33%2FllByYsqMljumxzy5uWmV0rBajx9DArWyL%2Bs%2FNFQzxjFxWiSGLOb6Zcb%2BLVq4vTL8YqXPCJdLOHwwvu4jUahWO4rVnJttbh8plcbDZqjMngA6K4mTiAw1HhTfQN7bjn0u1OOPohXZ1rTQFsONwYfB%2BYGCuZvmw0ePgH9wusL7plVf3B48fMiab3JMkBmJOSkM%2F5Er31mwTFH5xpQiR7VNH2OiFO8hsC5d0%2BrD2fnc3aHP3uBPddbUCmh8uiDReYB6%2B0xMDqRlsW45J2ZOVZc%2Bjxgt%2BR1Q5rJEn7HKLTMcB%2BBWRgQS7zyr%2FeEuzBlahSodWOLrTzrPH73xa%2BXtacqI69i9s4UQ3nP5SQ3WLEw1qhiNLMpCuxab9w84XcSxxsSEB7Vrf3E65lQIhOsYrujZrQeGQQiDgrnXJ%2BHnwCTwCd73lIz0%2F0ePcEeLq1MFFhtcXRUdytEzxvdEjMZc5fEoUcm19cauteqH02FOLNVovYbaqwkXCEuH1rzBJ6faRzENqV96q37uJL2yFmMsTP6rj16ENPYsIqyEoli5Vv7zRvWD58Fms%2F9lyJjoO5Ln2rpY%2B9kIrHxm5rJi9LdnaM%2Fdyg43oiA26jqUCIJCB%2B33dyee%2Fp6VzArwUVHyO2DFNAViDCtq1tw%2BwtYH6bV4k09Nz5W8713VS7ix9Z%2BtdUwgIuFlt%2B%2FiK1LdKnNtgRCdAfQf2kcd16adSxBdUqhRZFdaWn6UM%2Bn3D8OKYA8mSiO2Vw357pAZN6Gbikf6F29Vrp6KllR8w%2BAgjXdeVP%2F3fnhfNvNe8%2F7X05pvPVqmv%2F54eM3CeFV16JaZyuAxIcwexI7r770ceulWGESdPl5%2F1GFdPt6mc2jPOvb0HUo508ffp0z6N6O8CpDxDsOzt3N%2Bz38mUT3M2ZvaDA21jamLzEh7JRJhf%2FlvZcF0vIqo3T3LjNkWo7J0bIQYPmpJujHQK0dzbzX08Lu28lOCyJ5y7%2B4mdwfDnYwWpiohP8rb8V9dp3z6MqqidxuAiVJ7nfS6hXxaEY9qx4Zu%2B529q4dunHb1fewrPD1elTZ2fWbPiLCx%2Bd3wu78CQbUf%2FRmbPASD8Tf05VsSNz4D0vP3G197NC0XbsOfHzBenMo7Et98ErtSeEHJROgbaFP%2FiiCcfehPd0PzZHSuP%2BiEIBcOSkhEO8FrKpG2CHM51qe5nStiAC6a%2B2wl7dy7W3Q04XezpbHH51jHtyezhyEfy6T2GNnh1uBoRBi6qWpo3OOfztOfulm9p0Zd%2FyYYg56lMmVemi9UV72NR8YRZl7zc0dQjAn%2FigQwv1H%2FkT0BGBZe%2BRd2oFG90aHfaV7yHTT9SKP9%2FRloYs%2BIMPqOcJbG0MszPSXU0296iZMbfdT5z6VllHEraAeK5BhZW8tL2bY4FaJYhzK0U61wFb2tj3DHY86dAvNjAIFRiBJjUIJvhgqxWAeFXfRT5eoHQxnbSc3x32NDxwOh0EDnURE8a6yTEt5nmrsdZv7NcyeERk%2FIBBhNWPzSbytPL0Q%2FwahbyDIOhDE%2FZ8r1P8%2FMiBj1wq%2Bzl6O8T7niTfOq%2B9O%2BVI5ZCokE7dCDxKgFPc742Q6je3QTreWlHAXBE0NIjgSl9qg1%2FCgYmRw6cOuGODv5Tja0yH0v0x6qj1z7C8euD28TR38DnxxU0Lp%2BmQ8%2Bwu3TUAbPzC%2FfkhZp3aqj%2FomPgXAtfd2KbArEmF41wMwyV8Bd6cgbkDK8a7lxpGlpJ12Cp%2FfWlCd4linYGnFjb3LmU%2F%2FGtAJH451HGl%2B6Ux81WXywVS%2FWtho0UrcsxLA9NuehFqNptu%2FsnBedi5pznR%2FBHZaVG1WX4am2bV7mcNy44PqUrkmqFGXwZbw7iz7GphWpT6TcDerPz%2F3KNgEkZvjhazFPlKN49EHFikCONCX1qOhtPeZfxnxb%2FcY9dhQwxDbXLdFf%2BD7mj8JvPqLHP89327yQZmrOX7l4ZXW4PH2q1VIA7tCo7Me2MPNQ8jUP26kbIJ9ae4GVMjOgdD41fG5Yz0ZnPvc4BjOjorkHHdPWMNHQi%2BVNLB05NkSFq3L0ZK7ZscLlZ5PgbNRsqT2J55uaUy%2BwhA%2B3p8xLVNSi9VffnuZmKz5nNuaP9m3GTBDSY45TPbyvaRHVJh88C3U%2FN0cPAWn1btUiB9aHbFmTwYx1BHsC7BCFwvxqLNIqtmjuQce0SUo09KKXiX0kdg1zhx37DLmzYH40r1nV3NLcPC26H82uFAY98W%2F81Hz2Zljd%2FPtslqUXCAF8evLj%2BeqaBcbu1aHD9bypTTbSKlannBpms31WJ5qmTsqEJfrN%2BMK0rUhLY7%2Fl85144wUKFOvq07sGe%2BpEc28fvB84zJeO4GW7VzZT2ZZ5WfusagtmrAqBpxX8aA51MXzhazkYP9W95ZgM00PGYxOVe0Zor%2FwIG0y1%2FXyrGB91deAfThenS%2B3QzSnaIc7U8xvwYv2dL2%2FiS7V3i4M4CVGgoOhN2veXWMtL8LJuKCi2koDoec10WmMyN0V4WPUS8qOoFSbJzeoL2OF6eEe%2BKJo6E8Tf1Zw2nhOiDYt3q9a%2B%2BoA5aJRS2UdkxF%2F%2BFuhHb7QMHe6MMX7K6TUdJDcewewE8ipd%2Bzo8lRAFfoCI9Tv4%2FhI098KVYh8TCIdWGF7WTZnWmCnW6PYUY6xgicVYrLK6KcLDNKXlR1Ex%2FewLBV3Y3pS3cEBZTlCcJ9jIErc9p%2F26Qbvidux14ms%2Fp0Y5xtEt6I%2BKzVB2jPSDm%2B23meHwiRiojwt%2BMe2pcSKjh5qWInnL1%2BiLdYGIoAtIeWDfLlGmeGsUTXCzDb1Ij60kkIDw3qN845iby1rBsncw3GQsPE3JcVQddH4TXTb8w14989Vp%2FBYTlt99MnzpZKduJwvv22DPcjp8qAGjq9O3qSE%2B9tr5KY%2BLMGuJlb8ulyxDPZY1I3KYydeGEFC6u3JgvJSCLxBR9Agthont8S4bepRvSRAbUNxoZL2pUvzJ15LjqNmxp%2BhWmnV%2FsrADjfByM2%2Fly6Jaltl4vmiOvXOp5DV7D4MQrGdaojIDOMgksZvPbsY7Kaef4nxN%2BGzMfe5YdzoyI6SsnS%2FiNOxhLdYlmnuUJhhmbYzPsWE0TTVIsPbV4%2FXltKeZtyhCdEbRSci9MzAzb%2BExJcdRtbxr04z6nhXWjDpWcUKHOFf0btlnkd57RThgOyhKrxq%2BiwrrTFvr7PH2sLJlTXj%2FNsTwg1JOXVADaw1cYObi06k0UM9c%2Fhq%2Fw0bBqtpT0cX4L%2BiI5h5dUmv5Hm%2FPuS%2F7nIF8OQAXXqIXgRx%2FrZef0iZlc2Tx8FHJcRQTmeaA0byGhxtZxn4iM%2BY87kZvVZt7v8O4fvAYSOJ79jCZleUy3nmae2jMT3%2FxeisJ1NAGXYRbrX4e3xztdCkrF2h7NuIJVkStToJTwtS4tvwlzwIv62VRvEcvJkoRk1dPEa86CU7DQeLUnRz6oCNhOdEhtQNzpJT0qOQ4inoa1UM4Y9Bqn1pghFdLdByMR3xlPGN3EqZLlYfPcwQIwyl9CN%2BDgoN6HNcF9GV%2FDH0yBwn0gWPT9vAbQ6%2FgaoDif%2Fgl%2F5dxJZ79Lu8PYBV33OSMh1kj1CifCMM%2B%2FGzUz5rT9gB0FI21RaAcG0Zt%2BVKC550zQtzjWKgldR%2FZZ0CtdKAvHolbHABR5FknUW4pclSt5YTj7SwWGJOX8Gp8vI%2F9%2BQ%2Bfl9i0BO0sMAVfsb6PjfSYAMKOvkT%2FSWIyX%2BQSf9V%2FeURQLTH9WrDZ%2FggE1X57FWRCsvrtJ%2ByPEMY%2BKRAXAWXedPzshP0p6KU%2F8hX0EDDJYFw4OY3c9pSZYbXfWeJNGP0vMzKfuo8RpERzjywYpLvcMGqXj54ljn4QM0rg%2Bpy3%2FohzndA9FR9Q87W336xbmxxNMoZWHh8MDOC28UEaqx9slykjnJxxkSG4AJlqj%2F78MDDMO25cdFrMV3%2FAFkzHLTb1af%2F%2BBRBLBU91FuGv1HJnhqVUY9YDmfuesMqqX3mf%2Bta0yOFt5tQR8dHXqyMmmAd3m0texAlTDEtTR%2FlkVthpWUv54UvmPTWgFDb5Jxb9jn3xDqVTd6X%2BA3XBdN490Ln31b7%2F1GklrVDq0M2KRgBv%2BeGQCzQI4T89klg9Xxn7LVZWAZmJyp6RSVPsKXOHQUr4P7GjGXOWeTX0lmTQrm1ZGU7UEVzHCpY4GMJKYAUwPntx0yvWLQI43aQ446ficvQIM9A1dHGZ3ceYKxeqS05PyPMd7HfN1X4zEbnRwvIrqTv3ZEMvxw9B8VlSrNcf5%2FOjaQzBDpVE%2Bx7aH37EMy2bzfABv5OJMFGg3zEn7LS1FInRyzSeWBP%2F5dnhRpN3PSHByogh%2F%2BV3hiY7EJS%2F%2BXmQ4bwn2zQB11dcaBOU22bE%2FutCLrN%2BMcMH37FGxq558FSSpv9iCjMt0roFKUFNHAyBmNwNPeQIClp57QF0TPGB1wQLsXwvSG9PIMKQYH8EmaIfnJnS85jinT%2FK54%2Fq5qECSu8haQtImbVC31EcAGGc%2BzV7H4hPML33CvyrebBBK%2B%2BlVJ1jXjzJamqbcnWvxWZTB5lYR%2F34r2zVfJ63TUfW9xxz6Hh1xOUgTWZieww6FeriV9kn77BD28zEcdaxt9J3lDJ2UrZa8B7F7nqlUzdLMbs0EUZvwVz6lrJmEebUEKNGu7Av3WQ%2FKhCFYvWoLNIGG%2B3sCNhFgSViMRObPLL5USEHubKdB5EmMJFIHHR3Rl%2B%2BozR7QXmFi8fRvNRqNjEYjzTN0stRTovztjijoxoiUshscV1ySD5jHvmVo2eMAagizSJQiuP6ZpWmBIFCgDgaKHP7srLEUV%2BaLVBK%2Fz9KPFygGXip3AAAAABJRU5ErkJggg%3D%3D%3B%22%20vertex%3D%221%22%20parent%3D%222%22%3E%3CmxGeometry%20x%3D%22365%22%20y%3D%2225.43%22%20width%3D%2235%22%20height%3D%2235%22%20as%3D%22geometry%22%2F%3E%3C%2FmxCell%3E%3CmxCell%20id%3D%229%22%20value%3D%22%22%20style%3D%22image%3Baspect%3Dfixed%3Bhtml%3D1%3Bpoints%3D%5B%5D%3Balign%3Dcenter%3BfontSize%3D12%3Bimage%3Dimg%2Flib%2Fazure2%2Fdatabases%2FAzure_Database_PostgreSQL_Server.svg%3B%22%20vertex%3D%221%22%20parent%3D%222%22%3E%3CmxGeometry%20x%3D%22275%22%20y%3D%2218.5%22%20width%3D%2236%22%20height%3D%2248%22%20as%3D%22geometry%22%2F%3E%3C%2FmxCell%3E%3CmxCell%20id%3D%2210%22%20value%3D%22%22%20style%3D%22points%3D%5B%5D%3Baspect%3Dfixed%3Bhtml%3D1%3Balign%3Dcenter%3Bshadow%3D0%3Bdashed%3D0%3BfillColor%3D%23FF6A00%3BstrokeColor%3Dnone%3Bshape%3Dmxgraph.alibaba_cloud.prometheus%3B%22%20vertex%3D%221%22%20parent%3D%222%22%3E%3CmxGeometry%20x%3D%22155%22%20y%3D%2215.55%22%20width%3D%2248.9%22%20height%3D%2248.9%22%20as%3D%22geometry%22%2F%3E%3C%2FmxCell%3E%3CmxCell%20id%3D%2211%22%20value%3D%22%22%20style%3D%22image%3Baspect%3Dfixed%3Bhtml%3D1%3Bpoints%3D%5B%5D%3Balign%3Dcenter%3BfontSize%3D12%3Bimage%3Dimg%2Flib%2Fazure2%2Fother%2FGrafana.svg%3B%22%20vertex%3D%221%22%20parent%3D%222%22%3E%3CmxGeometry%20x%3D%2245%22%20y%3D%2218.5%22%20width%3D%2254%22%20height%3D%2241.93%22%20as%3D%22geometry%22%2F%3E%3C%2FmxCell%3E%3C%2Froot%3E%3C%2FmxGraphModel%3E&lt;/span&gt;" style="rounded=1;whiteSpace=wrap;html=1;align=center;verticalAlign=bottom;" vertex="1" parent="2IJK8Kk_YS6RuWI4rXo5-85">
          <mxGeometry width="100" height="66" as="geometry" />
        </mxCell>
        <mxCell id="2IJK8Kk_YS6RuWI4rXo5-87" value="" style="aspect=fixed;sketch=0;html=1;dashed=0;whitespace=wrap;verticalLabelPosition=bottom;verticalAlign=top;fillColor=#2875E2;strokeColor=#ffffff;points=[[0.005,0.63,0],[0.1,0.2,0],[0.9,0.2,0],[0.5,0,0],[0.995,0.63,0],[0.72,0.99,0],[0.5,1,0],[0.28,0.99,0]];shape=mxgraph.kubernetes.icon2;kubernetesLabel=1;prIcon=node" vertex="1" parent="2IJK8Kk_YS6RuWI4rXo5-85">
          <mxGeometry x="30" y="12.5" width="42.71" height="41" as="geometry" />
        </mxCell>
        <mxCell id="2IJK8Kk_YS6RuWI4rXo5-91" value="" style="shape=image;verticalLabelPosition=bottom;labelBackgroundColor=default;verticalAlign=top;aspect=fixed;imageAspect=0;image=data:image/png,iVBORw0KGgoAAAANSUhEUgAAAOEAAADhCAIAAACx0UUtAAAAAXNSR0IArs4c6QAAAERlWElmTU0AKgAAAAgAAYdpAAQAAAABAAAAGgAAAAAAA6ABAAMAAAABAAEAAKACAAQAAAABAAAA4aADAAQAAAABAAAA4QAAAAAYn8bHAAAdTUlEQVR4Ae1dC5QU1Zm+VdXdDA3MAMNrYHjM8FR5CIpENFEhxo0BEt2NzzxEjVmN0TUxukg0MR7jiie7MbLhrPHFMYLoRhMxZg0CxggKRGEEeTs8hvf7OWB3V9V+t+9QVHdX91RP1+3pov46fWZu3br3v//9/q//+6zbimmajC5CoIQRUEtYN1KNEOAIEEeJB6WOAHG01C1E+hFHiQOljkCoOAqasePmuiXmhn+gOK3xZMsK1aNlZnml2u8sdcBYnTEjHm+ZnLxyhcNhlMX2bTZWLVQP7G2x8qJQffBwNniMVl6Vlw4BT6wUYVyv/22W+vL32IFGFuFoKwV8L8wEMxuZPmikevsLrM9wqTQNmTEj0o4d2Wm88OPQh7O55m0KZQuU53ImPmxe82MFwulygYB0jupP3ay+/7zS0YUu7pPEmHGE6T98Tr10sjyaquEw3Kc2tQbEUqLulWs+JQTGK6u1Xywlh9o8WPhKS/WjxvM/VOZN5+4n6UG5QjFb2I2C2dOYR5k5Zb45bJwkmqqHt6sPnqOcbHL/2RVp0ZMYi1VUR37d0KLMwcokccxkbFzMCdohlZQWWQvGGdTXZ92LtrhgSQ4C4ETN1x5lx+QQFAVGWHj/ttichxzKpqhUBGRydO5vCu/ApWqbehdhoS3LzfUreaPs+YVWfvksb5v4NB0hPLLgkXhRRn5pRfvrViJH1ffnnG7iJaGiMXXlXM9lc9JvWsEOJwc4nku3CTT2MW3LMlsEBR0QkMVRTDY5lOZ1FKYIjL1bvZbK5ZkQq8kQnCKTd1e2rUuJopsMBKRx9ID/RwN8XlTypTElYUguw/fipXE0WuF7bOT7Ud9DVJQKyOJoUZSnQgKBAHE0EGb2dSWJo742XyCUJ44Gwsy+riRx1NfmC4Ty/udouG0gDBXgSvqfowE2XkCqThwNiKF9XE3iqI+NFxDViaMBMbSPq0kc9bHxAqI6cTQghvZxNYmjPjZeQFQnjgbE0D6uJnHUx8YLiOrE0YAY2sfVJI762HgBUZ04GhBD+7iaxFEfGy8gqhNHA2JoH1eTOOpj4wVEdeJoQAzt42oSR31svICoThwNiKF9XE3iqI+NFxDViaMBMbSPq0kc9bHxAqI6cTQghvZxNYmjPjZeQFQnjgbE0D6uJnHUx8YLiOrE0YAY2sfVJI762HgBUZ04GhBD+7iaxFEfGy8gqhNHA2JoH1eTOOpj4wVEdeJoQAzt42oSR31svICoThwNiKF9XE3iqI+NFxDViaMBMbSPq0kc9bHxAqI6cTQghvZxNYmjPjZeQFQnjgbE0D6uJnHUx8YLiOrE0YAY2sfVJI762HgBUZ04GhBD+7iaxFEfGy8gqhNHA2JoH1eTOOpj4wVEdeJoQAzt42oSR1vVeDGmVFS2qgY+KJw46gMjBVxF/3P0UIMaO+65Fc2NHyohz6WmC1SijDWsT4+l+1QEfM7RCAttXWxurVPD4dR6tfyOi9r6SfjT2SzSciHucxrLXjYlfMfcK1D6KX3O0STAxos/gSv1hKYQwr3yzHtZrCi2w3esfrn+zrNFKcyvhSimacrQXT+yU5ncU+0iQ3a6TLORJapHanfPMnsMSX+W572ya63xxERtz0beChfnijHzc2ZceZ96zUNKpF1xyvRXKWcCRznisHSC6bVjlYEXm+17KEZcjx+zLKHFPxdhJd5oRWYGzG3rlBXz1HJWnFbergC+Zqx9VB80Ue3Y1R5fsmGj+0C191Bl8JgifK/OFI4KYyYbaJBVXC0Z9BSlD5rCPOgsCi1O7yKl7JbfwPfj0qsGqDf9jzpsXMsFuch5ZnHURYUpiZcIJJsv41u/1a643UuxqbLOhDFTao3orogIRBg67urv79C3fiKvVOKoPGyDIpn3qTATIu0ijkqDNjiCI0xdMk/eLC9xNDhUklnTdiyxYbGkAoijkoAlsZ4hQBz1DEoSJAkB4qgkYEmsZwgQRz2DkgRJQoA4KglYEusZAsRRz6AkQZIQII5KApbEeoYAcdQzKEmQJASIo5KAJbGeIUAc9QxKEiQJAeKoJGBJrGcIEEc9g5IESUKAOCoJWBLrGQLEUc+gJEGSECCOSgKWxHqGAHHUMyhJkCQEiKOSgCWxniFAHPUMShIkCQHiqCRgSaxnCBBHPYOSBElCgDgqCVgS6xkCxFHPoCRBkhAgjkoClsR6hgBx1DMoSZAkBIijkoAlsZ4hQBz1DEoSJAkB4qgkYEmsZwgQRz2DkgRJQkD+77tIUvyMFoujx1tyCHUSExxj3ZS3+GdSyzEKcVQOri2Vah5lShtmXPW4MvB81rVnS8Ts3aE3rDL++kR4zzalQ0sElFoe4mjJWCT5AyOJ254LXzpZK0SpHkNwQL1+5V3G32Zps27kP+Ljc4dK/dFC6OBd3hiLVVQb/1EHgnoiFCzXLrlBn1pnlkWL9FtTnujtJIQ46oRKa8SF7pyj9RnubckQaEz5gPyot6gGURpGSPrEx9UBY2VUHjTVr/4t//0n317kR1vfdPHKanXCD+TpoV72HfwOoDz5siUTR2Uj3Ix8eDjt/Buk/lochKvnXO5fV0ocbYZD0h9j3D34QumloAgU5M+LONr6djOi8n/KtnstK2hCqzVRIo62JvqibK2NfI6iJL31a9oyDYijLcPNh7nIj/rQaKSyPxAgP+oPOwVZS+JokK3vj7oTR/1hpyBrSRwNsvX9UXfiqD/sFGQtiaNBtr4/6k4c9YedgqwlcTTI1vdH3Ymj/rBTkLUkjgbZ+v6oO3HUH3YKspbE0da2ftG2etC+p9Y2NZWfCwEldoz2j+YCiJ7lQkBn5sE9uRIE/hm19a1NgaK09fq2da1dz5aXTxxtOXae5MTJOezDNzwRlUOIum0tL8ifF3G0te0WYdqq5/V9m+XpAeHa36f59yQI4qg8briWHGPGrAdcp84/4f/N8O+Ly6gtcTR/k3ueI8JCH87W/zbLc8EQGH/3eXXuNCUqQ3aRZBJHiwR07mJwCKP6zI362zNyJ8v3KQgaevZmpWO++UorPXG0VOwBV6fOvMP4+Thj19oCdcJsvb71k8S0r4eevtnXHlTgQOePFsgHL7PDmypbFrIpZyU6Dzg2+uYOVX3Ndl1QgHJ8n8tikN747H116Wxtz0Z+mjOdkesSOEqWBwLJ82xDxzZW/Dk5ihILmO7nUHWmacmzxv3cAU2Di/xoGiClcnsGtNFeQUn9Ua+QJDmyECCOykKW5HqFAHHUKyRJjiwEiKOykCW5XiFAHPUKSZIjCwHiqCxkSa5XCBBHvUKS5MhCgDgqC1mS6xUCxFGvkCQ5shAgjspCluR6hQBx1CskSY4sBIijspAluV4hQBz1CkmSIwsB4qgsZEmuVwgQR71CkuTIQoA4KgtZkusVAsRRr5AkObIQII7KQpbkeoUAcdQrJEmOLASIo7KQJbleIUAc9QpJkiMLAeKoLGRJrlcIEEe9QpLkyEKAOCoLWZLrFQLEUa+QJDmyEJDIUX7eEF2EQMEISOSomShYOxJACMg7I1ctKyd4A4WAVtlbUn1l+VEl0i7RS5GkNIktQQTUHkMkaSWLo1BXnfQ786gktUlsCSGAw/aNiffJU0gxTVOedP2Rr6jr59ExhfIQbn3JMWaWRdmTe9BySlJGoh/lGt89M1E9krypJOO1ulh4UBDUmPKBPIKijnL9qABRf22aOu9hc08jzUa1Oqu8UgCTNmgezXF3mv/8gFZe5ZVYRznF4CgKxpHZxxtWtz2y3VEJivQdAkq0XKkZ4/4M9EIqWCSOFqIi5Q04ApL7owFHl6rvBQLEUS9QJBkyESCOykSXZHuBAHHUCxRJhkwEiro3ST+y07EuRtsu4XDY8VGBkWbsuHHyCDYP5DuBF4/H1RP81+XynVjhP/p1qpqF1AsKhMyYVf189RcZUX33ElDi7v17t+/eqcdOapEyZOzfu1+XzpWWhNYKFG9cj1+wVO8YwRwXIzpH4+EToZE/YOdfZQ4b5+GMBn4zU3vvDeO6+7RvPZ4XxMbKBcqU8aycGb/ZpHXp5z4vfixevamGV/M4Mx+brw4b5z6vPWV9/bpFn9RZMZd94eLqHj2tWzeBletWr1izyko5cdwVHcsrrFt7AOxctmLpZ9u3K0rKFgusQSJmzIjzBvartacvcri4bX05w28A86VR0BA/OohPMqCcbIwcNdX3piuPjTd/PNDYuNgrFJS2leCZmkiB3q1w7NyqiLJIG7fpRTqk78Srib8FXuCHdcG95Sttw+Z6K3u7tll/m3Hbrh0v//n1+h07kFgUAWriQljEfLjiH4uXLcq3dA/TF7Wt53rHWGL4tWzwWBYTP4XJFCPOtq81dqwIbVmutGGhAxvNhy/Sb31Ju+QGb+rpoVt2qRBqhlb6dEPtMluuZIeOHM71OOMZ0jeePJERnR4Bgr67ZJHgYrSs7bDBZ3cqrwiFOCuONR7/dMPavQf24ykYzJYtGjv6ovT8RbkvNkf5xufBY0NX3pVWOzV23NxaZ776mLL6TTha7YUb9ZqhWp/hacl8cWsOm8DC7c34MbOC/2py5oV+ufn+q5kgZKYEb9pFoyAKPmiR3ffaG3Y2LenV9uzJGeZ0gcdL6z7GE3jNQTX9R5093C4fHQP0LtDlWLFhA+gOIR3WrQaJnSTJjStuW4/mA1+KUx7UXjOMCdQBY9Upc+MTHhQeSHlpqj2BX8IYY6EWyr2z8dfxO4Z+ufHY19j8p1zWqLZ3P5Fybf0Gl1mQbMeeXfgLiveodP6e4OnqdauErwVB0em0E9QqqLZ28AUjRolbdB7wPbEeFS1QbI42W7HwVffHe4xEMmXlm9nmAZoVUtIJ3nspVL+cte/mUsmunStBNSQWtHOTC0yC30XKXj2qIlHn37Dfd2C/8K+QDw+aQyy8qRgzgdB5fU9yyMzrUclxFA7VvPCb4l0oZc+mvCrji8R6uA0fKbq+MNzp0ZmPv/bs3+fSjWEKSYjv1b3qxMmTjkV99GmdiIefdvSg9lyDawaI7wlcqT2+OOGS4yiqrVWdxTdKacw8uKc4KJR4KV278s1vGLts3t7gRtWtDfy7DVZlm64C1483Noo0buaV0DdFtxjp4UrhgN3o4GGaUuSogvf1hKdJ4uhhbX0qql+v3sKN1TdsbrYK4N+uAweRTHhfx/RwtMdPcI6iM+CYIDPS6hZ/5kKHzOyFxBR7XO9GV33/llByYsqMljumxzy5uWmV0rBajx9DArWyL+s/NFQzxjFxWiSGLOb6Zcb+LVq4vTL8YqXPCJdLOHwwvu4jUahWO4rVnJttbh8plcbDZqjMngA6K4mTiAw1HhTfQN7bjn0u1OOPohXZ1rTQFsONwYfB+YGCuZvmw0ePgH9wusL7plVf3B48fMiab3JMkBmJOSkM/5Er31mwTFH5xpQiR7VNH2OiFO8hsC5d0+rD2fnc3aHP3uBPddbUCmh8uiDReYB6+0xMDqRlsW45J2ZOVZc+jxgt+R1Q5rJEn7HKLTMcB+BWRgQS7zyr/eEuzBlahSodWOLrTzrPH73xa+XtacqI69i9s4UQ3nP5SQ3WLEw1qhiNLMpCuxab9w84XcSxxsSEB7Vrf3E65lQIhOsYrujZrQeGQQiDgrnXJ+HnwCTwCd73lIz0/0ePcEeLq1MFFhtcXRUdytEzxvdEjMZc5fEoUcm19cauteqH02FOLNVovYbaqwkXCEuH1rzBJ6faRzENqV96q37uJL2yFmMsTP6rj16ENPYsIqyEoli5Vv7zRvWD58Fms/9lyJjoO5Ln2rpY+9kIrHxm5rJi9LdnaM/dyg43oiA26jqUCIJCB+33dyee/p6VzArwUVHyO2DFNAViDCtq1tw+wtYH6bV4k09Nz5W8713VS7ix9Z+tdUwgIuFlt+/iK1LdKnNtgRCdAfQf2kcd16adSxBdUqhRZFdaWn6UM+n3D8OKYA8mSiO2Vw357pAZN6Gbikf6F29Vrp6KllR8w+AgjXdeVP/3fnhfNvNe8/7X05pvPVqmv/54eM3CeFV16JaZyuAxIcwexI7r770ceulWGESdPl5/1GFdPt6mc2jPOvb0HUo508ffp0z6N6O8CpDxDsOzt3N+z38mUT3M2ZvaDA21jamLzEh7JRJhf/lvZcF0vIqo3T3LjNkWo7J0bIQYPmpJujHQK0dzbzX08Lu28lOCyJ5y7+4mdwfDnYwWpiohP8rb8V9dp3z6MqqidxuAiVJ7nfS6hXxaEY9qx4Zu+529q4dunHb1fewrPD1elTZ2fWbPiLCx+d3wu78CQbUf/RmbPASD8Tf05VsSNz4D0vP3G197NC0XbsOfHzBenMo7Et98ErtSeEHJROgbaFP/iiCcfehPd0PzZHSuP+iEIBcOSkhEO8FrKpG2CHM51qe5nStiAC6a+2wl7dy7W3Q04XezpbHH51jHtyezhyEfy6T2GNnh1uBoRBi6qWpo3OOfztOfulm9p0Zd/yYYg56lMmVemi9UV72NR8YRZl7zc0dQjAn/igQwv1H/kT0BGBZe+Rd2oFG90aHfaV7yHTT9SKP9/RloYs+IMPqOcJbG0MszPSXU0296iZMbfdT5z6VllHEraAeK5BhZW8tL2bY4FaJYhzK0U61wFb2tj3DHY86dAvNjAIFRiBJjUIJvhgqxWAeFXfRT5eoHQxnbSc3x32NDxwOh0EDnURE8a6yTEt5nmrsdZv7NcyeERk/IBBhNWPzSbytPL0Q/wahbyDIOhDE/Z8r1P8/MiBj1wq+zl6O8T7niTfOq+9O+VI5ZCokE7dCDxKgFPc742Q6je3QTreWlHAXBE0NIjgSl9qg1/CgYmRw6cOuGODv5Tja0yH0v0x6qj1z7C8euD28TR38DnxxU0Lp+mQ8+wu3TUAbPzC/fkhZp3aqj/omPgXAtfd2KbArEmF41wMwyV8Bd6cgbkDK8a7lxpGlpJ12Cp/fWlCd4linYGnFjb3LmU//GtAJH451HGl+6Ux81WXywVS/Wtho0UrcsxLA9NuehFqNptu/snBedi5pznR/BHZaVG1WX4am2bV7mcNy44PqUrkmqFGXwZbw7iz7GphWpT6TcDerPz/3KNgEkZvjhazFPlKN49EHFikCONCX1qOhtPeZfxnxb/cY9dhQwxDbXLdFf+D7mj8JvPqLHP89327yQZmrOX7l4ZXW4PH2q1VIA7tCo7Me2MPNQ8jUP26kbIJ9ae4GVMjOgdD41fG5Yz0ZnPvc4BjOjorkHHdPWMNHQi+VNLB05NkSFq3L0ZK7ZscLlZ5PgbNRsqT2J55uaUy+whA+3p8xLVNSi9VffnuZmKz5nNuaP9m3GTBDSY45TPbyvaRHVJh88C3U/N0cPAWn1btUiB9aHbFmTwYx1BHsC7BCFwvxqLNIqtmjuQce0SUo09KKXiX0kdg1zhx37DLmzYH40r1nV3NLcPC26H82uFAY98W/81Hz2Zljd/PtslqUXCAF8evLj+eqaBcbu1aHD9bypTTbSKlannBpms31WJ5qmTsqEJfrN+MK0rUhLY7/l85144wUKFOvq07sGe+pEc28fvB84zJeO4GW7VzZT2ZZ5WfusagtmrAqBpxX8aA51MXzhazkYP9W95ZgM00PGYxOVe0Zor/wIG0y1/XyrGB91deAfThenS+3QzSnaIc7U8xvwYv2dL2/iS7V3i4M4CVGgoOhN2veXWMtL8LJuKCi2koDoec10WmMyN0V4WPUS8qOoFSbJzeoL2OF6eEe+KJo6E8Tf1Zw2nhOiDYt3q9a++oA5aJRS2UdkxF/+FuhHb7QMHe6MMX7K6TUdJDcewewE8ipd+zo8lRAFfoCI9Tv4/hI098KVYh8TCIdWGF7WTZnWmCnW6PYUY6xgicVYrLK6KcLDNKXlR1Ex/ewLBV3Y3pS3cEBZTlCcJ9jIErc9p/26Qbvidux14ms/p0Y5xtEt6I+KzVB2jPSDm+23meHwiRiojwt+Me2pcSKjh5qWInnL1+iLdYGIoAtIeWDfLlGmeGsUTXCzDb1Ij60kkIDw3qN845iby1rBsncw3GQsPE3JcVQddH4TXTb8w14989Vp/BYTlt99MnzpZKduJwvv22DPcjp8qAGjq9O3qSE+9tr5KY+LMGuJlb8ulyxDPZY1I3KYydeGEFC6u3JgvJSCLxBR9Agthont8S4bepRvSRAbUNxoZL2pUvzJ15LjqNmxp+hWmnV/srADjfByM2/ly6Jaltl4vmiOvXOp5DV7D4MQrGdaojIDOMgksZvPbsY7Kaef4nxN+GzMfe5YdzoyI6SsnS/iNOxhLdYlmnuUJhhmbYzPsWE0TTVIsPbV4/XltKeZtyhCdEbRSci9MzAzb+ExJcdRtbxr04z6nhXWjDpWcUKHOFf0btlnkd57RThgOyhKrxq+iwrrTFvr7PH2sLJlTXj/NsTwg1JOXVADaw1cYObi06k0UM9c/hq/w0bBqtpT0cX4L+iI5h5dUmv5Hm/PuS/7nIF8OQAXXqIXgRx/rZef0iZlc2Tx8FHJcRQTmeaA0byGhxtZxn4iM+Y87kZvVZt7v8O4fvAYSOJ79jCZleUy3nmae2jMT3/xeisJ1NAGXYRbrX4e3xztdCkrF2h7NuIJVkStToJTwtS4tvwlzwIv62VRvEcvJkoRk1dPEa86CU7DQeLUnRz6oCNhOdEhtQNzpJT0qOQ4inoa1UM4Y9Bqn1pghFdLdByMR3xlPGN3EqZLlYfPcwQIwyl9CN+DgoN6HNcF9GV/DH0yBwn0gWPT9vAbQ6/gaoDif/gl/5dxJZ79Lu8PYBV33OSMh1kj1CifCMM+/GzUz5rT9gB0FI21RaAcG0Zt+VKC550zQtzjWKgldR/ZZ0CtdKAvHolbHABR5FknUW4pclSt5YTj7SwWGJOX8Gp8vI/9+Q+fl9i0BO0sMAVfsb6PjfSYAMKOvkT/SWIyX+QSf9V/eURQLTH9WrDZ/ggE1X57FWRCsvrtJ+yPEMY+KRAXAWXedPzshP0p6KU/8hX0EDDJYFw4OY3c9pSZYbXfWeJNGP0vMzKfuo8RpERzjywYpLvcMGqXj54ljn4QM0rg+py3/ohzndA9FR9Q87W336xbmxxNMoZWHh8MDOC28UEaqx9slykjnJxxkSG4AJlqj/78MDDMO25cdFrMV3/AFkzHLTb1af/+BRBLBU91FuGv1HJnhqVUY9YDmfuesMqqX3mf+ta0yOFt5tQR8dHXqyMmmAd3m0texAlTDEtTR/lkVthpWUv54UvmPTWgFDb5Jxb9jn3xDqVTd6X+A3XBdN490Ln31b7/1GklrVDq0M2KRgBv+eGQCzQI4T89klg9Xxn7LVZWAZmJyp6RSVPsKXOHQUr4P7GjGXOWeTX0lmTQrm1ZGU7UEVzHCpY4GMJKYAUwPntx0yvWLQI43aQ446ficvQIM9A1dHGZ3ceYKxeqS05PyPMd7HfN1X4zEbnRwvIrqTv3ZEMvxw9B8VlSrNcf5/OjaQzBDpVE+x7aH37EMy2bzfABv5OJMFGg3zEn7LS1FInRyzSeWBP/5dnhRpN3PSHByogh/+V3hiY7EJS/+XmQ4bwn2zQB11dcaBOU22bE/utCLrN+McMH37FGxq558FSSpv9iCjMt0roFKUFNHAyBmNwNPeQIClp57QF0TPGB1wQLsXwvSG9PIMKQYH8EmaIfnJnS85jinT/K54/q5qECSu8haQtImbVC31EcAGGc+zV7H4hPML33CvyrebBBK++lVJ1jXjzJamqbcnWvxWZTB5lYR/34r2zVfJ63TUfW9xxz6Hh1xOUgTWZieww6FeriV9kn77BD28zEcdaxt9J3lDJ2UrZa8B7F7nqlUzdLMbs0EUZvwVz6lrJmEebUEKNGu7Av3WQ/KhCFYvWoLNIGG+3sCNhFgSViMRObPLL5USEHubKdB5EmMJFIHHR3Rl++ozR7QXmFi8fRvNRqNjEYjzTN0stRTovztjijoxoiUshscV1ySD5jHvmVo2eMAagizSJQiuP6ZpWmBIFCgDgaKHP7srLEUV+aLVBK/z9KPFygGXip3AAAAABJRU5ErkJggg==;" vertex="1" parent="1">
          <mxGeometry x="571.36" y="230" width="60" height="60" as="geometry" />
        </mxCell>
        <mxCell id="2IJK8Kk_YS6RuWI4rXo5-92" value="" style="edgeStyle=orthogonalEdgeStyle;rounded=0;orthogonalLoop=1;jettySize=auto;html=1;flowAnimation=1;" edge="1" parent="1" source="2IJK8Kk_YS6RuWI4rXo5-87" target="2IJK8Kk_YS6RuWI4rXo5-91">
          <mxGeometry relative="1" as="geometry" />
        </mxCell>
        <mxCell id="2IJK8Kk_YS6RuWI4rXo5-93" value="Publica evento" style="edgeLabel;html=1;align=center;verticalAlign=middle;resizable=0;points=[];" vertex="1" connectable="0" parent="2IJK8Kk_YS6RuWI4rXo5-92">
          <mxGeometry x="0.1565" y="3" relative="1" as="geometry">
            <mxPoint as="offset" />
          </mxGeometry>
        </mxCell>
        <mxCell id="2IJK8Kk_YS6RuWI4rXo5-95" value="" style="edgeStyle=orthogonalEdgeStyle;rounded=0;orthogonalLoop=1;jettySize=auto;html=1;flowAnimation=1;" edge="1" parent="1" source="2IJK8Kk_YS6RuWI4rXo5-94" target="2IJK8Kk_YS6RuWI4rXo5-91">
          <mxGeometry relative="1" as="geometry" />
        </mxCell>
        <mxCell id="2IJK8Kk_YS6RuWI4rXo5-96" value="Processa Evento" style="edgeLabel;html=1;align=center;verticalAlign=middle;resizable=0;points=[];" vertex="1" connectable="0" parent="2IJK8Kk_YS6RuWI4rXo5-95">
          <mxGeometry x="-0.1363" y="3" relative="1" as="geometry">
            <mxPoint y="1" as="offset" />
          </mxGeometry>
        </mxCell>
        <mxCell id="2IJK8Kk_YS6RuWI4rXo5-98" value="Persiste evento" style="edgeStyle=orthogonalEdgeStyle;rounded=0;orthogonalLoop=1;jettySize=auto;html=1;flowAnimation=1;" edge="1" parent="1" source="2IJK8Kk_YS6RuWI4rXo5-94" target="2IJK8Kk_YS6RuWI4rXo5-97">
          <mxGeometry relative="1" as="geometry" />
        </mxCell>
        <mxCell id="2IJK8Kk_YS6RuWI4rXo5-100" value="" style="edgeStyle=orthogonalEdgeStyle;rounded=0;orthogonalLoop=1;jettySize=auto;html=1;flowAnimation=1;" edge="1" parent="1" source="2IJK8Kk_YS6RuWI4rXo5-94" target="2IJK8Kk_YS6RuWI4rXo5-99">
          <mxGeometry relative="1" as="geometry" />
        </mxCell>
        <mxCell id="2IJK8Kk_YS6RuWI4rXo5-101" value="&lt;div&gt;Publica Notificação&lt;/div&gt;" style="edgeLabel;html=1;align=center;verticalAlign=middle;resizable=0;points=[];" vertex="1" connectable="0" parent="2IJK8Kk_YS6RuWI4rXo5-100">
          <mxGeometry x="0.403" y="1" relative="1" as="geometry">
            <mxPoint as="offset" />
          </mxGeometry>
        </mxCell>
        <mxCell id="2IJK8Kk_YS6RuWI4rXo5-94" value="" style="outlineConnect=0;dashed=0;verticalLabelPosition=bottom;verticalAlign=top;align=center;html=1;shape=mxgraph.aws3.worker;fillColor=#D9A741;gradientColor=none;" vertex="1" parent="1">
          <mxGeometry x="384" y="228.5" width="60" height="63" as="geometry" />
        </mxCell>
        <mxCell id="2IJK8Kk_YS6RuWI4rXo5-97" value="" style="image;aspect=fixed;html=1;points=[];align=center;fontSize=12;image=img/lib/azure2/databases/Azure_Database_PostgreSQL_Server.svg;" vertex="1" parent="1">
          <mxGeometry x="387" y="390" width="48" height="64" as="geometry" />
        </mxCell>
        <mxCell id="2IJK8Kk_YS6RuWI4rXo5-99" value="" style="shape=image;verticalLabelPosition=bottom;labelBackgroundColor=default;verticalAlign=top;aspect=fixed;imageAspect=0;image=data:image/png,iVBORw0KGgoAAAANSUhEUgAAAOEAAADhCAIAAACx0UUtAAAAAXNSR0IArs4c6QAAAERlWElmTU0AKgAAAAgAAYdpAAQAAAABAAAAGgAAAAAAA6ABAAMAAAABAAEAAKACAAQAAAABAAAA4aADAAQAAAABAAAA4QAAAAAYn8bHAAAdTUlEQVR4Ae1dC5QU1Zm+VdXdDA3MAMNrYHjM8FR5CIpENFEhxo0BEt2NzzxEjVmN0TUxukg0MR7jiie7MbLhrPHFMYLoRhMxZg0CxggKRGEEeTs8hvf7OWB3V9V+t+9QVHdX91RP1+3pov46fWZu3br3v//9/q//+6zbimmajC5CoIQRUEtYN1KNEOAIEEeJB6WOAHG01C1E+hFHiQOljkCoOAqasePmuiXmhn+gOK3xZMsK1aNlZnml2u8sdcBYnTEjHm+ZnLxyhcNhlMX2bTZWLVQP7G2x8qJQffBwNniMVl6Vlw4BT6wUYVyv/22W+vL32IFGFuFoKwV8L8wEMxuZPmikevsLrM9wqTQNmTEj0o4d2Wm88OPQh7O55m0KZQuU53ImPmxe82MFwulygYB0jupP3ay+/7zS0YUu7pPEmHGE6T98Tr10sjyaquEw3Kc2tQbEUqLulWs+JQTGK6u1Xywlh9o8WPhKS/WjxvM/VOZN5+4n6UG5QjFb2I2C2dOYR5k5Zb45bJwkmqqHt6sPnqOcbHL/2RVp0ZMYi1VUR37d0KLMwcokccxkbFzMCdohlZQWWQvGGdTXZ92LtrhgSQ4C4ETN1x5lx+QQFAVGWHj/ttichxzKpqhUBGRydO5vCu/ApWqbehdhoS3LzfUreaPs+YVWfvksb5v4NB0hPLLgkXhRRn5pRfvrViJH1ffnnG7iJaGiMXXlXM9lc9JvWsEOJwc4nku3CTT2MW3LMlsEBR0QkMVRTDY5lOZ1FKYIjL1bvZbK5ZkQq8kQnCKTd1e2rUuJopsMBKRx9ID/RwN8XlTypTElYUguw/fipXE0WuF7bOT7Ud9DVJQKyOJoUZSnQgKBAHE0EGb2dSWJo742XyCUJ44Gwsy+riRx1NfmC4Ty/udouG0gDBXgSvqfowE2XkCqThwNiKF9XE3iqI+NFxDViaMBMbSPq0kc9bHxAqI6cTQghvZxNYmjPjZeQFQnjgbE0D6uJnHUx8YLiOrE0YAY2sfVJI762HgBUZ04GhBD+7iaxFEfGy8gqhNHA2JoH1eTOOpj4wVEdeJoQAzt42oSR31svICoThwNiKF9XE3iqI+NFxDViaMBMbSPq0kc9bHxAqI6cTQghvZxNYmjPjZeQFQnjgbE0D6uJnHUx8YLiOrE0YAY2sfVJI762HgBUZ04GhBD+7iaxFEfGy8gqhNHA2JoH1eTOOpj4wVEdeJoQAzt42oSR31svICoThwNiKF9XE3iqI+NFxDViaMBMbSPq0kc9bHxAqI6cTQghvZxNYmjPjZeQFQnjgbE0D6uJnHUx8YLiOrE0YAY2sfVJI762HgBUZ04GhBD+7iaxFEfGy8gqhNHA2JoH1eTOOpj4wVEdeJoQAzt42oSR1vVeDGmVFS2qgY+KJw46gMjBVxF/3P0UIMaO+65Fc2NHyohz6WmC1SijDWsT4+l+1QEfM7RCAttXWxurVPD4dR6tfyOi9r6SfjT2SzSciHucxrLXjYlfMfcK1D6KX3O0STAxos/gSv1hKYQwr3yzHtZrCi2w3esfrn+zrNFKcyvhSimacrQXT+yU5ncU+0iQ3a6TLORJapHanfPMnsMSX+W572ya63xxERtz0beChfnijHzc2ZceZ96zUNKpF1xyvRXKWcCRznisHSC6bVjlYEXm+17KEZcjx+zLKHFPxdhJd5oRWYGzG3rlBXz1HJWnFbergC+Zqx9VB80Ue3Y1R5fsmGj+0C191Bl8JgifK/OFI4KYyYbaJBVXC0Z9BSlD5rCPOgsCi1O7yKl7JbfwPfj0qsGqDf9jzpsXMsFuch5ZnHURYUpiZcIJJsv41u/1a643UuxqbLOhDFTao3orogIRBg67urv79C3fiKvVOKoPGyDIpn3qTATIu0ijkqDNjiCI0xdMk/eLC9xNDhUklnTdiyxYbGkAoijkoAlsZ4hQBz1DEoSJAkB4qgkYEmsZwgQRz2DkgRJQoA4KglYEusZAsRRz6AkQZIQII5KApbEeoYAcdQzKEmQJASIo5KAJbGeIUAc9QxKEiQJAeKoJGBJrGcIEEc9g5IESUKAOCoJWBLrGQLEUc+gJEGSECCOSgKWxHqGAHHUMyhJkCQEiKOSgCWxniFAHPUMShIkCQHiqCRgSaxnCBBHPYOSBElCgDgqCVgS6xkCxFHPoCRBkhAgjkoClsR6hgBx1DMoSZAkBIijkoAlsZ4hQBz1DEoSJAkB4qgkYEmsZwgQRz2DkgRJQkD+77tIUvyMFoujx1tyCHUSExxj3ZS3+GdSyzEKcVQOri2Vah5lShtmXPW4MvB81rVnS8Ts3aE3rDL++kR4zzalQ0sElFoe4mjJWCT5AyOJ254LXzpZK0SpHkNwQL1+5V3G32Zps27kP+Ljc4dK/dFC6OBd3hiLVVQb/1EHgnoiFCzXLrlBn1pnlkWL9FtTnujtJIQ46oRKa8SF7pyj9RnubckQaEz5gPyot6gGURpGSPrEx9UBY2VUHjTVr/4t//0n317kR1vfdPHKanXCD+TpoV72HfwOoDz5siUTR2Uj3Ix8eDjt/Buk/lochKvnXO5fV0ocbYZD0h9j3D34QumloAgU5M+LONr6djOi8n/KtnstK2hCqzVRIo62JvqibK2NfI6iJL31a9oyDYijLcPNh7nIj/rQaKSyPxAgP+oPOwVZS+JokK3vj7oTR/1hpyBrSRwNsvX9UXfiqD/sFGQtiaNBtr4/6k4c9YedgqwlcTTI1vdH3Ymj/rBTkLUkjgbZ+v6oO3HUH3YKspbE0da2ftG2etC+p9Y2NZWfCwEldoz2j+YCiJ7lQkBn5sE9uRIE/hm19a1NgaK09fq2da1dz5aXTxxtOXae5MTJOezDNzwRlUOIum0tL8ifF3G0te0WYdqq5/V9m+XpAeHa36f59yQI4qg8briWHGPGrAdcp84/4f/N8O+Ly6gtcTR/k3ueI8JCH87W/zbLc8EQGH/3eXXuNCUqQ3aRZBJHiwR07mJwCKP6zI362zNyJ8v3KQgaevZmpWO++UorPXG0VOwBV6fOvMP4+Thj19oCdcJsvb71k8S0r4eevtnXHlTgQOePFsgHL7PDmypbFrIpZyU6Dzg2+uYOVX3Ndl1QgHJ8n8tikN747H116Wxtz0Z+mjOdkesSOEqWBwLJ82xDxzZW/Dk5ihILmO7nUHWmacmzxv3cAU2Di/xoGiClcnsGtNFeQUn9Ua+QJDmyECCOykKW5HqFAHHUKyRJjiwEiKOykCW5XiFAHPUKSZIjCwHiqCxkSa5XCBBHvUKS5MhCgDgqC1mS6xUCxFGvkCQ5shAgjspCluR6hQBx1CskSY4sBIijspAluV4hQBz1CkmSIwsB4qgsZEmuVwgQR71CkuTIQoA4KgtZkusVAsRRr5AkObIQII7KQpbkeoUAcdQrJEmOLASIo7KQJbleIUAc9QpJkiMLAeKoLGRJrlcIEEe9QpLkyEKAOCoLWZLrFQLEUa+QJDmyEJDIUX7eEF2EQMEISOSomShYOxJACMg7I1ctKyd4A4WAVtlbUn1l+VEl0i7RS5GkNIktQQTUHkMkaSWLo1BXnfQ786gktUlsCSGAw/aNiffJU0gxTVOedP2Rr6jr59ExhfIQbn3JMWaWRdmTe9BySlJGoh/lGt89M1E9krypJOO1ulh4UBDUmPKBPIKijnL9qABRf22aOu9hc08jzUa1Oqu8UgCTNmgezXF3mv/8gFZe5ZVYRznF4CgKxpHZxxtWtz2y3VEJivQdAkq0XKkZ4/4M9EIqWCSOFqIi5Q04ApL7owFHl6rvBQLEUS9QJBkyESCOykSXZHuBAHHUCxRJhkwEiro3ST+y07EuRtsu4XDY8VGBkWbsuHHyCDYP5DuBF4/H1RP81+XynVjhP/p1qpqF1AsKhMyYVf189RcZUX33ElDi7v17t+/eqcdOapEyZOzfu1+XzpWWhNYKFG9cj1+wVO8YwRwXIzpH4+EToZE/YOdfZQ4b5+GMBn4zU3vvDeO6+7RvPZ4XxMbKBcqU8aycGb/ZpHXp5z4vfixevamGV/M4Mx+brw4b5z6vPWV9/bpFn9RZMZd94eLqHj2tWzeBletWr1izyko5cdwVHcsrrFt7AOxctmLpZ9u3K0rKFgusQSJmzIjzBvartacvcri4bX05w28A86VR0BA/OohPMqCcbIwcNdX3piuPjTd/PNDYuNgrFJS2leCZmkiB3q1w7NyqiLJIG7fpRTqk78Srib8FXuCHdcG95Sttw+Z6K3u7tll/m3Hbrh0v//n1+h07kFgUAWriQljEfLjiH4uXLcq3dA/TF7Wt53rHWGL4tWzwWBYTP4XJFCPOtq81dqwIbVmutGGhAxvNhy/Sb31Ju+QGb+rpoVt2qRBqhlb6dEPtMluuZIeOHM71OOMZ0jeePJERnR4Bgr67ZJHgYrSs7bDBZ3cqrwiFOCuONR7/dMPavQf24ykYzJYtGjv6ovT8RbkvNkf5xufBY0NX3pVWOzV23NxaZ776mLL6TTha7YUb9ZqhWp/hacl8cWsOm8DC7c34MbOC/2py5oV+ufn+q5kgZKYEb9pFoyAKPmiR3ffaG3Y2LenV9uzJGeZ0gcdL6z7GE3jNQTX9R5093C4fHQP0LtDlWLFhA+gOIR3WrQaJnSTJjStuW4/mA1+KUx7UXjOMCdQBY9Upc+MTHhQeSHlpqj2BX8IYY6EWyr2z8dfxO4Z+ufHY19j8p1zWqLZ3P5Fybf0Gl1mQbMeeXfgLiveodP6e4OnqdauErwVB0em0E9QqqLZ28AUjRolbdB7wPbEeFS1QbI42W7HwVffHe4xEMmXlm9nmAZoVUtIJ3nspVL+cte/mUsmunStBNSQWtHOTC0yC30XKXj2qIlHn37Dfd2C/8K+QDw+aQyy8qRgzgdB5fU9yyMzrUclxFA7VvPCb4l0oZc+mvCrji8R6uA0fKbq+MNzp0ZmPv/bs3+fSjWEKSYjv1b3qxMmTjkV99GmdiIefdvSg9lyDawaI7wlcqT2+OOGS4yiqrVWdxTdKacw8uKc4KJR4KV278s1vGLts3t7gRtWtDfy7DVZlm64C1483Noo0buaV0DdFtxjp4UrhgN3o4GGaUuSogvf1hKdJ4uhhbX0qql+v3sKN1TdsbrYK4N+uAweRTHhfx/RwtMdPcI6iM+CYIDPS6hZ/5kKHzOyFxBR7XO9GV33/llByYsqMljumxzy5uWmV0rBajx9DArWyL+s/NFQzxjFxWiSGLOb6Zcb+LVq4vTL8YqXPCJdLOHwwvu4jUahWO4rVnJttbh8plcbDZqjMngA6K4mTiAw1HhTfQN7bjn0u1OOPohXZ1rTQFsONwYfB+YGCuZvmw0ePgH9wusL7plVf3B48fMiab3JMkBmJOSkM/5Er31mwTFH5xpQiR7VNH2OiFO8hsC5d0+rD2fnc3aHP3uBPddbUCmh8uiDReYB6+0xMDqRlsW45J2ZOVZc+jxgt+R1Q5rJEn7HKLTMcB+BWRgQS7zyr/eEuzBlahSodWOLrTzrPH73xa+XtacqI69i9s4UQ3nP5SQ3WLEw1qhiNLMpCuxab9w84XcSxxsSEB7Vrf3E65lQIhOsYrujZrQeGQQiDgrnXJ+HnwCTwCd73lIz0/0ePcEeLq1MFFhtcXRUdytEzxvdEjMZc5fEoUcm19cauteqH02FOLNVovYbaqwkXCEuH1rzBJ6faRzENqV96q37uJL2yFmMsTP6rj16ENPYsIqyEoli5Vv7zRvWD58Fms/9lyJjoO5Ln2rpY+9kIrHxm5rJi9LdnaM/dyg43oiA26jqUCIJCB+33dyee/p6VzArwUVHyO2DFNAViDCtq1tw+wtYH6bV4k09Nz5W8713VS7ix9Z+tdUwgIuFlt+/iK1LdKnNtgRCdAfQf2kcd16adSxBdUqhRZFdaWn6UM+n3D8OKYA8mSiO2Vw357pAZN6Gbikf6F29Vrp6KllR8w+AgjXdeVP/3fnhfNvNe8/7X05pvPVqmv/54eM3CeFV16JaZyuAxIcwexI7r770ceulWGESdPl5/1GFdPt6mc2jPOvb0HUo508ffp0z6N6O8CpDxDsOzt3N+z38mUT3M2ZvaDA21jamLzEh7JRJhf/lvZcF0vIqo3T3LjNkWo7J0bIQYPmpJujHQK0dzbzX08Lu28lOCyJ5y7+4mdwfDnYwWpiohP8rb8V9dp3z6MqqidxuAiVJ7nfS6hXxaEY9qx4Zu+529q4dunHb1fewrPD1elTZ2fWbPiLCx+d3wu78CQbUf/RmbPASD8Tf05VsSNz4D0vP3G197NC0XbsOfHzBenMo7Et98ErtSeEHJROgbaFP/iiCcfehPd0PzZHSuP+iEIBcOSkhEO8FrKpG2CHM51qe5nStiAC6a+2wl7dy7W3Q04XezpbHH51jHtyezhyEfy6T2GNnh1uBoRBi6qWpo3OOfztOfulm9p0Zd/yYYg56lMmVemi9UV72NR8YRZl7zc0dQjAn/igQwv1H/kT0BGBZe+Rd2oFG90aHfaV7yHTT9SKP9/RloYs+IMPqOcJbG0MszPSXU0296iZMbfdT5z6VllHEraAeK5BhZW8tL2bY4FaJYhzK0U61wFb2tj3DHY86dAvNjAIFRiBJjUIJvhgqxWAeFXfRT5eoHQxnbSc3x32NDxwOh0EDnURE8a6yTEt5nmrsdZv7NcyeERk/IBBhNWPzSbytPL0Q/wahbyDIOhDE/Z8r1P8/MiBj1wq+zl6O8T7niTfOq+9O+VI5ZCokE7dCDxKgFPc742Q6je3QTreWlHAXBE0NIjgSl9qg1/CgYmRw6cOuGODv5Tja0yH0v0x6qj1z7C8euD28TR38DnxxU0Lp+mQ8+wu3TUAbPzC/fkhZp3aqj/omPgXAtfd2KbArEmF41wMwyV8Bd6cgbkDK8a7lxpGlpJ12Cp/fWlCd4linYGnFjb3LmU//GtAJH451HGl+6Ux81WXywVS/Wtho0UrcsxLA9NuehFqNptu/snBedi5pznR/BHZaVG1WX4am2bV7mcNy44PqUrkmqFGXwZbw7iz7GphWpT6TcDerPz/3KNgEkZvjhazFPlKN49EHFikCONCX1qOhtPeZfxnxb/cY9dhQwxDbXLdFf+D7mj8JvPqLHP89327yQZmrOX7l4ZXW4PH2q1VIA7tCo7Me2MPNQ8jUP26kbIJ9ae4GVMjOgdD41fG5Yz0ZnPvc4BjOjorkHHdPWMNHQi+VNLB05NkSFq3L0ZK7ZscLlZ5PgbNRsqT2J55uaUy+whA+3p8xLVNSi9VffnuZmKz5nNuaP9m3GTBDSY45TPbyvaRHVJh88C3U/N0cPAWn1btUiB9aHbFmTwYx1BHsC7BCFwvxqLNIqtmjuQce0SUo09KKXiX0kdg1zhx37DLmzYH40r1nV3NLcPC26H82uFAY98W/81Hz2Zljd/PtslqUXCAF8evLj+eqaBcbu1aHD9bypTTbSKlannBpms31WJ5qmTsqEJfrN+MK0rUhLY7/l85144wUKFOvq07sGe+pEc28fvB84zJeO4GW7VzZT2ZZ5WfusagtmrAqBpxX8aA51MXzhazkYP9W95ZgM00PGYxOVe0Zor/wIG0y1/XyrGB91deAfThenS+3QzSnaIc7U8xvwYv2dL2/iS7V3i4M4CVGgoOhN2veXWMtL8LJuKCi2koDoec10WmMyN0V4WPUS8qOoFSbJzeoL2OF6eEe+KJo6E8Tf1Zw2nhOiDYt3q9a++oA5aJRS2UdkxF/+FuhHb7QMHe6MMX7K6TUdJDcewewE8ipd+zo8lRAFfoCI9Tv4/hI098KVYh8TCIdWGF7WTZnWmCnW6PYUY6xgicVYrLK6KcLDNKXlR1Ex/ewLBV3Y3pS3cEBZTlCcJ9jIErc9p/26Qbvidux14ms/p0Y5xtEt6I+KzVB2jPSDm+23meHwiRiojwt+Me2pcSKjh5qWInnL1+iLdYGIoAtIeWDfLlGmeGsUTXCzDb1Ij60kkIDw3qN845iby1rBsncw3GQsPE3JcVQddH4TXTb8w14989Vp/BYTlt99MnzpZKduJwvv22DPcjp8qAGjq9O3qSE+9tr5KY+LMGuJlb8ulyxDPZY1I3KYydeGEFC6u3JgvJSCLxBR9Agthont8S4bepRvSRAbUNxoZL2pUvzJ15LjqNmxp+hWmnV/srADjfByM2/ly6Jaltl4vmiOvXOp5DV7D4MQrGdaojIDOMgksZvPbsY7Kaef4nxN+GzMfe5YdzoyI6SsnS/iNOxhLdYlmnuUJhhmbYzPsWE0TTVIsPbV4/XltKeZtyhCdEbRSci9MzAzb+ExJcdRtbxr04z6nhXWjDpWcUKHOFf0btlnkd57RThgOyhKrxq+iwrrTFvr7PH2sLJlTXj/NsTwg1JOXVADaw1cYObi06k0UM9c/hq/w0bBqtpT0cX4L+iI5h5dUmv5Hm/PuS/7nIF8OQAXXqIXgRx/rZef0iZlc2Tx8FHJcRQTmeaA0byGhxtZxn4iM+Y87kZvVZt7v8O4fvAYSOJ79jCZleUy3nmae2jMT3/xeisJ1NAGXYRbrX4e3xztdCkrF2h7NuIJVkStToJTwtS4tvwlzwIv62VRvEcvJkoRk1dPEa86CU7DQeLUnRz6oCNhOdEhtQNzpJT0qOQ4inoa1UM4Y9Bqn1pghFdLdByMR3xlPGN3EqZLlYfPcwQIwyl9CN+DgoN6HNcF9GV/DH0yBwn0gWPT9vAbQ6/gaoDif/gl/5dxJZ79Lu8PYBV33OSMh1kj1CifCMM+/GzUz5rT9gB0FI21RaAcG0Zt+VKC550zQtzjWKgldR/ZZ0CtdKAvHolbHABR5FknUW4pclSt5YTj7SwWGJOX8Gp8vI/9+Q+fl9i0BO0sMAVfsb6PjfSYAMKOvkT/SWIyX+QSf9V/eURQLTH9WrDZ/ggE1X57FWRCsvrtJ+yPEMY+KRAXAWXedPzshP0p6KU/8hX0EDDJYFw4OY3c9pSZYbXfWeJNGP0vMzKfuo8RpERzjywYpLvcMGqXj54ljn4QM0rg+py3/ohzndA9FR9Q87W336xbmxxNMoZWHh8MDOC28UEaqx9slykjnJxxkSG4AJlqj/78MDDMO25cdFrMV3/AFkzHLTb1af/+BRBLBU91FuGv1HJnhqVUY9YDmfuesMqqX3mf+ta0yOFt5tQR8dHXqyMmmAd3m0texAlTDEtTR/lkVthpWUv54UvmPTWgFDb5Jxb9jn3xDqVTd6X+A3XBdN490Ln31b7/1GklrVDq0M2KRgBv+eGQCzQI4T89klg9Xxn7LVZWAZmJyp6RSVPsKXOHQUr4P7GjGXOWeTX0lmTQrm1ZGU7UEVzHCpY4GMJKYAUwPntx0yvWLQI43aQ446ficvQIM9A1dHGZ3ceYKxeqS05PyPMd7HfN1X4zEbnRwvIrqTv3ZEMvxw9B8VlSrNcf5/OjaQzBDpVE+x7aH37EMy2bzfABv5OJMFGg3zEn7LS1FInRyzSeWBP/5dnhRpN3PSHByogh/+V3hiY7EJS/+XmQ4bwn2zQB11dcaBOU22bE/utCLrN+McMH37FGxq558FSSpv9iCjMt0roFKUFNHAyBmNwNPeQIClp57QF0TPGB1wQLsXwvSG9PIMKQYH8EmaIfnJnS85jinT/K54/q5qECSu8haQtImbVC31EcAGGc+zV7H4hPML33CvyrebBBK++lVJ1jXjzJamqbcnWvxWZTB5lYR/34r2zVfJ63TUfW9xxz6Hh1xOUgTWZieww6FeriV9kn77BD28zEcdaxt9J3lDJ2UrZa8B7F7nqlUzdLMbs0EUZvwVz6lrJmEebUEKNGu7Av3WQ/KhCFYvWoLNIGG+3sCNhFgSViMRObPLL5USEHubKdB5EmMJFIHHR3Rl++ozR7QXmFi8fRvNRqNjEYjzTN0stRTovztjijoxoiUshscV1ySD5jHvmVo2eMAagizSJQiuP6ZpWmBIFCgDgaKHP7srLEUV+aLVBK/z9KPFygGXip3AAAAABJRU5ErkJggg==;" vertex="1" parent="1">
          <mxGeometry x="77" y="250" width="60" height="60" as="geometry" />
        </mxCell>
        <mxCell id="2IJK8Kk_YS6RuWI4rXo5-102" value="" style="group" vertex="1" connectable="0" parent="1">
          <mxGeometry x="50" y="420" width="120" height="66" as="geometry" />
        </mxCell>
        <mxCell id="2IJK8Kk_YS6RuWI4rXo5-103" value="" style="rounded=0;orthogonalLoop=1;jettySize=auto;html=1;strokeColor=#999999;flowAnimation=1;" edge="1" parent="2IJK8Kk_YS6RuWI4rXo5-102">
          <mxGeometry relative="1" as="geometry">
            <mxPoint x="53.8673289119289" y="29.930232558139778" as="sourcePoint" />
            <mxPoint x="118.29545454545455" y="60.627906976744185" as="targetPoint" />
          </mxGeometry>
        </mxCell>
        <mxCell id="2IJK8Kk_YS6RuWI4rXo5-104" value="&#xa;&#xa;&#xa;&#xa;&#xa;notification-service" style="group" vertex="1" connectable="0" parent="2IJK8Kk_YS6RuWI4rXo5-102">
          <mxGeometry width="120" height="66" as="geometry" />
        </mxCell>
        <mxCell id="2IJK8Kk_YS6RuWI4rXo5-105" value="&lt;span style=&quot;color: rgba(0, 0, 0, 0); font-family: monospace; font-size: 0px; text-align: start; text-wrap-mode: nowrap;&quot;&gt;%3CmxGraphModel%3E%3Croot%3E%3CmxCell%20id%3D%220%22%2F%3E%3CmxCell%20id%3D%221%22%20parent%3D%220%22%2F%3E%3CmxCell%20id%3D%222%22%20value%3D%22%22%20style%3D%22group%22%20vertex%3D%221%22%20connectable%3D%220%22%20parent%3D%221%22%3E%3CmxGeometry%20x%3D%2265%22%20y%3D%221320%22%20width%3D%22710%22%20height%3D%2285%22%20as%3D%22geometry%22%2F%3E%3C%2FmxCell%3E%3CmxCell%20id%3D%223%22%20value%3D%22%26lt%3Bdiv%26gt%3B%26lt%3Bstrong%20style%3D%26quot%3Bcolor%3A%20rgb(204%2C%20204%2C%20204)%3B%20font-family%3A%20-apple-system%2C%20%26amp%3Bquot%3Bsystem-ui%26amp%3Bquot%3B%2C%20sans-serif%3B%20font-size%3A%2013px%3B%20text-align%3A%20left%3B%20background-color%3A%20rgb(24%2C%2024%2C%2024)%3B%26quot%3B%26gt%3BVideo-Processor-Service%26lt%3B%2Fstrong%26gt%3B%26lt%3B%2Fdiv%26gt%3B%22%20style%3D%22rounded%3D1%3BwhiteSpace%3Dwrap%3Bhtml%3D1%3BverticalAlign%3Dtop%3B%22%20vertex%3D%221%22%20parent%3D%222%22%3E%3CmxGeometry%20width%3D%22710%22%20height%3D%2280%22%20as%3D%22geometry%22%2F%3E%3C%2FmxCell%3E%3CmxCell%20id%3D%224%22%20value%3D%22%22%20style%3D%22shape%3Dimage%3BverticalLabelPosition%3Dbottom%3BverticalAlign%3Dtop%3BimageAspect%3D0%3Baspect%3Dfixed%3Bimage%3Ddata%3Aimage%2Fpng%2CiVBORw0KGgoAAAANSUhEUgAAANIAAADSCAYAAAA%2FmZ5CAAA10klEQVR42uydC3BUZZbHz%2B3wclAeIyqFDrikH9GZlbFw1kWn1N1ylh21dtZRZ2a31qp13WV2eZqQJ89GBQeEEAJxREWKUlHzfnS6052QAIsBWYZneIaSwXEdXECgu9Od1713%2F9%2Ftxq%2Fpm04I5NGP71T9695%2BJrbnl3O%2B%2F%2Fn6QiJE9EkUqpL5pCr92KUm3efwTUyxtzycUu191mLzzjNXe3Ms1d75OH%2FRUuWdZqr0%2FsBS4hv6yC7V8ESDKpEIESIQuY0SrWiWHtjhH2%2Bqcs%2B0OFrtFmf7mRRnmzfF4e8ARIrF3tKJc1%2BKq%2BOblNqOzyzVvuWWMs8PU97xDHl0lyrdXyCAEpHAMeLlasMtK3aPuy2%2F6bmxG44euC3viHvY640dw5fvkcesPahM2HxGMZZfUgBTUC0yU4qzvQP6k9nm22wq8UyZXNYydFqDaqAmAZSIRIv8UwZpYf3tSa%2FuWp20bNd5WlAvU3adTDl1KmXXqpTlUiUcR1h3qndvOataqjwq2rugNKiUlJo22WL3n4XeNld6HjWVXBxOuVckKtwrgBIR5zFjo0TWhqG0cNu9tKRhCy3d4aZFDTJuq7QAAkgcpgBQhqw69a53TnOQwoFytHamuNrPW2wtH5hKLj%2BWXHxlFBWiQl2%2BLIASEacxa4uBFtdPAUQ2QNRBi7YFIapjCoLEIaJMVKYMp5oEmCZ%2B9LUKcLoECpJRoQCWz2Ou8peay72%2FSC67chs1NUnUrKJKibZPRLzEv5YZaEm9CRC5aOn2TkCkQCotrNODlA0BIk0AiebXqLeu2KuaKt2qGfCEysLPFTMqlMXuk2FYfGuu9G41ll95fFLpxSHE4gNUKREiYjreQ0VYsn06ADqAo8IhCgMJAGnKCoEoPaCk%2BS5WlThE3Us2230KXEDA5d9nLG95yVjivlurTLNUSVjnImIrrJcCCbuo%2Fqdk%2Fe9mVCMFrZ0GkR6kqxAxXVuNmAzznepdG5s5LD1LYYIZwYDyWhwddeaKlheNlS2jARJgapDuOndOACUiyuPlQokWN4ykZTufo2W7DuKcQaTSYsDTFUg53YMkpTrUcRuOM0B6r2rW9rGWr8NvqWnba7H5f2MqvHxnyvvfJv1kr2qYclBUKBHRGMvrJGgYWrl%2FAkR%2FClSibRyicJByQkFyBZQBpQdBSguCtP6oaq7yXq%2F0QFVpFUq2ONp8Fkf7blN5S6q5xHPvjytbkmgPYMoVQImIHosbzlzdOFpan0Wv7vqSljbIACgSSGEmg%2BuaasRBcqjSKwApn4HkiSBv6LEHsbavhQHVbrG3HjZXtWSYK7x3%2F%2BDDK0PofdVgzBdAiRjMsDYwiEbDUMgk604PXDqZwRMuDpLOrdODhGpEqUGQ1nGQ%2BkjM6ZPR7nXCOj9prvAsNxZduf9HW73Dxq2Hy7dRACVioCOD2dvbRmMd9CZmRBe7h6gOEGmKUJGcwfVRCEjz7Bykvpe2hgJMHZaa9v2mcu9rySXue6gAIP1ZzKFEDFR8rkpw5u7BWuhTgMTaOA2iSNLPj2oD4tUI4usjeuUqSE0s6ftbqFCabe5FtVpvKnc%2FPHmrezhr%2BahRACWiP8KKxLIWSgBjMkyFDzVXLjgj6km8IoWCBIWClK6tj4IgVXOQ%2Bl%2BadY5ZVCfavtOA6b3kEs%2FjtI8ZEoUSbWwRw10RfRRLkVCzd6Gd2%2FEAWrkyrIt8HKLegFQL8YrExCsSIEodYJD0QMlo%2B1SLve2SxebLwzrqYWPxpe9RvkcaJXaci7hJU0GiAlcSZkNTMWj9DBDJHKI%2BAInPkDhIczlIgyBFk72VDXfPWar9m01lV35u%2FOjKqL%2FeqkrT0hpFhRLRe4ggzIh2PgaI%2FgcVqZVDdGMgAaIIZsPV1s5%2BbUWqDFWfwRL5%2FSpDgdKGu4qlpuOiucrnMFX4nzSVtoy6lVnm62sFUCKuDyJAMAKGwS%2FYvrmuK1EdUwSA%2BOMcpHDr2xlQehhIrCLlNbGkjgYpkGzRKlS731zd5jKXu6cbS1puf2yHanh4j2j5RHQHkQaS6zm4c2dgLHQACAVSb0h6kKBQkBhE0QeSHig23PXJAOprs81vMxa7fzVpy8WR0%2BDwPfa%2B2HEuIjSmN0pI%2BjswG5qJatQBcYBuGqTasO1BDKQaDlKqDqRolaztlnC2y2j5jsCUeBlbkO4cV9aedNebokKJ2LRJosW1I%2BDMZQOkC7wK6aDAue4Ihd3Wmwx6kDK6AGkOBymKpTBhsCvD4fNgC9J2U7ln%2FuQP3GOnzgBMWQKoxItC2Nu%2FKTfQIlaJtr8Gh%2B4iAFAg9ebFQYLC10h8hgT7m1ckGwcpNnR1P5%2FfVOGtTS52T7%2FzHW%2FSuE2i3Uus%2BH0Vg2g83LkCqLUvIdJXJBd37HQg2WMTJC5WobDrvP0bfMFwprnQP%2BIJq7hAS2KEddsQJLuRFm%2FfjGrkwS5tDlGfg%2BQKAUm3qyHWQeKq8nbiy4UtxjLv3Invnh9KpaLNi3dnjlWiH6GVswOiNl0l6o%2BKpK9GIduDYh8kLgZT%2B0Vjie95UgVI8RsvlbOr%2FNyDDah7AFK7rhL1V0XiIAVhCgepGmYDQFp7RIUbFtuqasFQt%2FWgcas7mexivRRf8W%2BqRAsaRqASPYUkPwyQFF0l6v%2BKxK3vDGg%2Bb%2B04SE0xDxKENVNbh7Gs5feT3nUPIxHxdSF7JPffYefBMQgA1TKp%2FSo9SNdWI4AEiOIRJNbiyZbqjpPGIvcDJCIOwsoAqv8e1kLPQ8c1gKA%2BhCXyY3x%2FXQSQuPVN8%2BKmteNVyebvNBV55pGIGI8XCg0Qu9LPi7Rk51dIehlSILXfxW3vCCA5AiClhYA0uyp%2BQIIs1a2yubK1mETE9rUVkLi306KGTMyIzmC%2F20ABpLO9u69I9m5BMvEjV9hjkWSKdLv39%2FHHuj%2FXmw4VvmYSEcMWd07DSFy0fjnmRG6sjeQBBYgrDCTNseMQMaUF1kc0l7V2VertAAlJGR%2Bq9KqmMo%2BPRMRoJcqpG422ikHkG2yIOEhOgMRnSLwixTFIkLHUo5KIGIsZeQYksBFt3GYYDJ045xANNkhZHKQgRGEg2dDaxSFIZW4BUkzFnDmYEzmTMR%2BqRBXq5KZCNIAUhIivj6AQkOZpIPGKVO6JGxlLBUixEewKP6tXM4v7QVq03Y6dCj4OUZSDlBYGEqtIuQIkEQNvb0vanCin9iGsh%2BoBkRIdEOl3fAOkSNY3JEASMVixpVSipfYkVKJncHGS3VgXtSJxFUjttVji62%2FfvLJ7AskeBlKlAEnEANvb2c5baIHracyJvkQlkjlE0SQOkx4kOwdpngBJxKBc5cc5hHKcv8SOhROoRJ3RC5GTr49CQZofAlJqdQCkOQIkEQM6aHWOxfrjFQDkhWSeuLEAUg0HKc3Oh7HzbFdBEq6diH6ORzcZKLtmFOBZArm1GREqUcyABIiY%2BAxJB1LsVqQyAVKMOHNWCQv2CdjyswIzohYdQLEDUtgaiRsNoSAhMbsVT%2BBeqe%2Fet7yn%2B7iMJQKk6IAIQjs3Dvb223Do%2FByiWAGJr404RHwYy0GqCoC0hoMUWxIgRW%2F8RxnaOccEOHOfAiI31kYxBBGUFRkkVCM9SLMESCL69t9olZCMQ5CIDwKgIkhGYircTo5gMeO85%2BdEUDY%2FRlTOdf5cbnlz6ds6DtK8qyBVAKTDAiQRfRSZ5ahEzslYEzXQgno%2Fg6jr5HayY9SKQ%2FQdSFCY9a1VJAFS91GgSpRXLpHVaaCVriQqLDRQoWqgneLf7Owysm1sPTQS7txTaONOAiQFsDCpMaiuQUoXIPUuchslWnVeonUnR1D%2B0ftp3bGfUd7xZyj36CO09vB42vilQdsndkgApcVUmAqZmwxIvJ%2BjTWoGSDKHKNZB0jt2gCgIki0A0mwBkn5o%2BE5DEsC5l9afepnyTzip4PSXtPHseXr7j9%2FSW19cwH2naN3xtyj38EO0tNFA4p%2FGIFzZ5xZs9flnAASIXLwSxTRINUw6kILDWAFST1fxBEQ%2FATw2Wn%2ByjTacUnCbSf5O608otKFZxuNf4XY6rdo%2FBtVJm5ck5FV%2BWOTUzYWpcA4JyCGKG5A4RHwYG1qRqgIgzRQgYfKONi73xHDKP%2Fa3AOUI1IZzAHSUSe1CGlwArY3ymj6hNYcstPJDA22sTByYXio20EIn262QBoi%2BQSXiAMUVSA6ABHHrm4MUcOyurUilnriRsbg3IOV%2FLtGGAyPQsv0a8Jyg%2FOMcoJ6lBCtUM7158HF6fc9wsu6TEuLaCgtc30c7txhzogtIPBlS40q8GoWAZI8AUmUApNWJCpL1SiDp8479OtiqKZR3lEnthRTAJ1P%2ByWZac2QOrTo0nLZ8JcU1RBmuW2ERr6GFDR7KrpX1i3R%2Brk%2FQsHPd8%2FX36x%2FTv6f%2BvfXP4YoEDz%2FnayMHk96x4zMkCCDNTFSQCu0SrT16B6pJJtZEbg7QjeqYDBhRyU7YaOUfkum1HUOpsTF%2BgEpNlWj2u8yZ%2B0vAU4QZUQfOZUiNQ3GQoCBIULAaQQAptCIpqEgKWjvZVOpVEgekN%2FbCVDg8DO3cQkD0bbASqX0gBTC1w9XbQ6sPTic7YK2oiA%2BYMhokJNi9lOUqp%2Bw6BpHSP0lcM4DA1ES8Xw%2BS3mgIgqTQvGqZZlWcGV9wqt5U7mtPDJA27jPAIJiAVmwlqtE5zTQABH0oBSDJsM8v0JrDv6WFNSPo9Ri3yDdskdDuPAJ724GWzoNEUyA1rsUhigQSAGKy%2B2mu3SnNKJlmLLqUZa7wtyEJlfgGyXrcgCS%2FE%2FAUIdH9SHoOUd9Ks80Bqgfnn9Dq%2FZNojirRP5bFVnWy%2Fl%2FA1s%2BumQp3rolZ2xyihAZJgWS0d21o61bRf5VOMJVcNJjK3BkmgGQESJDKxZNTfx%2BX%2FnmRZWLq%2Ff1cER4zdgvStBckWrl%2FOJJ6CtYypWjp2ng7169i6yYZ8O5Aq%2FcIvk6QxOZVsWFvF7JWbiSq0D%2FAmWsMQqQmjDIdkaxvBUc%2FpTmO05yK39KMorH07%2B8aJrpaDMYyT7oOpBhW8jUg5Qb2xsFYeBDbfKqhyM7cWn4MSHf%2F9Ym%2FH6S1egoq4NeA6T%2FpjX2j6emz0Q3TG3USvWobCoiewZ65UzjKLLkSGyQ75FBofk0nIGqgWWV%2FQ09tMGguJqnSxHLVYCwFSOUAqcSjQCrEE7OEH8Me093WP4%2Bf6%2B%2FX%2Fwy9unttpN%2BFg8Qn72ubfkgbTn9Ga1GFkNiQOsACuJpFfgnnebTywBh6L0o3v87YaMDsZCiS6XlUojNYEzGIlMQFya65dQBJocy6VrR0n6ISmcl6SNK%2BMoKIBFKsK7kopCIBoJ%2FR%2BtPHKI9DNHhi24w0i3wvrTr4EOWdGEovqFKUXSprDOW45mDbjxsQdXadZNeTiP2R3AP0ukyIVyOF0lGFMlzH0dLNpaffSsLeQm4exT1IFaqEKjCFCr7Yh8SVOUSDLgZSB363P2oDXBbWPYPv6hUUSKhEY5BEVgB0UZsRIaESUtxkQCWuk%2FG57IJL9ySlOYfT7A0SIRIHpLXHxuOv%2F8dIWB%2BHKJp0jK2bfDhfTMs%2FH4sB7uDB9KQqUabzDsyI3oI8SKSEhghSAp%2BB6wI%2Bl48ptWISWruhxCOhQHpeW5Ngx0HUQcSl4Hf0U%2B5RF60%2B9FfamukjaCAvUJKWyyrRBOxUyA9O9JWEh4itC7Nrv6b51emA6A6am69dyOX6QXIHQXJHCRTu8Nu9AGl98%2FuwuTujFiIumTmJ%2BH3PYoD7K%2FrdH4aRdQAGuKlIjH8pMSBhjIDoYyTPpa4hcvScfD0%2F%2Fybfw9GnPyvy67TdGj7s3NiNtu7vKc12K1ntHKDrAsmngQSpfSgOwMAJIF1RCcnZDA1OS5d7I89F5cw%2F5aY1TW%2FA1RtHdu7q9YupkF%2BRBEfqPoBkgwCQg0mNU3GAIimrhlUhH84%2FAkBGWrUKnz%2BvQoMNEjQ4ICFB2yEkahOkHbn4%2FREfg3TPifB%2BkZ7fg%2FTvFbDnj3uxtiui5bv%2FAmBJfTzA5V9gzHKYkDg7oVYOUUJKYcK87DJa3KWUXn03zcUIYMYMiRC9AqkEIJUFQSoOJmQxF09S3X265%2FFz%2FVH%2FeKTbkV%2FDjxFez0Fq6oDU2FNg5gSYztPv9j9LaxqH077%2FlfoMomXVtyBxnoKpsJ%2BtBRIbohrWyrXieAAA%2FfS7r4nwuDGQigMgxbiCIK1Fa4e%2F8LEIE6SwVg9GyTn8d7xOGRUjYZXf3LrpxTcDlSjd%2FiyS5wsIs5GbgCijP143oO%2BpYFbWjs%2FhE0q3TaWCaunqTE%2BAFArSulOf4q%2B6jKSMVZggNnPSXL0qrJvuoxUeiU7cwP%2FsJ%2FCadOdoLKZfwIDxK7QwMtZHCqBiSZhoUvA5dAKgP%2BNzWIbPYDyG0EkUDAHS%2F7N3JsBRXGce%2F7pBRmBjYjtxCnYra2HH64TCTpw9yrvZbJx4Hdfm2I0T1k628DocAoRmdCEbHGxG94nwEmKismPXOlwaJI1mdAtsYiCEQ%2Bi%2BsMxuUsZkbUwwQjHo6O79v56W32havaPROTPdr%2Bpfr%2Bfo0UB9v%2Fm%2B9%2F9ez4yIl3ZPYOfAVQQhg0kJX7WrpR4yVBtu%2F4C%2B%2FrRABUG4emzB%2FNOGaPRENiJwLiBwZErRIPKTGSBCSSvDlTsLa3sFPeu%2BiR71fjBZIBmBlN96KwKvWivvmJQwlsyyE7Y6XabCtmTKbryN6gBTcYDvh9jSJ1Ci52aAk4qM9B4DCAGkYFZlKpjQYEUWuoZsVIYPlS%2FjOIp2eq1tC6T%2FD6Rv1Ymwkr9Mu873ACYJxzKkjFtFk3o8%2BL9RNK7nSyhZh6iwow579ZayJiEAGTsYVlWIlOBZjJ3K2bSpoY%2BSqmRIoWQG0ohMARJKObXB%2BiH%2Bven4P7jTd0OzBVIgkLQBiL5JO3vfoSIVJiUChOzEvirsncOU3%2FT3lHV8DsWdFke7c9tFSqqYRwlVhdgf1q9ezZlYqWBWvDBBKaYAiq2HWCmHdWH9arLVRFNirUjasEAaL0jqFzdWCiiLluOT%2FARmBGKnHBFA7egaphfPfYwSNp1dlgF4hE96RHHuZWSvclJizQDZ3DIyk0IJDCQIIDGNLzuFA1A1BgDVychC%2FVgXVlJS9f2fbInCsEAaJ0hO34xUXCzQNgTY9q4HYSWfgBhIcoRkJmZCXIep8l%2FYWnSXCtJ69xKA9CbZqgYp3i0DJEWVXYMJQmaCRoCqBlBMBmun1LCTzEBCj6wP2SgPWXkxPXuIryenG6RygHSwT4aUT1TKZgPxxyeu0vG%2BRjDP4yDx8dC7Au12iVTYfjcyUjmCbwiBGDGlHkAawL%2BrjZ576ylaV14DkIZoQ4VMcRUKbYTix4IJ0sEU9kCxBusQslEnYHqakioXIAuJNO0DIP0MIB3UgRTG4iDpx%2B4WkfI776Ci7gMIvsGIggmZFmXeMG15S6L1LpnWlyu0waVKA4rDBPnBZAAUtMlPAcEKArxNUw1RA1MtpXgeotSquSPbqyyQpg4kPjyKCNfr0yiLirFuuoFPcg5TJAC1HevA54%2Bp8PjDxLPTKJj0QCXz9ZNOHKaQEbLPENZCf8TxLrzvv6BVTnHEzbRAmh6Q%2BNfu7mqdB5i20X%2F2Xh0FUyFXKMJi%2FL783ndWI2BBkK1jMEEqTC4GE8RgGgOoJFUcJkOgQgYmGQAxV66HkittlOhe5PurIBZI0wcSH69eFqmg61Y4Xy8ApmsIQBlSIkq5zQi2wwrFliE7%2BcKky04QWzt5eIbi2UlTyMEkwUxgILVh29M%2F0tbyuSMNVgukmQGJj3%2BvEdW5sPMpwHQFc4TB1O6dn%2F8NQHJp2ckF6WDisnOYQjQ7yQBHhhP3AeZf4H0uJkeBMJKJLJBmFiQ%2BGhSBChvnw4BYSTvOvcf6TBPLTu1BPx%2BaAZCgAijjNDJOjUF2co929iCenZg0kAyBmtFSToIuQhvx3m7zvezBAml2QOLjZK%2Bg7qwu6voqQLqAWUYAMikRpbwWQFCn0NpSb3YCUDAhoNEwQRwmbkjMcqmnbvXpRzl3klKqvkYbPNG0mW%2FzCQmQnNc23TMCktM%2FKMcRvE4%2BGwf3ZMAI8vklACnoYdsjUEGLiPLuO2jedgCm4YiEKb9VoZ8eVdBnAkw8O0FaqVfhAxPkA5OxXW4EVLWB%2BOOBxbJQDctC11HOvYy%2FtUzNQj%2FO4RCFCEh3M5DKPh5AwMqQEu5aGiRIekcvv%2B0egHQKGhwFU0EEAcVKvfhKVupp2cnlU%2B5BvkAl6Eq9cZoRwUp3HiCqHUCD9QLuT8HfWaxu89H6QxZIoQ2SAInYv7aYdvTUY%2B00AIBkSJlWFU7m3Amen90EABr4uonDxPtOhqVe1dhApfhuitVmvTg0xo%2BPmApHKKXyUUr1RKlXsWrDAim0QeIwvfTuHGSm%2B5CVXABK5jBFmHKxbtr8a5aVtFJPhUqDyafcM1438f4TAOLiQE1AEtZDQyjrXJRc8yXv9%2B%2FVqRBZIIUPSHy8xhy9zgXISrvh6F3nMEWgMhsBDSCJLQVIuiaubs8eh0nXzJ0MULJmKryL19pICeUL6VdlImnDAik8QeKXYhS03U5FPemapRy5MGUBpuR6zdUr40CNgmmMci9RVSCgAkMEaxsgtSIT%2FRs9ViuS3dvns0AKb5D42Pt7ZKZz0QCpCBlKwixFLEx5rSj1jnhBiuVAGWcnDtQYMEEBYZIBDrsA7ypmJ7b6PEg2XJSoDQukyACJj6IOAdbx7ZTfngh7%2FEMGU0SXettOeF09np30RkS8Kg6UHibj7MRLOQl6n1Lrt5HNtZDWV4rclQtjkEqmOLBLmAzvhwKca3S7xPi%2BpQcA0rQMxwWRsn8XhUD7IUq9i8hOw4aBmM9kcD%2BfjZWvv82lf53A54%2FvtfltzdVLqOEwaU1cP5tcD5OqQGsntZS7AYDOwlD4ISXVLiRHMf%2By%2BnAEqQQglQKkEg2ksNb0gcTXTPndcym%2FYwUVvf0OFQAmBF3EKq9NwTVOqkUO6ddOepggj4EhwSGCJEBUQonu5SghR2UhC6TIB4nb45ktUchID1PRufOYGUxy5AIFmLYe9%2FaZYnl24kBB8byJa7RnT4MJpVzDnzDvxGOfUTebrnxdhcgCyTwg8eFEZtoJ5bXH0I7eN5CZ5MiGCcpuBgy1aqnHsxNklJ2YOEyy%2Bm1GKXUtyFo%2Folg0WFNdImnDAsmcIPEyjym%2FbSlt7zlmCphy0MB95k2A5OvqGZR7HCaJkmsHUerVA6K%2FVrPQ6lcEwrBAskDiI9sJmDqWUWG3R4NJivB1E7%2FGae1BwGS4dpLJ5pEpoeoiICrA%2FUsoyX0TPfCACpEFkgWSfmyoFwDREgTaHqyZhgBWZK%2BZ2Jx%2BxuvqrXHy7MRLPUBUKaHfdB5W%2BWpaty%2BaHNyRs0CyQDIeOYqIvWuLEGSvsM2umCUWdIbKY%2FN0q30aX09r4CbVezMTYNI2wMoU575OG91v0PrSvyV7%2BQL6%2FEkVIgukMAJp%2F2yAxB09BtNC9GMy4Oj1AxYJUkJLHOQpUS67xumY18lbWyaj5LuCXtNuij14F8VV8cseIh2kAwDpIEA60CdDyqRVwubZEgdpdmEq6LgNa6YtMCH6KLdNZgEX8Uo7LZO99gNadWAN%2FWT%2FIlre9kmD1QJpIjI7SI%2FvFGm183aKdSVT6puX8YltCpAgGR8el%2FDBsY62nVxAu05ZIFkgTSIbxWPP2DpXFm1wX8W6AQ3Iw2oPxhQwwWRBNr5C%2BZ27KKtpsVXaWSBNbMdDnOtzWB%2FswGL7Q6wZJICkulpwt9QejHkyUxfUfZoymu5XP1z%2B9YpggWSBFHg8WSGid7IEVm8xdkcPwQKWYAVrTtZBwAQxmDIazQSThAzVQdmta%2BHuzSdHh2CBZIE09mBd%2BkONAtkr%2FwrNxwr0Ta6pPZQN2l40BtM6Daa1yEzxHoUyzxq4X4Fv8zl48fNm8HXy21lmuo7n%2FIzSTy0hx1GR%2FTqIBZIFEh%2BOi4IKUkLFMkqsPg6QZNbNV7v6cZoYTOv8YIpzM4eLBaBZJFFhzzDmBqwV%2F4aOHxfo5XbBAskCiVQ3yo4mY2LFF2lTfR0lACJbBUDSLnrTYBozM62BNuA5204hyNrNAhOcS3YhZE8rMvK%2F0LYjcyn1uBhxIDlDFKT9oQjSs7kwFZxzKan6YagHu5olso38Ot7IlaOuUTBBHKa1DCZNz58wB0gcJom2n7uBddNrMCI%2BQz9WBPolFAkg7feChKCVISXctXQfQJpWZ25TyU2U6H6cUup6VYjsHhlSL2obBdPGEZjKDWByesu%2BLUdNBBMEmCBW7jkp48xyymmOiAv7liIj3e0H0lIudls%2F82Mu48f0t7n09xmfw49nBSS26TKleiElVT1FyTUXMA9RogaRKrcBTOWAiakMMEHaF4toMEE43vyWqWCCUObB1Svo7qXMpu9RbtM8KtwtRAJICE4ZUsJdMdMC0neKAZHrFkqsTEY5dwkQSYBIUZXAFSgzQRpMpSMwcaBS32CN2%2BkJ3JxZhCbHGCbY48hOHX2U1%2BUgx5k7ydEtWiBFKkgVFXDmXIsATx70PmDSIOLSgQQBJP81E4dpvQFMKYcAUwsLvuCVO77n8DlElNsuwYS4gbmKMprvpdcUkd57T7BAiiSQHC8KlOReQptq0wERg0aGFL3cAEmT3U86mHzXS5AvTKtL8Bq1CsqdAAHYOsHAbWWafXj07wXN2y4JMPVSVusTFLtDpJ01ogVSJID09BFA5Fmg%2FshvSs0VQ4g4TGMDZQsEU6nfmgmyAdqsZhZoZpIMkGSYEB9SZrONMk4vIKdHtEAKV5CcMBVynXMBx30AyEUptbIOoqBg4iUepIGkSQ8T5GSZiTduEWQmE8tOw8hSh9Bzupe%2B%2FVJYfIn%2B0v0WSKPtbZQUKOc%2BD4jq4c4NBIDIqMzTZv%2F1kssnKxlnJlWrfXdBmA4mrYHb3UiZjY9S2m%2BjqF4RQh6kEoC0r0%2BGlElJtZ9nVzF7AdKEIUqtjgIAD2E9dAQQDcFYCAIibjzoyzsDmPRrJg0onzVTbLm3cZtjQphy2dqp839R6iVQVst8WlkumAAkKFxBwk8pAiQRwf8IIGqHxT0MIGRImYi42WAMk9ZjgrgtDpj024lUmHDf1t%2BYECYIMCE7XUe59wqlN8Z4f%2FqyTQg9kPr8QLqqih8Hqz6m8T6uO4aCPg%2BaBEjLPoC9XR2NXQr%2FjAx0DpJ0EE01TPF%2B5gPEYSqFfA0Ircxj83PHvMGVzYXbuvt0j%2FPn6GauwK%2Bp%2F9t81t%2Bnk%2BFz%2BW3D%2B9Fz6pYop%2F08pTU%2BRMknBHbpSmiBdBUg%2FQkgXZUhJcwVJEgNDWi0ls1HGbcSIPVSQqWsg2iqgbIZOnl89wO%2Flom7eas1pb7JgsuMkgGSBP2BstvjadORKJadQguk%2FggC6aNxgvTkfpFNyEDY8lP7B0A0ToDck4PJuGELqVmJl3f88gsNphKvnvm1gjUDk%2BmAAkjITj0fod9UTI6zi%2BlUr3o5iwXSbID0%2BuusR7SYkqu3wd7uBxwypBiIAzQp%2BYNkCBPf%2FQBxmEaAAkirDrDGLQfJfMK6qVOGRd5OWW0P03Mn59DOt0ULpJkEyeEWKb4umpIqs1DSXQUkEgvyGZG9YrRsvtI3bPXWuHMEJr4LIqPJpDBpDdy87rcpo2UtZbTdQi%2B9JFggzQRIscXMmfscnLkiQPS%2BDqJZg8mlioOkSoOpTA%2FTGp%2FMFF%2BlwB72BhZkvlIPrl5uxyBlt71OmS3Y%2BNrAL8uYSZD2AaQDAGkvBwnHkPExvy%2FAY1wBz%2BXPM575ucaPxewxAon9rGKi%2B7Po9XgA0iCCmkMUAjABIk3%2Bu8V9y7wyXuZxmNgXM0pws4axfpg6mLKYQgCUrBEFyk6dyE5dbkpv%2Fjt64UwUg2lGQdrLQYKUcJcepK9gJ%2FF6TzSyz4NYm7hhLgziWJ4cCFOyXtKVdzpLnPeYdJlJA0pGw3aAVpWcQJn3FALqKOV0DCPoJEgXhAb3hYkCv1%2FAJMHRu4Rd5P9B6U03k%2BOwaIE0FSAVFQm07YgAR%2B4rsLcPAyIZAcykhIg4RIb9Jf%2BGrermychOEoD6I5q1r9HKPXfRCqeI8uYOZKU3EFCDHCZTSVaV143L2TsKyHF6CeU3ixZIkwFpxBJNcC%2BnpJrfIgvpIApJmHhmgvQwQTKOh2mDqx9ZaTOt2v8pSnEI9H04kc8dnYPm5TLAVEW5XUNaYCmmU3YbK%2FX6cVwDi%2FyLdEIR2GZkC6RgQVrhVHsLMBQeQ4%2BoV4XIxiEKO5h4mQeIXDLFVx6i9c5HcN9c%2BsZhQfe1yY6mmxBMuZTX04%2FZlDBBMso8ANWNUq8ljrY0zqMXFdECKRiQ1igC4PkStt%2B3oKyTeMCGC0j6NROOJbJ5BmhjRRlKvBj1w2ILIBpr%2FPKSCDv4VnwqA6bua%2Bg3yZBiQgEmtlev6yOsmzJgRNxJDd6fLLVAGg9INvefYU3kRIBen3g5V6Fq4ufqbwfWmDDJqhKq38G8leJK%2F5y%2BVSdSoJGtCLCDb8an8jMA6mMTwwS1sq1FUEcD3M17yHFqDhUfEiyQAoGU4P4RjIU%2BBKYMKWEnDhQAqhwiu6eF4t3fU7PQMw1iUL%2B%2BnnM6Gn2WjQiiy2q5A6AAmBJYPBB1twOcwxX4PH7%2F5KV%2FLb%2FslNshwYQ4h8z0BGWdupl2nhSmDKQ9AGm%2FD0h7Zkh7mXS3A5wT%2BLyYXwEkrI1eBUhSuEIEyUzIqmznxQFkovtpjWseTWR8vVmgzb8XEEiPYTvNFcAksQAzrbJaGUx9lNmeRmnNC1Eei1MJEmYZUsJYHCQE339DcthChA8BiG2kTad456cpBaXcZMb3twjkeFdEID2OUu93EINJNjFQMlzNQcps88DVW0Y%2FR%2BZeoQgWSP4g2dxDrDQKQ2mXcQAim%2Fu7WBfdQn95aWpqebbALjw3H9uJHgFIvRZMqqs3CJ2jtLP%2FQGw4jomTAWnpOEGK8Zu5Jn9ezNSCVBFuIGn2vKefEqtL4Mx9gew1U%2F9rd3g9SESv6bMwII5h3TTAYTJzdsJlGektebT1zCKyu0SKbRSCBSlGAwmzDClhLwYSAvI8c%2BvCBiS7WwJAV3GcAVNhMTn2Tcfvr3KYXr44B9tt7qOcTg9gkk0Pk3fd9DH6TWXkaLyX8lkDFzIxSHcxkBCUeymhSkJghjpMMsQgakVGWkk21%2B0zctVn0gmBfW8fAucOrBXcAMqCCf9%2BmDEy5XSdRUP7a5R2Oop%2B8qpobpBsriexzuhDcEqhDBEAGkD2rMPxV9UtLCuxzWcmh%2BPnrNe0BMGzi%2B0GMIQpwyQwZTCY2Nqx%2FQKlNaUCqFvpxf%2Fh24tMB5LdtRDlUiWCVA7NrORmEF0me9ULOL6bUiqjaMUKgWZj7FWQmVqjAdLLcLEYSBIDx5RK9wrHgKkNc3sFPX%2F6Tso5JJoTpG9kigjYB7DPrhMwTWOJ52LS3RfAlWMN1k6Kd9m9WWGnSLM97CdFBM9tUBo%2BkW%2FA0ZLMChJXs0yZaOCmtZygF87%2Bk%2Bp67oKMQPq%2F9s49OKryDOPvOQmEq0BBBZTds9rWccY%2FdLzU1o62Y2t1tLV1dFrrjB0RsYBSIhASctlNCIhQKyAgl%2BwmGxS8tBCMpUVl6FiQXDbJ5oJCQVBQUTEku5sbSc7ZPt%2FJZr4kh2UNJGT37PfMPHPOnmyMf3w%2F3st3OVsA0lazgRQSBu1d%2BJcfMDGQdgSH2CoAYnNEJYDoJ%2FR00Ui6ZpFEQy%2FehMitHAOInqVlB%2F24dsY5SEHKBkw57B%2BVuhOAaQalVSZS7j75fCDhqsHBWLdS2HMbBYxBy16WvD%2B0AFSDg%2Bf0s8ZnA%2FFdmK31YxCdQER6CV25cTR9H%2B%2FKRZNmemTK9CRgUD2MlvBxBlOcg9RtRKePOyiz8g1KK7tO322NfW7mB4mf0aAPWAz8mzCY97LUisN0SazPD2Fi9Qv87Rk0d%2Fs4uh%2FLdaJZK70SvfjxMKR4D2ALwqeoFdS4B8kB26tUsns7yV7zH0otu50eL5BZhzUeQOJa%2FLaMBoQVA3sHIkMHrupgQxSaZG2H34V%2FAZAv463tKBebQymEl3h%2FhshUx1YB4F6LN5A4RHBWZRARSaNMAJVV9zktKktGdEIqXClf%2FUpLPIDEN7xhcE%2FCoHbT3OJWpHqDBVNo28M7rP2eR7OLpuhnVafE2Nu7UVzDDKYbaGldWTdM%2BgBbAueE8RJmL2z4XkTz%2F%2FZF%2Bfx%2Fe4nReG6MQhwiDlKGbo0yAFN61VlKq3qR5pdfdeXLjQykhWYHiWt2fgIG%2BDgM9LU0b9dgwMSikMpWVuDvPIkNeVcxgPWzqmNRbBPcMji76iakevsAEwOJOWhSRwYpvaLLaR6V0rwapXpLpOT9NyruhtR4AIkr9T0ZxWISolMamhBnBhAmDQC1wAfome2%2F1IvRx7dLZAY5vmIwWTDQdqJm6uAwmR0kQ2oHmADRYh2kIC3yACREp5SKb65Yc3Kv7bWmdj4YzQ4SxE7cQQNiNKJGKiJTgOZcbAOiiEWhILwV5yrYaP4%2FE2nBbonMpDllCZjtVzB5%2BxZSPQaTamKIYEDjCNkO6yBV9AYphblcowUebcLK470jUSFs%2BMyvYX7GvSXS9%2FoBRmE%2FflbYD5B6njIEoB5FzVQPGHhHr39RSMXvHwaMyfAYmvWOmQAy1pkZ5WNRT7yEZUWtqIXMCpMRJEDEQfKEIlJ5kBbCC8qCE1Z%2Bwgahaay4G%2Fv5Wpc5O0cAhkdQ25zQYZqznTl4fu9g1pcfAaJawHgHzStKMkBkUpgw4L6Hw1WW0vMf%2B3Gvmhoke8hZIYjSQxClhkBKESB16UePSawGAES3wsdwUo8aASYtdKLPady%2FjvubKaVI5vVQHCivQabMmgSkeU8hzWtgNZM5UztjWsdBKg%2BBVNYF0op4B6nHhjc0Ce5EhCkGJG2IUN3RSe22HrHwHP4cESkV3x%2BPLdwSxaOe%2BEAipty6Z2gp3vOa7dUwAJmDJjBP67LOAdLiXiCJiGTQo1uR6v1jLICZDu8BVKdo3r%2Fq0ZCox%2BqEr%2FGsDhCtxpv17kBTYTRf5hOnOhiUaKq%2BevwhpHqnKSfGYXJw82jUA6T0cBGpVIB0ziYE2xc0680RgOV6nGx6D7Z%2BP4AIdDv9ecdkmrErgRxFElVXSyREdDNASjkkY%2FDdCZCO6Is8AZNpQVrcJyItBEjzS0Vqd06xSDNvlUSZS2Tcd3nRuwm0tlSi2XsFQMZtGEiNy5MwGB8ASEewj4fDZOaIlCJAEhoMpeyTMWlpBUwlqJvaYxkm3rELA9IiAZLQYImdvpN1IBED8oeISm%2FrG%2BNyYgumyKmdsfWtg%2FQCQHL7TGIBUrSsHmc101hEpWJYYzDFamrHlwbFGUgFAqTo2IaxBnZUWQDSRkSnVtxrcPCCnc3cv5%2Fx5%2F2wvdvhQeKrGgRIQpdCy5czmEZSds1S1E3NHKYotZ2bQyRAEoqWfU25FUmUU2On7Go%2FJm7VGIDJCFK6ASSe2j0nQBK6FMqvkpDeTcBAfRZANQOmzp61iPEa%2Fpnh9wzPjFc4wu%2Fz5UARI1Ja34jEQVLcPnNYgMQVnQerVCZi4N4HqD5D7dLJAYkS27l5x67CuH0i1QjSeAGS0CU98iuzZDgG7c8B0wm2CiJ6QapgEHGQutbYcZBSBEhCQ6mNX0i0rk7GYL2Pcg8e7krzKrWoBIlHo%2FAgzRcgCQ2V2FnaM9%2BWMXhvA0z7AJOmw4QBHAXmKR2zcfsEzBsNvUAq8JnEAqTY0awaiTYGJQBkA0x7ABMbxNrQA2SsjThIzN0glXW3vgFSiflAyhcgxZZS9Ynba8nh3QmrGNBqNIFkTO30Vd9GkJYfFSAJDbFmumXUJNei7fwG5po4TNEE0mIBklCMnAWBQTsaAziLcmpbGEzRk9p5QqldGJCSBUhC0QaTwzOKcrxLaUmdHxFqiGAKXyPxDX1mBsnPrk0kFOMw5XqT0HyYQ7kfNbDIFBUgLTZs6AvNIZkPJNuWJk1xB2pJKMa1Bu3xFXC290%2BUc%2FBzsns1vaOHAX7p3B2JjNsnwoPUaArbXm1Rba%2B2biMhE2g%2BJm4hNB9%2BTzl1pyirCiANMkyZPc1B4icHRYhI%2BY0D74IwnwfLBT4NqV2r4m6aTUImUbDrNf2A6B5EpU9hDtMlBIlHpL6HnhhAinkDJNW2pa3G5vLdQkIm0nQGkmcE2QFTVuUxclSrgwdTBJDSTA%2BSZits7kBEWqvk%2BceQkAn15E6ZHOWTEZU%2BpOzaTgbTkEWklD4gzQNIz8c8SKzBoNncTV6r0%2FcD2hoUp2WZUPyNGPaKGxCVdgGmjoGBqSIMTOGaDSYFqcDfiQZDvVLQ9DAJxUl73O65nBze1zFxexYgaHDwImxYpBqyYXu58dATONkEILkDqItavwRMaRZXwwR6U0Sj%2BNjT9MpJBtNYyq5ZT44aPwa9BgcHxBk97TGsseu9xTzmQVIVt1%2Bzvdr2tZIfWGDd1DqCHFUyCcWRniiSMdhHI81bhrqpBemYNuAgpfcBSW80lHWf983SulgDibe43T4VAPkVV%2BP7tsKW%2ByxO3zhyi0gUn3I6JcrwjqAs7yKyVw8ATMZoxOeQwoFUApAOAKQj0d9MyPexZgJrKjTbXmv7QMlvSLNt8k%2BgmQDIISCKb%2F3KJ1Fa6ThANBPzTaiZKtWBS%2Bv6pnYRQHI1nt%2F57DokVm0FAQ11UAdAqlIKAk%2FhmW2Ku3k4rQRAyQIioe66yXFcBgy%2Fw3zT14hQnbjXBg2khWFBiiYjAvlZBFKRun0FF9mcjX%2BYUhgYQev2SlQYFLWQUJjz8zJKRwCIB1E3HUXdpDKYLhok4z4kI0h%2FAUjLogokNBGakcK1NNncLbsRCX%2Bj5Pkmjn6xPYFKghKt3CIikFCkyPRhIkC4Cd28WsDUecFRKb0PSKl9QJofhSAhAsHtrJWN6%2BvW%2FMD91ryGKyc5P0sgxzYRgYT6CdOqUzJguJWyD%2B5FmqfiXoODkR1mWRAcxSBpzDY9AjXXIwoV4vM9Flf9MPx%2FSbRgv4g%2BQhcoe51ET%2BySAIWFHHV7KKta4zBFAijM%2Brreq745SPOGDCTWhVNRA50FRIhAgZcVl%2F8uLO%2B5Up9QPQI7xEvxhAaiZoJQ60whR21h6Nhh7buCxJsMxmjEd8YOSURi6VvQVqCvRjiKz68om7%2B9S29hQ2JVgtDg6D22erxyEmVWvQEzkNSIIHGIQr54kKzfARJr5AjE4GEg%2BRGBXHj246vdDaNwTqBMPxUACQ225m2TAcN4wLIMaV47ZVSqkaMR8%2FlB4u3vEoB0NGh1Nhrt4vcGu%2FiV2%2FAdTcEcEBoHZ5UtZ0vQPMi1bjh9HTn3SQwgWAAkdKlPKfKMR2culew1AaR6av9BgiOANIDWrC6%2FqhS2qYDokLUgYMez70%2FacHoYPY%2Fos9EjABIaIs0qk1HvJAGiuejo%2BVhk4hCFASmVOQxIyd3NhoEEyYfoA4DcLY1wpdXpz5rmbLje4kQK56iQaYVI4YSiQcs9Mjm8w1AvTUd376QOE17X0tse49YJ5oUcJL5gdcAiEos8GuBpUwpb9wOouZbNDdYbi9tkfRJ1rQBIKNo0u6stDGgeIsdHxxGFGEwah6gnSIbtEzwihWCS9NXfn1wYQC6fBrcDnkY0EEqVgubHFKfvGvwsiZyV8s0eAZBQNMvREIKp%2FBbKrD4CmDTAwxzEM0Ck25DWhZYH9aqRZMA0ceWn%2Fat%2FYCW%2FScOOVB%2Fg%2Bbc178zTSn79FHruw66XCxwSAAnFioqLu1Km9Mp7KdN7GFcdJiNIZcyhrl1pD5BKdCdgg9%2BUl0%2F1I4Xza9aCJoAU%2BACf%2F2jZdHqyPv9TA88tEQAJxahmvicDIiui0h5Kr%2BrsBVMqc2%2BQOEwAKflAcGRmbdCy%2BUyEDpwP9nco7tavrM6Gt9DG%2Fq3F1TiSVgEel1iJLWQWJdfJqJGuAVDvUIa3AyCpRpD4XiRmCVFJRr00efWXXcDkcXhwz6zhXkXqhk5cUwDOt26qf3Da%2BlNjaTcAQv0jViIImU%2BZ%2FgQAZEFk%2BjvqpnZApPZuNvRO7xJSPHib%2BbGgZdOZEDg9AfIzo4lw9oQ1z%2F8WILobXbiJEzZ%2Bk0gzAM8jAiAhM2vN%2F2S0vCfKGdV%2FlTNr%2FLjXAI%2FaEyAJTkr3Bq9Y%2FQWgaegDkA%2B1TwvcdFJxBjYomxvvner0j9JrMZeARyjeDlaZ%2B195%2FIpjv77shWOHRy072jY8q0YdnlWrjsk9pF3%2BtxPa1PWntW5wYBVmKVxAyW8%2BanUFViubvr3RsuHMhDG5gUQxiSoUv5q1XqK735eu3eafiqgzy%2BJq2m11tx1DpGlSXIFOa55Pg1VA06oUtJ5U3G37AdZyJa%2FhlqvXHU%2BkfYBnnQBISIjoESwILT4sWV%2F6SFbcgUnovN0GWB4CQMmYNE1TnI0L4cfx7E7UP9OmbTg1jFYdkM2yDu7%2F%2B4keC136S3IAAAAASUVORK5CYII%3D%22%20vertex%3D%221%22%20parent%3D%222%22%3E%3CmxGeometry%20x%3D%22644.9978324468085%22%20y%3D%2227.152558139534886%22%20width%3D%2230.697674418604652%22%20height%3D%2230.697674418604652%22%20as%3D%22geometry%22%2F%3E%3C%2FmxCell%3E%3CmxCell%20id%3D%225%22%20value%3D%22%22%20style%3D%22shape%3Dimage%3BverticalLabelPosition%3Dbottom%3BverticalAlign%3Dtop%3BimageAspect%3D0%3Baspect%3Dfixed%3Bimage%3Ddata%3Aimage%2Fsvg%2Bxml%2CPHN2ZyB4bWxucz0iaHR0cDovL3d3dy53My5vcmcvMjAwMC9zdmciIHdpZHRoPSIyNDkwLjgwMSIgaGVpZ2h0PSIxNDE0LjI1OCIgdmlld0JveD0iMCAwIDI1NS4wNTggMTQ0Ljc5MyI%2BJiN4YTsgICAgPGcgZmlsbD0ibm9uZSIgZmlsbC1ydWxlPSJldmVub2RkIj4mI3hhOyAgICAgICAgPHBhdGggZD0iTTE0Ny40ODggNDUuNzEyaDIyLjg2NnYyMy4zNzVoMTEuNTYxYzUuMzQgMCAxMC44MzEtLjk1MSAxNS44ODctMi42NjQgMi40ODUtLjg0MyA1LjI3My0yLjAxNSA3LjcyNC0zLjQ5LTMuMjI4LTQuMjE0LTQuODc2LTkuNTM1LTUuMzYtMTQuNzgtLjY2LTcuMTM1Ljc4LTE2LjQyMSA1LjYwOC0yMi4wMDVsMi40MDQtMi43OCAyLjg2NCAyLjMwM2M3LjIxMSA1Ljc5MyAxMy4yNzYgMTMuODg5IDE0LjM0NSAyMy4xMTggOC42ODMtMi41NTQgMTguODc4LTEuOTUgMjYuNTMxIDIuNDY3bDMuMTQgMS44MTItMS42NTIgMy4yMjZDMjQ2LjkzMyA2OC45MjYgMjMzLjQgNzIuODQgMjIwLjE3IDcyLjE0N2MtMTkuNzk3IDQ5LjMwOS02Mi44OTggNzIuNjUzLTExNS4xNTcgNzIuNjUzLTI3IDAtNTEuNzctMTAuMDkzLTY1Ljg3Ni0zNC4wNDdsLS4yMzEtLjM5LTIuMDU1LTQuMTgyYy00Ljc2OC0xMC41NDQtNi4zNTItMjIuMDk1LTUuMjc4LTMzLjYzN2wuMzIzLTMuNDU3SDUxLjQ1VjQ1LjcxMmgyMi44NjVWMjIuODQ2aDQ1LjczM1YtLjAyaDI3LjQ0djQ1LjczMiIgZmlsbD0iIzM2NDU0OCIvPiYjeGE7ICAgICAgICA8cGF0aCBkPSJNMjIxLjU3IDU0LjM2YzEuNTMzLTExLjkxNi03LjM4NC0yMS4yNzUtMTIuOTE0LTI1LjcxOS02LjM3MyA3LjM2OC03LjM2MyAyNi42NzggMi42MzUgMzQuODA4LTUuNTggNC45NTYtMTcuMzM3IDkuNDQ4LTI5LjM3NiA5LjQ0OEgzNS4zN2MtMS4xNyAxMi41NjcgMS4wMzYgMjQuMTQgNi4wNzUgMzQuMDQ1bDEuNjY3IDMuMDVhNTYuNTM2IDU2LjUzNiAwIDAwMy40NTUgNS4xODRjNi4wMjUuMzg3IDExLjU4LjUyIDE2LjY2Mi40MDhoLjAwMmM5Ljk4Ny0uMjIgMTguMTM2LTEuNCAyNC4zMTItMy41NGExLjc2MSAxLjc2MSAwIDAxMS4xNTMgMy4zMjZjLS44MjIuMjg2LTEuNjc4LjU1Mi0yLjU2Mi44MDVoLS4wMDNjLTQuODYzIDEuMzg5LTEwLjA3OCAyLjMyMy0xNi44MDYgMi43MzguNC4wMDctLjQxNi4wNi0uNDE4LjA2LS4yMjkuMDE1LS41MTcuMDQ4LS43NDcuMDYtMi42NDguMTQ5LTUuNTA2LjE4LTguNDI4LjE4LTMuMTk2IDAtNi4zNDMtLjA2LTkuODYyLS4yNGwtLjA5LjA2YzEyLjIxIDEzLjcyNCAzMS4zMDIgMjEuOTU1IDU1LjIzNCAyMS45NTUgNTAuNjQ4IDAgOTMuNjA4LTIyLjQ1MiAxMTIuNjMyLTcyLjg1NyAxMy40OTYgMS4zODUgMjYuNDY3LTIuMDU3IDMyLjM2Ny0xMy41NzUtOS4zOTgtNS40MjMtMjEuNDg0LTMuNjk0LTI4LjQ0My0uMTk2IiBmaWxsPSIjMjJhMGM4Ii8%2BJiN4YTsgICAgICAgIDxwYXRoIGQ9Ik0yMjEuNTcgNTQuMzZjMS41MzMtMTEuOTE2LTcuMzg0LTIxLjI3NS0xMi45MTQtMjUuNzE5LTYuMzczIDcuMzY4LTcuMzYzIDI2LjY3OCAyLjYzNSAzNC44MDgtNS41OCA0Ljk1Ni0xNy4zMzcgOS40NDgtMjkuMzc2IDkuNDQ4SDQ0LjA0OGMtLjU5OCAxOS4yNDYgNi41NDQgMzMuODU1IDE5LjE4IDQyLjY4N2guMDAzYzkuOTg3LS4yMiAxOC4xMzYtMS40IDI0LjMxMi0zLjU0YTEuNzYxIDEuNzYxIDAgMDExLjE1MyAzLjMyNmMtLjgyMi4yODYtMS42NzguNTUyLTIuNTYyLjgwNWgtLjAwM2MtNC44NjMgMS4zODktMTAuNTI2IDIuNDQzLTE3LjI1NCAyLjg1OC0uMDAyIDAtLjE2My0uMTU1LS4xNjUtLjE1NSAxNy4yMzcgOC44NDIgNDIuMjMgOC44MSA3MC44ODUtMi4xOTcgMzIuMTMtMTIuMzQ0IDYyLjAyOS0zNS44NiA4Mi44OS02Mi43NTctLjMxNC4xNDItLjYyLjI4Ny0uOTE3LjQzNiIgZmlsbD0iIzM3YjFkOSIvPiYjeGE7ICAgICAgICA8cGF0aCBkPSJNMzUuNjQ1IDg4LjE2NmMuOTEgNi43MzIgMi44OCAxMy4wMzUgNS44IDE4Ljc3NmwxLjY2NyAzLjA1YTU2LjQzMiA1Ni40MzIgMCAwMDMuNDU1IDUuMTg0YzYuMDI2LjM4NyAxMS41ODEuNTIgMTYuNjY0LjQwOCA5Ljk4Ny0uMjIgMTguMTM2LTEuNCAyNC4zMTItMy41NGExLjc2MSAxLjc2MSAwIDAxMS4xNTMgMy4zMjZjLS44MjIuMjg2LTEuNjc4LjU1Mi0yLjU2Mi44MDVoLS4wMDNjLTQuODYzIDEuMzg5LTEwLjQ5NiAyLjM4My0xNy4yMjQgMi43OTktLjIzMS4wMTQtLjYzNC4wMTctLjg2Ny4wMy0yLjY0Ni4xNDgtNS40NzUuMjM5LTguMzk4LjIzOS0zLjE5NSAwLTYuNDYzLS4wNjEtOS45OC0uMjQgMTIuMjEgMTMuNzI0IDMxLjQyIDIxLjk4NSA1NS4zNTIgMjEuOTg1IDQzLjM2IDAgODEuMDg0LTE2LjQ1OCAxMDIuOTc5LTUyLjgyMkgzNS42NDUiIGZpbGw9IiMxYjgxYTUiLz4mI3hhOyAgICAgICAgPHBhdGggZD0iTTQ1LjM2NyA4OC4xNjZjMi41OTIgMTEuODIgOC44MjEgMjEuMDk5IDE3Ljg2NCAyNy40MTggOS45ODctLjIyIDE4LjEzNi0xLjQgMjQuMzEyLTMuNTRhMS43NjEgMS43NjEgMCAwMTEuMTUzIDMuMzI2Yy0uODIyLjI4Ni0xLjY3OC41NTItMi41NjIuODA1aC0uMDAzYy00Ljg2MyAxLjM4OS0xMC42MTUgMi4zODMtMTcuMzQ0IDIuNzk5IDE3LjIzNiA4Ljg0IDQyLjE1NyA4LjcxMyA3MC44MS0yLjI5MyAxNy4zMzQtNi42NiAzNC4wMTctMTYuNTc0IDQ4Ljk4NC0yOC41MTVINDUuMzY3IiBmaWxsPSIjMWQ5MWI0Ii8%2BJiN4YTsgICAgICAgIDxwYXRoIGQ9Ik01NS4yNiA0OS41MjNoMTkuODE4djE5LjgxOEg1NS4yNnptMS42NTEgMS42NTJoMS41NjRWNjcuNjloLTEuNTY0em0yLjk0IDBoMS42MjdWNjcuNjloLTEuNjI2VjUxLjE3NXptMy4wMDIgMGgxLjYyN1Y2Ny42OWgtMS42Mjd6bTMuMDA0IDBoMS42MjZWNjcuNjloLTEuNjI2em0zLjAwMyAwaDEuNjI2VjY3LjY5SDY4Ljg2em0zLjAwMiAwaDEuNTY1VjY3LjY5aC0xLjU2NXptNi4yNjQtMjQuNTE4aDE5LjgxOXYxOS44MTdoLTE5LjgyVjI2LjY1N3ptMS42NTIgMS42NTJoMS41NjN2MTYuNTE0aC0xLjU2M3ptMi45NCAwaDEuNjI2djE2LjUxNGgtMS42MjVWMjguMzA5em0zLjAwMiAwaDEuNjI2djE2LjUxNEg4NS43MnptMy4wMDMgMGgxLjYyNnYxNi41MTRoLTEuNjI2em0zLjAwMyAwaDEuNjI3djE2LjUxNGgtMS42Mjd6bTMuMDAyIDBoMS41NjZ2MTYuNTE0aC0xLjU2NnoiIGZpbGw9IiMyM2EzYzIiLz4mI3hhOyAgICAgICAgPHBhdGggZD0iTTc4LjEyNiA0OS41MjNoMTkuODE5djE5LjgxOGgtMTkuODJWNDkuNTIzem0xLjY1MiAxLjY1MmgxLjU2M1Y2Ny42OWgtMS41NjN6bTIuOTQgMGgxLjYyNlY2Ny42OWgtMS42MjVWNTEuMTc1em0zLjAwMiAwaDEuNjI2VjY3LjY5SDg1Ljcyem0zLjAwMyAwaDEuNjI2VjY3LjY5aC0xLjYyNnptMy4wMDMgMGgxLjYyN1Y2Ny42OWgtMS42Mjd6bTMuMDAyIDBoMS41NjZWNjcuNjloLTEuNTY2eiIgZmlsbD0iIzM0YmJkZSIvPiYjeGE7ICAgICAgICA8cGF0aCBkPSJNMTAwLjk5MyA0OS41MjNoMTkuODE4djE5LjgxOGgtMTkuODE4em0xLjY1MSAxLjY1MmgxLjU2M1Y2Ny42OWgtMS41NjN6bTIuOTQgMGgxLjYyNlY2Ny42OWgtMS42MjZ6bTMuMDAzIDBoMS42MjZWNjcuNjloLTEuNjI2em0zLjAwMyAwaDEuNjI2VjY3LjY5aC0xLjYyNnptMy4wMDIgMGgxLjYyOFY2Ny42OWgtMS42Mjh6bTMuMDAzIDBoMS41NjRWNjcuNjloLTEuNTY0eiIgZmlsbD0iIzIzYTNjMiIvPiYjeGE7ICAgICAgICA8cGF0aCBkPSJNMTAwLjk5MyAyNi42NTdoMTkuODE4djE5LjgxN2gtMTkuODE4em0xLjY1MSAxLjY1MmgxLjU2M3YxNi41MTRoLTEuNTYzem0yLjk0IDBoMS42MjZ2MTYuNTE0aC0xLjYyNnptMy4wMDMgMGgxLjYyNnYxNi41MTRoLTEuNjI2em0zLjAwMyAwaDEuNjI2djE2LjUxNGgtMS42MjZ6bTMuMDAyIDBoMS42Mjh2MTYuNTE0aC0xLjYyOHptMy4wMDMgMGgxLjU2NHYxNi41MTRoLTEuNTY0em02LjI2NCAyMS4yMTRoMTkuODE4djE5LjgxOGgtMTkuODE4em0xLjY1MiAxLjY1MmgxLjU2M1Y2Ny42OWgtMS41NjN6bTIuOTQgMGgxLjYyNlY2Ny42OWgtMS42MjZ6bTMuMDAyIDBoMS42MjZWNjcuNjloLTEuNjI2em0zLjAwMyAwaDEuNjI3VjY3LjY5aC0xLjYyN3ptMy4wMDMgMGgxLjYyN1Y2Ny42OWgtMS42Mjd6bTMuMDAzIDBoMS41NjRWNjcuNjloLTEuNTY0eiIgZmlsbD0iIzM0YmJkZSIvPiYjeGE7ICAgICAgICA8cGF0aCBkPSJNMTIzLjg1OSAyNi42NTdoMTkuODE4djE5LjgxN2gtMTkuODE4em0xLjY1MiAxLjY1MmgxLjU2M3YxNi41MTRoLTEuNTYzem0yLjk0IDBoMS42MjZ2MTYuNTE0aC0xLjYyNnptMy4wMDIgMGgxLjYyNnYxNi41MTRoLTEuNjI2em0zLjAwMyAwaDEuNjI3djE2LjUxNGgtMS42Mjd6bTMuMDAzIDBoMS42Mjd2MTYuNTE0aC0xLjYyN3ptMy4wMDMgMGgxLjU2NHYxNi41MTRoLTEuNTY0eiIgZmlsbD0iIzIzYTNjMiIvPiYjeGE7ICAgICAgICA8cGF0aCBkPSJNMTIzLjg1OSAzLjc5aDE5LjgxOHYxOS44MmgtMTkuODE4em0xLjY1MiAxLjY1MWgxLjU2M3YxNi41MTZoLTEuNTYzVjUuNDR6bTIuOTQgMGgxLjYyNnYxNi41MTZoLTEuNjI2VjUuNDR6bTMuMDAyIDBoMS42MjZ2MTYuNTE2aC0xLjYyNlY1LjQ0em0zLjAwMyAwaDEuNjI3djE2LjUxNmgtMS42MjdWNS40NHptMy4wMDMgMGgxLjYyN3YxNi41MTZoLTEuNjI3VjUuNDR6bTMuMDAzIDBoMS41NjR2MTYuNTE2aC0xLjU2NFY1LjQ0eiIgZmlsbD0iIzM0YmJkZSIvPiYjeGE7ICAgICAgICA8cGF0aCBkPSJNMTQ2LjcyNSA0OS41MjNoMTkuODE4djE5LjgxOGgtMTkuODE4em0xLjY1IDEuNjUyaDEuNTY1VjY3LjY5aC0xLjU2NFY1MS4xNzV6bTIuOTQgMGgxLjYyN1Y2Ny42OWgtMS42MjZWNTEuMTc1em0zLjAwNCAwaDEuNjI3VjY3LjY5aC0xLjYyN3ptMy4wMDIgMGgxLjYyN1Y2Ny42OWgtMS42Mjd6bTMuMDA0IDBoMS42MjZWNjcuNjloLTEuNjI2em0zLjAwMiAwaDEuNTY0VjY3LjY5aC0xLjU2NHoiIGZpbGw9IiMyM2EzYzIiLz4mI3hhOyAgICAgICAgPHBhdGggZD0iTTk2LjcwNCAxMDEuNDcyYTUuNDY4IDUuNDY4IDAgMTEtLjAwMiAxMC45MzUgNS40NjggNS40NjggMCAwMS4wMDItMTAuOTM1IiBmaWxsPSIjZDNlY2VjIi8%2BJiN4YTsgICAgICAgIDxwYXRoIGQ9Ik05Ni43MDQgMTAzLjAyM2MuNSAwIC45NzcuMDk0IDEuNDE3LjI2NWExLjU5OCAxLjU5OCAwIDAwLjc5OCAyLjk4Yy42MDUgMCAxLjEzLS4zMzUgMS40MDItLjgzMWEzLjkxNSAzLjkxNSAwIDExLTMuNjE3LTIuNDE0TTAgOTAuMTQyaDI1NC4zMjdjLTUuNTM3LTEuNDA0LTE3LjUyLTMuMzAyLTE1LjU0NC0xMC41Ni0xMC4wNyAxMS42NTItMzQuMzUzIDguMTc1LTQwLjQ4MiAyLjQzLTYuODI0IDkuODk4LTQ2LjU1NCA2LjEzNS00OS4zMjUtMS41NzYtOC41NTYgMTAuMDQxLTM1LjA2NyAxMC4wNDEtNDMuNjIzIDAtMi43NzMgNy43MTEtNDIuNTAyIDExLjQ3NC00OS4zMjcgMS41NzUtNi4xMjggNS43NDYtMzAuNDEgOS4yMjMtNDAuNDgtMi40MjhDMTcuNTIyIDg2Ljg0IDUuNTM5IDg4LjczOCAwIDkwLjE0MyIgZmlsbD0iIzM2NDU0OCIvPiYjeGE7ICAgICAgICA8cGF0aCBkPSJNMTExLjIzNyAxNDAuODdjLTEzLjU0LTYuNDI1LTIwLjk3MS0xNS4xNi0yNS4xMDYtMjQuNjk0LTUuMDMgMS40MzUtMTEuMDc1IDIuMzUzLTE4LjEgMi43NDctMi42NDYuMTQ4LTUuNDMuMjI0LTguMzUuMjI0LTMuMzY4IDAtNi45MTctLjEtMTAuNjQzLS4yOTcgMTIuNDE3IDEyLjQxIDI3LjY5MiAyMS45NjQgNTUuOTc2IDIyLjEzOCAyLjA4OCAwIDQuMTYtLjA0IDYuMjIzLS4xMTgiIGZpbGw9IiNiZGQ5ZDciLz4mI3hhOyAgICAgICAgPHBhdGggZD0iTTkxLjE2IDEyNC45NzRjLTEuODczLTIuNTQzLTMuNjktNS43MzktNS4wMjYtOC44LTUuMDMgMS40MzctMTEuMDc3IDIuMzU1LTE4LjEwMyAyLjc1IDQuODI2IDIuNjE5IDExLjcyNyA1LjA0NiAyMy4xMyA2LjA1IiBmaWxsPSIjZDNlY2VjIi8%2BJiN4YTsgICAgPC9nPiYjeGE7PC9zdmc%2B%3B%22%20vertex%3D%221%22%20parent%3D%222%22%3E%3CmxGeometry%20x%3D%22545.0003501773049%22%20y%3D%2225.430930232558143%22%20width%3D%2263.57488372093024%22%20height%3D%2236.06976744186046%22%20as%3D%22geometry%22%2F%3E%3C%2FmxCell%3E%3CmxCell%20id%3D%226%22%20value%3D%22%22%20style%3D%22shape%3Dimage%3BverticalLabelPosition%3Dbottom%3BverticalAlign%3Dtop%3BimageAspect%3D0%3Baspect%3Dfixed%3Bimage%3Ddata%3Aimage%2Fsvg%2Bxml%2CPHN2ZyB4bWxucz0iaHR0cDovL3d3dy53My5vcmcvMjAwMC9zdmciIHdpZHRoPSIxMDI0IiBoZWlnaHQ9IjEwMjQiIGZpbGw9Im5vbmUiIHZpZXdCb3g9IjAgMCAxMDI0IDEwMjQiPiYjeGE7ICAgIDxwYXRoIGZpbGwtcnVsZT0iZXZlbm9kZCIgY2xpcC1ydWxlPSJldmVub2RkIiBkPSJNNTEyIDBDMjI5LjEyIDAgMCAyMjkuMTIgMCA1MTJjMCAyMjYuNTYgMTQ2LjU2IDQxNy45MiAzNTAuMDggNDg1Ljc2IDI1LjYgNC40OCAzNS4yLTEwLjg4IDM1LjItMjQuMzIgMC0xMi4xNi0uNjQtNTIuNDgtLjY0LTk1LjM2LTEyOC42NCAyMy42OC0xNjEuOTItMzEuMzYtMTcyLjE2LTYwLjE2LTUuNzYtMTQuNzItMzAuNzItNjAuMTYtNTIuNDgtNzIuMzItMTcuOTItOS42LTQzLjUyLTMzLjI4LS42NC0zMy45MiA0MC4zMi0uNjQgNjkuMTIgMzcuMTIgNzguNzIgNTIuNDggNDYuMDggNzcuNDQgMTE5LjY4IDU1LjY4IDE0OS4xMiA0Mi4yNCA0LjQ4LTMzLjI4IDE3LjkyLTU1LjY4IDMyLjY0LTY4LjQ4LTExMy45Mi0xMi44LTIzMi45Ni01Ni45Ni0yMzIuOTYtMjUyLjggMC01NS42OCAxOS44NC0xMDEuNzYgNTIuNDgtMTM3LjYtNS4xMi0xMi44LTIzLjA0LTY1LjI4IDUuMTItMTM1LjY4IDAgMCA0Mi44OC0xMy40NCAxNDAuOCA1Mi40OCA0MC45Ni0xMS41MiA4NC40OC0xNy4yOCAxMjgtMTcuMjggNDMuNTIgMCA4Ny4wNCA1Ljc2IDEyOCAxNy4yOCA5Ny45Mi02Ni41NiAxNDAuOC01Mi40OCAxNDAuOC01Mi40OCAyOC4xNiA3MC40IDEwLjI0IDEyMi44OCA1LjEyIDEzNS42OCAzMi42NCAzNS44NCA1Mi40OCA4MS4yOCA1Mi40OCAxMzcuNiAwIDE5Ni40OC0xMTkuNjggMjQwLTIzMy42IDI1Mi44IDE4LjU2IDE2IDM0LjU2IDQ2LjcyIDM0LjU2IDk0LjcyIDAgNjguNDgtLjY0IDEyMy41Mi0uNjQgMTQwLjggMCAxMy40NCA5LjYgMjkuNDQgMzUuMiAyNC4zMkM4NzcuNDQgOTI5LjkyIDEwMjQgNzM3LjkyIDEwMjQgNTEyIDEwMjQgMjI5LjEyIDc5NC44OCAwIDUxMiAweiIgZmlsbD0iIzFCMUYyMyIvPiYjeGE7PC9zdmc%2B%22%20vertex%3D%221%22%20parent%3D%222%22%3E%3CmxGeometry%20x%3D%2220.77127659574468%22%20y%3D%221.86046511627907%22%20width%3D%2230.697674418604652%22%20height%3D%2230.697674418604652%22%20as%3D%22geometry%22%2F%3E%3C%2FmxCell%3E%3CmxCell%20id%3D%227%22%20value%3D%22%22%20style%3D%22aspect%3Dfixed%3Bsketch%3D0%3Bhtml%3D1%3Bdashed%3D0%3Bwhitespace%3Dwrap%3BverticalLabelPosition%3Dbottom%3BverticalAlign%3Dtop%3BfillColor%3D%232875E2%3BstrokeColor%3D%23ffffff%3Bpoints%3D%5B%5B0.005%2C0.63%2C0%5D%2C%5B0.1%2C0.2%2C0%5D%2C%5B0.9%2C0.2%2C0%5D%2C%5B0.5%2C0%2C0%5D%2C%5B0.995%2C0.63%2C0%5D%2C%5B0.72%2C0.99%2C0%5D%2C%5B0.5%2C1%2C0%5D%2C%5B0.28%2C0.99%2C0%5D%5D%3Bshape%3Dmxgraph.kubernetes.icon2%3BkubernetesLabel%3D1%3BprIcon%3Dnode%22%20vertex%3D%221%22%20parent%3D%222%22%3E%3CmxGeometry%20x%3D%22455.00333333333333%22%20y%3D%2218.93%22%20width%3D%2250%22%20height%3D%2248%22%20as%3D%22geometry%22%2F%3E%3C%2FmxCell%3E%3CmxCell%20id%3D%228%22%20value%3D%22%22%20style%3D%22shape%3Dimage%3BverticalLabelPosition%3Dbottom%3BlabelBackgroundColor%3Ddefault%3BverticalAlign%3Dtop%3Baspect%3Dfixed%3BimageAspect%3D0%3Bimage%3Ddata%3Aimage%2Fpng%2CiVBORw0KGgoAAAANSUhEUgAAAOEAAADhCAIAAACx0UUtAAAAAXNSR0IArs4c6QAAAERlWElmTU0AKgAAAAgAAYdpAAQAAAABAAAAGgAAAAAAA6ABAAMAAAABAAEAAKACAAQAAAABAAAA4aADAAQAAAABAAAA4QAAAAAYn8bHAAAdTUlEQVR4Ae1dC5QU1Zm%2BVdXdDA3MAMNrYHjM8FR5CIpENFEhxo0BEt2NzzxEjVmN0TUxukg0MR7jiie7MbLhrPHFMYLoRhMxZg0CxggKRGEEeTs8hvf7OWB3V9V%2Bt%2B9QVHdX91RP1%2B3pov46fWZu3br3v%2F%2F9%2Fq%2F%2F%2B6zbimmajC5CoIQRUEtYN1KNEOAIEEeJB6WOAHG01C1E%2BhFHiQOljkCoOAqasePmuiXmhn%2BgOK3xZMsK1aNlZnml2u8sdcBYnTEjHm%2BZnLxyhcNhlMX2bTZWLVQP7G2x8qJQffBwNniMVl6Vlw4BT6wUYVyv%2F22W%2BvL32IFGFuFoKwV8L8wEMxuZPmikevsLrM9wqTQNmTEj0o4d2Wm88OPQh7O55m0KZQuU53ImPmxe82MFwulygYB0jupP3ay%2B%2F7zS0YUu7pPEmHGE6T98Tr10sjyaquEw3Kc2tQbEUqLulWs%2BJQTGK6u1Xywlh9o8WPhKS%2FWjxvM%2FVOZN5%2B4n6UG5QjFb2I2C2dOYR5k5Zb45bJwkmqqHt6sPnqOcbHL%2F2RVp0ZMYi1VUR37d0KLMwcokccxkbFzMCdohlZQWWQvGGdTXZ92LtrhgSQ4C4ETN1x5lx%2BQQFAVGWHj%2FttichxzKpqhUBGRydO5vCu%2FApWqbehdhoS3LzfUreaPs%2BYVWfvksb5v4NB0hPLLgkXhRRn5pRfvrViJH1ffnnG7iJaGiMXXlXM9lc9JvWsEOJwc4nku3CTT2MW3LMlsEBR0QkMVRTDY5lOZ1FKYIjL1bvZbK5ZkQq8kQnCKTd1e2rUuJopsMBKRx9ID%2FRwN8XlTypTElYUguw%2FfipXE0WuF7bOT7Ud9DVJQKyOJoUZSnQgKBAHE0EGb2dSWJo742XyCUJ44Gwsy%2BriRx1NfmC4Ty%2FudouG0gDBXgSvqfowE2XkCqThwNiKF9XE3iqI%2BNFxDViaMBMbSPq0kc9bHxAqI6cTQghvZxNYmjPjZeQFQnjgbE0D6uJnHUx8YLiOrE0YAY2sfVJI762HgBUZ04GhBD%2B7iaxFEfGy8gqhNHA2JoH1eTOOpj4wVEdeJoQAzt42oSR31svICoThwNiKF9XE3iqI%2BNFxDViaMBMbSPq0kc9bHxAqI6cTQghvZxNYmjPjZeQFQnjgbE0D6uJnHUx8YLiOrE0YAY2sfVJI762HgBUZ04GhBD%2B7iaxFEfGy8gqhNHA2JoH1eTOOpj4wVEdeJoQAzt42oSR31svICoThwNiKF9XE3iqI%2BNFxDViaMBMbSPq0kc9bHxAqI6cTQghvZxNYmjPjZeQFQnjgbE0D6uJnHUx8YLiOrE0YAY2sfVJI762HgBUZ04GhBD%2B7iaxFEfGy8gqhNHA2JoH1eTOOpj4wVEdeJoQAzt42oSR1vVeDGmVFS2qgY%2BKJw46gMjBVxF%2F3P0UIMaO%2B65Fc2NHyohz6WmC1SijDWsT4%2Bl%2B1QEfM7RCAttXWxurVPD4dR6tfyOi9r6SfjT2SzSciHucxrLXjYlfMfcK1D6KX3O0STAxos%2FgSv1hKYQwr3yzHtZrCi2w3esfrn%2BzrNFKcyvhSimacrQXT%2ByU5ncU%2B0iQ3a6TLORJapHanfPMnsMSX%2BW572ya63xxERtz0beChfnijHzc2ZceZ96zUNKpF1xyvRXKWcCRznisHSC6bVjlYEXm%2B17KEZcjx%2BzLKHFPxdhJd5oRWYGzG3rlBXz1HJWnFbergC%2BZqx9VB80Ue3Y1R5fsmGj%2B0C191Bl8JgifK%2FOFI4KYyYbaJBVXC0Z9BSlD5rCPOgsCi1O7yKl7JbfwPfj0qsGqDf9jzpsXMsFuch5ZnHURYUpiZcIJJsv41u%2F1a643UuxqbLOhDFTao3orogIRBg67urv79C3fiKvVOKoPGyDIpn3qTATIu0ijkqDNjiCI0xdMk%2FeLC9xNDhUklnTdiyxYbGkAoijkoAlsZ4hQBz1DEoSJAkB4qgkYEmsZwgQRz2DkgRJQoA4KglYEusZAsRRz6AkQZIQII5KApbEeoYAcdQzKEmQJASIo5KAJbGeIUAc9QxKEiQJAeKoJGBJrGcIEEc9g5IESUKAOCoJWBLrGQLEUc%2BgJEGSECCOSgKWxHqGAHHUMyhJkCQEiKOSgCWxniFAHPUMShIkCQHiqCRgSaxnCBBHPYOSBElCgDgqCVgS6xkCxFHPoCRBkhAgjkoClsR6hgBx1DMoSZAkBIijkoAlsZ4hQBz1DEoSJAkB4qgkYEmsZwgQRz2DkgRJQkD%2B77tIUvyMFoujx1tyCHUSExxj3ZS3%2BGdSyzEKcVQOri2Vah5lShtmXPW4MvB81rVnS8Ts3aE3rDL%2B%2BkR4zzalQ0sElFoe4mjJWCT5AyOJ254LXzpZK0SpHkNwQL1%2B5V3G32Zps27kP%2BLjc4dK%2FdFC6OBd3hiLVVQb%2F1EHgnoiFCzXLrlBn1pnlkWL9FtTnujtJIQ46oRKa8SF7pyj9RnubckQaEz5gPyot6gGURpGSPrEx9UBY2VUHjTVr%2F4t%2F%2F0n317kR1vfdPHKanXCD%2BTpoV72HfwOoDz5siUTR2Uj3Ix8eDjt%2FBuk%2FlochKvnXO5fV0ocbYZD0h9j3D34QumloAgU5M%2BLONr6djOi8n%2FKtnstK2hCqzVRIo62JvqibK2NfI6iJL31a9oyDYijLcPNh7nIj%2FrQaKSyPxAgP%2BoPOwVZS%2BJokK3vj7oTR%2F1hpyBrSRwNsvX9UXfiqD%2FsFGQtiaNBtr4%2F6k4c9YedgqwlcTTI1vdH3Ymj%2FrBTkLUkjgbZ%2Bv6oO3HUH3YKspbE0da2ftG2etC%2Bp9Y2NZWfCwEldoz2j%2BYCiJ7lQkBn5sE9uRIE%2Fhm19a1NgaK09fq2da1dz5aXTxxtOXae5MTJOezDNzwRlUOIum0tL8ifF3G0te0WYdqq5%2FV9m%2BXpAeHa36f59yQI4qg8briWHGPGrAdcp84%2F4f%2FN8O%2BLy6gtcTR%2Fk3ueI8JCH87W%2FzbLc8EQGH%2F3eXXuNCUqQ3aRZBJHiwR07mJwCKP6zI362zNyJ8v3KQgaevZmpWO%2B%2BUorPXG0VOwBV6fOvMP4%2BThj19oCdcJsvb71k8S0r4eevtnXHlTgQOePFsgHL7PDmypbFrIpZyU6Dzg2%2BuYOVX3Ndl1QgHJ8n8tikN747H116Wxtz0Z%2BmjOdkesSOEqWBwLJ82xDxzZW%2FDk5ihILmO7nUHWmacmzxv3cAU2Di%2FxoGiClcnsGtNFeQUn9Ua%2BQJDmyECCOykKW5HqFAHHUKyRJjiwEiKOykCW5XiFAHPUKSZIjCwHiqCxkSa5XCBBHvUKS5MhCgDgqC1mS6xUCxFGvkCQ5shAgjspCluR6hQBx1CskSY4sBIijspAluV4hQBz1CkmSIwsB4qgsZEmuVwgQR71CkuTIQoA4KgtZkusVAsRRr5AkObIQII7KQpbkeoUAcdQrJEmOLASIo7KQJbleIUAc9QpJkiMLAeKoLGRJrlcIEEe9QpLkyEKAOCoLWZLrFQLEUa%2BQJDmyEJDIUX7eEF2EQMEISOSomShYOxJACMg7I1ctKyd4A4WAVtlbUn1l%2BVEl0i7RS5GkNIktQQTUHkMkaSWLo1BXnfQ786gktUlsCSGAw%2FaNiffJU0gxTVOedP2Rr6jr59ExhfIQbn3JMWaWRdmTe9BySlJGoh%2FlGt89M1E9krypJOO1ulh4UBDUmPKBPIKijnL9qABRf22aOu9hc08jzUa1Oqu8UgCTNmgezXF3mv%2F8gFZe5ZVYRznF4CgKxpHZxxtWtz2y3VEJivQdAkq0XKkZ4%2F4M9EIqWCSOFqIi5Q04ApL7owFHl6rvBQLEUS9QJBkyESCOykSXZHuBAHHUCxRJhkwEiro3ST%2By07EuRtsu4XDY8VGBkWbsuHHyCDYP5DuBF4%2FH1RP81%2BXynVjhP%2Fp1qpqF1AsKhMyYVf189RcZUX33ElDi7v17t%2B%2FeqcdOapEyZOzfu1%2BXzpWWhNYKFG9cj1%2BwVO8YwRwXIzpH4%2BEToZE%2FYOdfZQ4b5%2BGMBn4zU3vvDeO6%2B7RvPZ4XxMbKBcqU8aycGb%2FZpHXp5z4vfixevamGV%2FM4Mx%2Bbrw4b5z6vPWV9%2FbpFn9RZMZd94eLqHj2tWzeBletWr1izyko5cdwVHcsrrFt7AOxctmLpZ9u3K0rKFgusQSJmzIjzBvartacvcri4bX05w28A86VR0BA%2FOohPMqCcbIwcNdX3piuPjTd%2FPNDYuNgrFJS2leCZmkiB3q1w7NyqiLJIG7fpRTqk78Srib8FXuCHdcG95Sttw%2BZ6K3u7tll%2Fm3Hbrh0v%2F%2Fn1%2Bh07kFgUAWriQljEfLjiH4uXLcq3dA%2FTF7Wt53rHWGL4tWzwWBYTP4XJFCPOtq81dqwIbVmutGGhAxvNhy%2FSb31Ju%2BQGb%2BrpoVt2qRBqhlb6dEPtMluuZIeOHM71OOMZ0jeePJERnR4Bgr67ZJHgYrSs7bDBZ3cqrwiFOCuONR7%2FdMPavQf24ykYzJYtGjv6ovT8RbkvNkf5xufBY0NX3pVWOzV23NxaZ776mLL6TTha7YUb9ZqhWp%2Fhacl8cWsOm8DC7c34MbOC%2F2py5oV%2Bufn%2Bq5kgZKYEb9pFoyAKPmiR3ffaG3Y2LenV9uzJGeZ0gcdL6z7GE3jNQTX9R5093C4fHQP0LtDlWLFhA%2BgOIR3WrQaJnSTJjStuW4%2FmA1%2BKUx7UXjOMCdQBY9Upc%2BMTHhQeSHlpqj2BX8IYY6EWyr2z8dfxO4Z%2BufHY19j8p1zWqLZ3P5Fybf0Gl1mQbMeeXfgLiveodP6e4OnqdauErwVB0em0E9QqqLZ28AUjRolbdB7wPbEeFS1QbI42W7HwVffHe4xEMmXlm9nmAZoVUtIJ3nspVL%2Bcte%2FmUsmunStBNSQWtHOTC0yC30XKXj2qIlHn37Dfd2C%2F8K%2BQDw%2BaQyy8qRgzgdB5fU9yyMzrUclxFA7VvPCb4l0oZc%2BmvCrji8R6uA0fKbq%2BMNzp0ZmPv%2Fbs3%2BfSjWEKSYjv1b3qxMmTjkV99GmdiIefdvSg9lyDawaI7wlcqT2%2BOOGS4yiqrVWdxTdKacw8uKc4KJR4KV278s1vGLts3t7gRtWtDfy7DVZlm64C1483Noo0buaV0DdFtxjp4UrhgN3o4GGaUuSogvf1hKdJ4uhhbX0qql%2Bv3sKN1TdsbrYK4N%2BuAweRTHhfx%2FRwtMdPcI6iM%2BCYIDPS6hZ%2F5kKHzOyFxBR7XO9GV33%2FllByYsqMljumxzy5uWmV0rBajx9DArWyL%2Bs%2FNFQzxjFxWiSGLOb6Zcb%2BLVq4vTL8YqXPCJdLOHwwvu4jUahWO4rVnJttbh8plcbDZqjMngA6K4mTiAw1HhTfQN7bjn0u1OOPohXZ1rTQFsONwYfB%2BYGCuZvmw0ePgH9wusL7plVf3B48fMiab3JMkBmJOSkM%2F5Er31mwTFH5xpQiR7VNH2OiFO8hsC5d0%2BrD2fnc3aHP3uBPddbUCmh8uiDReYB6%2B0xMDqRlsW45J2ZOVZc%2Bjxgt%2BR1Q5rJEn7HKLTMcB%2BBWRgQS7zyr%2FeEuzBlahSodWOLrTzrPH73xa%2BXtacqI69i9s4UQ3nP5SQ3WLEw1qhiNLMpCuxab9w84XcSxxsSEB7Vrf3E65lQIhOsYrujZrQeGQQiDgrnXJ%2BHnwCTwCd73lIz0%2F0ePcEeLq1MFFhtcXRUdytEzxvdEjMZc5fEoUcm19cauteqH02FOLNVovYbaqwkXCEuH1rzBJ6faRzENqV96q37uJL2yFmMsTP6rj16ENPYsIqyEoli5Vv7zRvWD58Fms%2F9lyJjoO5Ln2rpY%2B9kIrHxm5rJi9LdnaM%2Fdyg43oiA26jqUCIJCB%2B33dyee%2Fp6VzArwUVHyO2DFNAViDCtq1tw%2BwtYH6bV4k09Nz5W8713VS7ix9Z%2BtdUwgIuFlt%2B%2FiK1LdKnNtgRCdAfQf2kcd16adSxBdUqhRZFdaWn6UM%2Bn3D8OKYA8mSiO2Vw357pAZN6Gbikf6F29Vrp6KllR8w%2BAgjXdeVP%2F3fnhfNvNe8%2F7X05pvPVqmv%2F54eM3CeFV16JaZyuAxIcwexI7r770ceulWGESdPl5%2F1GFdPt6mc2jPOvb0HUo508ffp0z6N6O8CpDxDsOzt3N%2Bz38mUT3M2ZvaDA21jamLzEh7JRJhf%2FlvZcF0vIqo3T3LjNkWo7J0bIQYPmpJujHQK0dzbzX08Lu28lOCyJ5y7%2B4mdwfDnYwWpiohP8rb8V9dp3z6MqqidxuAiVJ7nfS6hXxaEY9qx4Zu%2B529q4dunHb1fewrPD1elTZ2fWbPiLCx%2Bd3wu78CQbUf%2FRmbPASD8Tf05VsSNz4D0vP3G197NC0XbsOfHzBenMo7Et98ErtSeEHJROgbaFP%2FiiCcfehPd0PzZHSuP%2BiEIBcOSkhEO8FrKpG2CHM51qe5nStiAC6a%2B2wl7dy7W3Q04XezpbHH51jHtyezhyEfy6T2GNnh1uBoRBi6qWpo3OOfztOfulm9p0Zd%2FyYYg56lMmVemi9UV72NR8YRZl7zc0dQjAn%2FigQwv1H%2FkT0BGBZe%2BRd2oFG90aHfaV7yHTT9SKP9%2FRloYs%2BIMPqOcJbG0MszPSXU0296iZMbfdT5z6VllHEraAeK5BhZW8tL2bY4FaJYhzK0U61wFb2tj3DHY86dAvNjAIFRiBJjUIJvhgqxWAeFXfRT5eoHQxnbSc3x32NDxwOh0EDnURE8a6yTEt5nmrsdZv7NcyeERk%2FIBBhNWPzSbytPL0Q%2FwahbyDIOhDE%2FZ8r1P8%2FMiBj1wq%2Bzl6O8T7niTfOq%2B9O%2BVI5ZCokE7dCDxKgFPc742Q6je3QTreWlHAXBE0NIjgSl9qg1%2FCgYmRw6cOuGODv5Tja0yH0v0x6qj1z7C8euD28TR38DnxxU0Lp%2BmQ8%2Bwu3TUAbPzC%2FfkhZp3aqj%2FomPgXAtfd2KbArEmF41wMwyV8Bd6cgbkDK8a7lxpGlpJ12Cp%2FfWlCd4linYGnFjb3LmU%2F%2FGtAJH451HGl%2B6Ux81WXywVS%2FWtho0UrcsxLA9NuehFqNptu%2FsnBedi5pznR%2FBHZaVG1WX4am2bV7mcNy44PqUrkmqFGXwZbw7iz7GphWpT6TcDerPz%2F3KNgEkZvjhazFPlKN49EHFikCONCX1qOhtPeZfxnxb%2FcY9dhQwxDbXLdFf%2BD7mj8JvPqLHP89327yQZmrOX7l4ZXW4PH2q1VIA7tCo7Me2MPNQ8jUP26kbIJ9ae4GVMjOgdD41fG5Yz0ZnPvc4BjOjorkHHdPWMNHQi%2BVNLB05NkSFq3L0ZK7ZscLlZ5PgbNRsqT2J55uaUy%2BwhA%2B3p8xLVNSi9VffnuZmKz5nNuaP9m3GTBDSY45TPbyvaRHVJh88C3U%2FN0cPAWn1btUiB9aHbFmTwYx1BHsC7BCFwvxqLNIqtmjuQce0SUo09KKXiX0kdg1zhx37DLmzYH40r1nV3NLcPC26H82uFAY98W%2F81Hz2Zljd%2FPtslqUXCAF8evLj%2BeqaBcbu1aHD9bypTTbSKlannBpms31WJ5qmTsqEJfrN%2BMK0rUhLY7%2Fl85144wUKFOvq07sGe%2BpEc28fvB84zJeO4GW7VzZT2ZZ5WfusagtmrAqBpxX8aA51MXzhazkYP9W95ZgM00PGYxOVe0Zor%2FwIG0y1%2FXyrGB91deAfThenS%2B3QzSnaIc7U8xvwYv2dL2%2FiS7V3i4M4CVGgoOhN2veXWMtL8LJuKCi2koDoec10WmMyN0V4WPUS8qOoFSbJzeoL2OF6eEe%2BKJo6E8Tf1Zw2nhOiDYt3q9a%2B%2BoA5aJRS2UdkxF%2F%2BFuhHb7QMHe6MMX7K6TUdJDcewewE8ipd%2Bzo8lRAFfoCI9Tv4%2FhI098KVYh8TCIdWGF7WTZnWmCnW6PYUY6xgicVYrLK6KcLDNKXlR1Ex%2FewLBV3Y3pS3cEBZTlCcJ9jIErc9p%2F26Qbvidux14ms%2Fp0Y5xtEt6I%2BKzVB2jPSDm%2B23meHwiRiojwt%2BMe2pcSKjh5qWInnL1%2BiLdYGIoAtIeWDfLlGmeGsUTXCzDb1Ij60kkIDw3qN845iby1rBsncw3GQsPE3JcVQddH4TXTb8w14989Vp%2FBYTlt99MnzpZKduJwvv22DPcjp8qAGjq9O3qSE%2B9tr5KY%2BLMGuJlb8ulyxDPZY1I3KYydeGEFC6u3JgvJSCLxBR9Agthont8S4bepRvSRAbUNxoZL2pUvzJ15LjqNmxp%2BhWmnV%2FsrADjfByM2%2Fly6Jaltl4vmiOvXOp5DV7D4MQrGdaojIDOMgksZvPbsY7Kaef4nxN%2BGzMfe5YdzoyI6SsnS%2FiNOxhLdYlmnuUJhhmbYzPsWE0TTVIsPbV4%2FXltKeZtyhCdEbRSci9MzAzb%2BExJcdRtbxr04z6nhXWjDpWcUKHOFf0btlnkd57RThgOyhKrxq%2BiwrrTFvr7PH2sLJlTXj%2FNsTwg1JOXVADaw1cYObi06k0UM9c%2Fhq%2Fw0bBqtpT0cX4L%2BiI5h5dUmv5Hm%2FPuS%2F7nIF8OQAXXqIXgRx%2FrZef0iZlc2Tx8FHJcRQTmeaA0byGhxtZxn4iM%2BY87kZvVZt7v8O4fvAYSOJ79jCZleUy3nmae2jMT3%2FxeisJ1NAGXYRbrX4e3xztdCkrF2h7NuIJVkStToJTwtS4tvwlzwIv62VRvEcvJkoRk1dPEa86CU7DQeLUnRz6oCNhOdEhtQNzpJT0qOQ4inoa1UM4Y9Bqn1pghFdLdByMR3xlPGN3EqZLlYfPcwQIwyl9CN%2BDgoN6HNcF9GV%2FDH0yBwn0gWPT9vAbQ6%2FgaoDif%2Fgl%2F5dxJZ79Lu8PYBV33OSMh1kj1CifCMM%2B%2FGzUz5rT9gB0FI21RaAcG0Zt%2BVKC550zQtzjWKgldR%2FZZ0CtdKAvHolbHABR5FknUW4pclSt5YTj7SwWGJOX8Gp8vI%2F9%2BQ%2Bfl9i0BO0sMAVfsb6PjfSYAMKOvkT%2FSWIyX%2BQSf9V%2FeURQLTH9WrDZ%2FggE1X57FWRCsvrtJ%2ByPEMY%2BKRAXAWXedPzshP0p6KU%2F8hX0EDDJYFw4OY3c9pSZYbXfWeJNGP0vMzKfuo8RpERzjywYpLvcMGqXj54ljn4QM0rg%2Bpy3%2FohzndA9FR9Q87W336xbmxxNMoZWHh8MDOC28UEaqx9slykjnJxxkSG4AJlqj%2F78MDDMO25cdFrMV3%2FAFkzHLTb1af%2F%2BBRBLBU91FuGv1HJnhqVUY9YDmfuesMqqX3mf%2Bta0yOFt5tQR8dHXqyMmmAd3m0texAlTDEtTR%2FlkVthpWUv54UvmPTWgFDb5Jxb9jn3xDqVTd6X%2BA3XBdN490Ln31b7%2F1GklrVDq0M2KRgBv%2BeGQCzQI4T89klg9Xxn7LVZWAZmJyp6RSVPsKXOHQUr4P7GjGXOWeTX0lmTQrm1ZGU7UEVzHCpY4GMJKYAUwPntx0yvWLQI43aQ446ficvQIM9A1dHGZ3ceYKxeqS05PyPMd7HfN1X4zEbnRwvIrqTv3ZEMvxw9B8VlSrNcf5%2FOjaQzBDpVE%2Bx7aH37EMy2bzfABv5OJMFGg3zEn7LS1FInRyzSeWBP%2F5dnhRpN3PSHByogh%2F%2BV3hiY7EJS%2F%2BXmQ4bwn2zQB11dcaBOU22bE%2FutCLrN%2BMcMH37FGxq558FSSpv9iCjMt0roFKUFNHAyBmNwNPeQIClp57QF0TPGB1wQLsXwvSG9PIMKQYH8EmaIfnJnS85jinT%2FK54%2Fq5qECSu8haQtImbVC31EcAGGc%2BzV7H4hPML33CvyrebBBK%2B%2BlVJ1jXjzJamqbcnWvxWZTB5lYR%2F34r2zVfJ63TUfW9xxz6Hh1xOUgTWZieww6FeriV9kn77BD28zEcdaxt9J3lDJ2UrZa8B7F7nqlUzdLMbs0EUZvwVz6lrJmEebUEKNGu7Av3WQ%2FKhCFYvWoLNIGG%2B3sCNhFgSViMRObPLL5USEHubKdB5EmMJFIHHR3Rl%2B%2BozR7QXmFi8fRvNRqNjEYjzTN0stRTovztjijoxoiUshscV1ySD5jHvmVo2eMAagizSJQiuP6ZpWmBIFCgDgaKHP7srLEUV%2BaLVBK%2Fz9KPFygGXip3AAAAABJRU5ErkJggg%3D%3D%3B%22%20vertex%3D%221%22%20parent%3D%222%22%3E%3CmxGeometry%20x%3D%22365%22%20y%3D%2225.43%22%20width%3D%2235%22%20height%3D%2235%22%20as%3D%22geometry%22%2F%3E%3C%2FmxCell%3E%3CmxCell%20id%3D%229%22%20value%3D%22%22%20style%3D%22image%3Baspect%3Dfixed%3Bhtml%3D1%3Bpoints%3D%5B%5D%3Balign%3Dcenter%3BfontSize%3D12%3Bimage%3Dimg%2Flib%2Fazure2%2Fdatabases%2FAzure_Database_PostgreSQL_Server.svg%3B%22%20vertex%3D%221%22%20parent%3D%222%22%3E%3CmxGeometry%20x%3D%22275%22%20y%3D%2218.5%22%20width%3D%2236%22%20height%3D%2248%22%20as%3D%22geometry%22%2F%3E%3C%2FmxCell%3E%3CmxCell%20id%3D%2210%22%20value%3D%22%22%20style%3D%22points%3D%5B%5D%3Baspect%3Dfixed%3Bhtml%3D1%3Balign%3Dcenter%3Bshadow%3D0%3Bdashed%3D0%3BfillColor%3D%23FF6A00%3BstrokeColor%3Dnone%3Bshape%3Dmxgraph.alibaba_cloud.prometheus%3B%22%20vertex%3D%221%22%20parent%3D%222%22%3E%3CmxGeometry%20x%3D%22155%22%20y%3D%2215.55%22%20width%3D%2248.9%22%20height%3D%2248.9%22%20as%3D%22geometry%22%2F%3E%3C%2FmxCell%3E%3CmxCell%20id%3D%2211%22%20value%3D%22%22%20style%3D%22image%3Baspect%3Dfixed%3Bhtml%3D1%3Bpoints%3D%5B%5D%3Balign%3Dcenter%3BfontSize%3D12%3Bimage%3Dimg%2Flib%2Fazure2%2Fother%2FGrafana.svg%3B%22%20vertex%3D%221%22%20parent%3D%222%22%3E%3CmxGeometry%20x%3D%2245%22%20y%3D%2218.5%22%20width%3D%2254%22%20height%3D%2241.93%22%20as%3D%22geometry%22%2F%3E%3C%2FmxCell%3E%3C%2Froot%3E%3C%2FmxGraphModel%3E&lt;/span&gt;" style="rounded=1;whiteSpace=wrap;html=1;align=center;verticalAlign=bottom;" vertex="1" parent="2IJK8Kk_YS6RuWI4rXo5-104">
          <mxGeometry width="120" height="66" as="geometry" />
        </mxCell>
        <mxCell id="2IJK8Kk_YS6RuWI4rXo5-106" value="" style="aspect=fixed;sketch=0;html=1;dashed=0;whitespace=wrap;verticalLabelPosition=bottom;verticalAlign=top;fillColor=#2875E2;strokeColor=#ffffff;points=[[0.005,0.63,0],[0.1,0.2,0],[0.9,0.2,0],[0.5,0,0],[0.995,0.63,0],[0.72,0.99,0],[0.5,1,0],[0.28,0.99,0]];shape=mxgraph.kubernetes.icon2;kubernetesLabel=1;prIcon=node" vertex="1" parent="2IJK8Kk_YS6RuWI4rXo5-104">
          <mxGeometry x="30" y="12.5" width="42.71" height="41" as="geometry" />
        </mxCell>
        <mxCell id="2IJK8Kk_YS6RuWI4rXo5-107" value="" style="edgeStyle=orthogonalEdgeStyle;rounded=0;orthogonalLoop=1;jettySize=auto;html=1;flowAnimation=1;" edge="1" parent="1" source="2IJK8Kk_YS6RuWI4rXo5-105" target="2IJK8Kk_YS6RuWI4rXo5-99">
          <mxGeometry relative="1" as="geometry" />
        </mxCell>
        <mxCell id="2IJK8Kk_YS6RuWI4rXo5-108" value="Busca Notificação" style="edgeLabel;html=1;align=center;verticalAlign=middle;resizable=0;points=[];" vertex="1" connectable="0" parent="2IJK8Kk_YS6RuWI4rXo5-107">
          <mxGeometry x="-0.3009" y="2" relative="1" as="geometry">
            <mxPoint as="offset" />
          </mxGeometry>
        </mxCell>
        <mxCell id="2IJK8Kk_YS6RuWI4rXo5-109" style="edgeStyle=orthogonalEdgeStyle;rounded=0;orthogonalLoop=1;jettySize=auto;html=1;entryX=0.444;entryY=0.944;entryDx=0;entryDy=0;entryPerimeter=0;flowAnimation=1;" edge="1" parent="1" source="2IJK8Kk_YS6RuWI4rXo5-105" target="pkNkX71hZxLETCZVfeRQ-11">
          <mxGeometry relative="1" as="geometry" />
        </mxCell>
        <mxCell id="2IJK8Kk_YS6RuWI4rXo5-110" value="Notifica Usuario" style="edgeLabel;html=1;align=center;verticalAlign=middle;resizable=0;points=[];" vertex="1" connectable="0" parent="2IJK8Kk_YS6RuWI4rXo5-109">
          <mxGeometry x="-0.2272" relative="1" as="geometry">
            <mxPoint y="-1" as="offset" />
          </mxGeometry>
        </mxCell>
      </root>
    </mxGraphModel>
  </diagram>
</mxfile>
